G04 #@! TF.GenerationSoftware,KiCad,Pcbnew,(5.1.2)-2*
G04 #@! TF.CreationDate,2019-08-11T21:37:17+02:00*
G04 #@! TF.ProjectId,20190811_usbasp,32303139-3038-4313-915f-757362617370,rev?*
G04 #@! TF.SameCoordinates,Original*
G04 #@! TF.FileFunction,Copper,L2,Bot*
G04 #@! TF.FilePolarity,Positive*
%FSLAX46Y46*%
G04 Gerber Fmt 4.6, Leading zero omitted, Abs format (unit mm)*
G04 Created by KiCad (PCBNEW (5.1.2)-2) date 2019-08-11 21:37:17*
%MOMM*%
%LPD*%
G04 APERTURE LIST*
%ADD10C,1.500000*%
%ADD11O,1.700000X1.700000*%
%ADD12R,1.700000X1.700000*%
%ADD13C,0.800000*%
%ADD14C,1.016000*%
%ADD15C,0.508000*%
%ADD16C,0.254000*%
%ADD17C,0.762000*%
G04 APERTURE END LIST*
D10*
X154485000Y-117475000D03*
X159385000Y-117475000D03*
D11*
X163830000Y-139700000D03*
D12*
X163830000Y-137160000D03*
D11*
X168275000Y-139700000D03*
D12*
X168275000Y-137160000D03*
D11*
X136525000Y-144145000D03*
D12*
X136525000Y-141605000D03*
D11*
X128270000Y-133350000D03*
X128270000Y-130810000D03*
D12*
X128270000Y-128270000D03*
D11*
X175260000Y-138430000D03*
D12*
X172720000Y-138430000D03*
D11*
X129540000Y-138430000D03*
D12*
X127000000Y-138430000D03*
D11*
X175260000Y-146050000D03*
D12*
X172720000Y-146050000D03*
D11*
X129540000Y-146050000D03*
D12*
X127000000Y-146050000D03*
D11*
X159385000Y-146050000D03*
X156845000Y-146050000D03*
X154305000Y-146050000D03*
X151765000Y-146050000D03*
X149225000Y-146050000D03*
D12*
X146685000Y-146050000D03*
D13*
X176530000Y-118110000D03*
X176530000Y-120650000D03*
X145288000Y-131064000D03*
X144272000Y-127381000D03*
X153035000Y-134112000D03*
X160401000Y-127381000D03*
X166370000Y-115570000D03*
X168910000Y-115570000D03*
X171450000Y-115570000D03*
X173990000Y-115570000D03*
X166370000Y-147320000D03*
X168910000Y-147320000D03*
X163830000Y-147320000D03*
X161290000Y-147320000D03*
X143510000Y-147320000D03*
X140970000Y-147320000D03*
X138430000Y-147320000D03*
X135890000Y-147320000D03*
X133350000Y-147320000D03*
X125730000Y-135890000D03*
X125730000Y-130810000D03*
X125730000Y-125730000D03*
X139700000Y-115570000D03*
X142240000Y-115570000D03*
X158750000Y-119380000D03*
X161290000Y-119380000D03*
X153670000Y-119380000D03*
X151130000Y-119380000D03*
X147320000Y-119380000D03*
X157988000Y-126492000D03*
X157988000Y-133604000D03*
X136652000Y-119888000D03*
X147828000Y-124460000D03*
X138176000Y-124460000D03*
X137668000Y-130556000D03*
X169672000Y-132588000D03*
X171450000Y-130048000D03*
X169799000Y-127508000D03*
X162687000Y-132715000D03*
X171323000Y-135382000D03*
X132588000Y-121666000D03*
X157226000Y-125349000D03*
X155212999Y-133585001D03*
X151910999Y-125748999D03*
X160528000Y-129540000D03*
X164719000Y-130048000D03*
X161417000Y-133985000D03*
X166116000Y-135636000D03*
X166243000Y-127381000D03*
X156845000Y-140462000D03*
X159385000Y-129540000D03*
X159385000Y-135128000D03*
X156845000Y-128651000D03*
X156845000Y-135128000D03*
X135001000Y-125095000D03*
X172720000Y-124714000D03*
D14*
X136525000Y-134620000D02*
X136525000Y-141605000D01*
X128270000Y-130810000D02*
X132715000Y-130810000D01*
X132715000Y-130810000D02*
X136525000Y-134620000D01*
D15*
X137776001Y-125748999D02*
X132715000Y-130810000D01*
X157226000Y-125349000D02*
X156826001Y-125748999D01*
X155212999Y-125748999D02*
X155212999Y-133585001D01*
X156826001Y-125748999D02*
X155212999Y-125748999D01*
X150894999Y-125748999D02*
X137776001Y-125748999D01*
X155212999Y-125748999D02*
X151910999Y-125748999D01*
X151910999Y-125748999D02*
X150894999Y-125748999D01*
D16*
X164211000Y-129540000D02*
X160528000Y-129540000D01*
X164719000Y-130048000D02*
X164211000Y-129540000D01*
X164465000Y-133985000D02*
X161417000Y-133985000D01*
X166116000Y-135636000D02*
X164465000Y-133985000D01*
D14*
X148522081Y-144145000D02*
X149225000Y-144847919D01*
X136525000Y-144145000D02*
X148522081Y-144145000D01*
X128881725Y-144145000D02*
X127091642Y-145935083D01*
X136525000Y-144145000D02*
X128881725Y-144145000D01*
X149225000Y-146050000D02*
X149225000Y-144847919D01*
X149225000Y-146050000D02*
X149225000Y-144780000D01*
X149225000Y-144780000D02*
X149860000Y-144145000D01*
D17*
X171108000Y-146050000D02*
X172720000Y-146050000D01*
X169203000Y-144145000D02*
X171108000Y-146050000D01*
X149860000Y-144145000D02*
X169203000Y-144145000D01*
D16*
X172720000Y-133858000D02*
X172720000Y-138430000D01*
X166243000Y-127381000D02*
X172720000Y-133858000D01*
X156845000Y-140462000D02*
X162052000Y-140462000D01*
X162052000Y-140462000D02*
X163068000Y-141478000D01*
X166497000Y-141478000D02*
X168275000Y-139700000D01*
X163068000Y-141478000D02*
X166497000Y-141478000D01*
D15*
X159385000Y-129540000D02*
X159385000Y-130105685D01*
X159385000Y-130105685D02*
X159385000Y-135128000D01*
X156845000Y-128651000D02*
X156845000Y-135128000D01*
D16*
X135001000Y-125095000D02*
X135400999Y-124695001D01*
X135400999Y-124695001D02*
X137033000Y-123063000D01*
X137033000Y-123063000D02*
X166624000Y-123063000D01*
X166624000Y-123063000D02*
X171069000Y-123063000D01*
X171069000Y-123063000D02*
X172720000Y-124714000D01*
G36*
X176672653Y-114849543D02*
G01*
X176809874Y-114890973D01*
X176936435Y-114958266D01*
X177047513Y-115048859D01*
X177138883Y-115159305D01*
X177207056Y-115285391D01*
X177249444Y-115422321D01*
X177267000Y-115589359D01*
X177267001Y-147293924D01*
X177250457Y-147462653D01*
X177209027Y-147599874D01*
X177141733Y-147726436D01*
X177051141Y-147837513D01*
X176940695Y-147928883D01*
X176814608Y-147997057D01*
X176677679Y-148039444D01*
X176510641Y-148057000D01*
X125756066Y-148057000D01*
X125587347Y-148040457D01*
X125450126Y-147999027D01*
X125323564Y-147931733D01*
X125212487Y-147841141D01*
X125121117Y-147730695D01*
X125052943Y-147604608D01*
X125010556Y-147467679D01*
X124993000Y-147300641D01*
X124993000Y-145200000D01*
X125639543Y-145200000D01*
X125639543Y-146900000D01*
X125649351Y-146999585D01*
X125678399Y-147095343D01*
X125725571Y-147183595D01*
X125789052Y-147260948D01*
X125866405Y-147324429D01*
X125954657Y-147371601D01*
X126050415Y-147400649D01*
X126150000Y-147410457D01*
X127850000Y-147410457D01*
X127949585Y-147400649D01*
X128045343Y-147371601D01*
X128133595Y-147324429D01*
X128210948Y-147260948D01*
X128274429Y-147183595D01*
X128321601Y-147095343D01*
X128350649Y-146999585D01*
X128360457Y-146900000D01*
X128360457Y-146709833D01*
X128416558Y-146812921D01*
X128586983Y-147017434D01*
X128794032Y-147184769D01*
X129029748Y-147308496D01*
X129265076Y-147379880D01*
X129476500Y-147279361D01*
X129476500Y-146113500D01*
X129603500Y-146113500D01*
X129603500Y-147279361D01*
X129814924Y-147379880D01*
X130050252Y-147308496D01*
X130285968Y-147184769D01*
X130493017Y-147017434D01*
X130590877Y-146900000D01*
X145324542Y-146900000D01*
X145334350Y-146999585D01*
X145363398Y-147095344D01*
X145410570Y-147183595D01*
X145474052Y-147260948D01*
X145551405Y-147324430D01*
X145639656Y-147371602D01*
X145735415Y-147400650D01*
X145835000Y-147410458D01*
X146494500Y-147408000D01*
X146621500Y-147281000D01*
X146621500Y-146113500D01*
X145454000Y-146113500D01*
X145327000Y-146240500D01*
X145324542Y-146900000D01*
X130590877Y-146900000D01*
X130663442Y-146812921D01*
X130790694Y-146579089D01*
X130869882Y-146324924D01*
X130769517Y-146113500D01*
X129603500Y-146113500D01*
X129476500Y-146113500D01*
X129456500Y-146113500D01*
X129456500Y-145986500D01*
X129476500Y-145986500D01*
X129476500Y-145966500D01*
X129603500Y-145966500D01*
X129603500Y-145986500D01*
X130769517Y-145986500D01*
X130869882Y-145775076D01*
X130790694Y-145520911D01*
X130663442Y-145287079D01*
X130558378Y-145161000D01*
X135622373Y-145161000D01*
X135766886Y-145279598D01*
X136002802Y-145405698D01*
X136258786Y-145483350D01*
X136458294Y-145503000D01*
X136591706Y-145503000D01*
X136791214Y-145483350D01*
X137047198Y-145405698D01*
X137283114Y-145279598D01*
X137427627Y-145161000D01*
X145328383Y-145161000D01*
X145324542Y-145200000D01*
X145327000Y-145859500D01*
X145454000Y-145986500D01*
X146621500Y-145986500D01*
X146621500Y-145966500D01*
X146748500Y-145966500D01*
X146748500Y-145986500D01*
X146768500Y-145986500D01*
X146768500Y-146113500D01*
X146748500Y-146113500D01*
X146748500Y-147281000D01*
X146875500Y-147408000D01*
X147535000Y-147410458D01*
X147634585Y-147400650D01*
X147730344Y-147371602D01*
X147818595Y-147324430D01*
X147895948Y-147260948D01*
X147959430Y-147183595D01*
X148006602Y-147095344D01*
X148035650Y-146999585D01*
X148045458Y-146900000D01*
X148044798Y-146722794D01*
X148090402Y-146808114D01*
X148260103Y-147014897D01*
X148466886Y-147184598D01*
X148702802Y-147310698D01*
X148958786Y-147388350D01*
X149158294Y-147408000D01*
X149291706Y-147408000D01*
X149491214Y-147388350D01*
X149747198Y-147310698D01*
X149983114Y-147184598D01*
X150189897Y-147014897D01*
X150359598Y-146808114D01*
X150485698Y-146572198D01*
X150495000Y-146541533D01*
X150504302Y-146572198D01*
X150630402Y-146808114D01*
X150800103Y-147014897D01*
X151006886Y-147184598D01*
X151242802Y-147310698D01*
X151498786Y-147388350D01*
X151698294Y-147408000D01*
X151831706Y-147408000D01*
X152031214Y-147388350D01*
X152287198Y-147310698D01*
X152523114Y-147184598D01*
X152729897Y-147014897D01*
X152899598Y-146808114D01*
X153025698Y-146572198D01*
X153035000Y-146541533D01*
X153044302Y-146572198D01*
X153170402Y-146808114D01*
X153340103Y-147014897D01*
X153546886Y-147184598D01*
X153782802Y-147310698D01*
X154038786Y-147388350D01*
X154238294Y-147408000D01*
X154371706Y-147408000D01*
X154571214Y-147388350D01*
X154827198Y-147310698D01*
X155063114Y-147184598D01*
X155269897Y-147014897D01*
X155439598Y-146808114D01*
X155565698Y-146572198D01*
X155575000Y-146541533D01*
X155584302Y-146572198D01*
X155710402Y-146808114D01*
X155880103Y-147014897D01*
X156086886Y-147184598D01*
X156322802Y-147310698D01*
X156578786Y-147388350D01*
X156778294Y-147408000D01*
X156911706Y-147408000D01*
X157111214Y-147388350D01*
X157367198Y-147310698D01*
X157603114Y-147184598D01*
X157809897Y-147014897D01*
X157979598Y-146808114D01*
X158105698Y-146572198D01*
X158115000Y-146541533D01*
X158124302Y-146572198D01*
X158250402Y-146808114D01*
X158420103Y-147014897D01*
X158626886Y-147184598D01*
X158862802Y-147310698D01*
X159118786Y-147388350D01*
X159318294Y-147408000D01*
X159451706Y-147408000D01*
X159651214Y-147388350D01*
X159907198Y-147310698D01*
X160143114Y-147184598D01*
X160349897Y-147014897D01*
X160519598Y-146808114D01*
X160645698Y-146572198D01*
X160723350Y-146316214D01*
X160749570Y-146050000D01*
X160723350Y-145783786D01*
X160645698Y-145527802D01*
X160519598Y-145291886D01*
X160349897Y-145085103D01*
X160287627Y-145034000D01*
X168834765Y-145034000D01*
X170448506Y-146647742D01*
X170476341Y-146681659D01*
X170611709Y-146792753D01*
X170746204Y-146864642D01*
X170765635Y-146875028D01*
X170766149Y-146875303D01*
X170847566Y-146900000D01*
X170933725Y-146926136D01*
X170950325Y-146927771D01*
X171064333Y-146939000D01*
X171064340Y-146939000D01*
X171108000Y-146943300D01*
X171151660Y-146939000D01*
X171363384Y-146939000D01*
X171369351Y-146999585D01*
X171398399Y-147095343D01*
X171445571Y-147183595D01*
X171509052Y-147260948D01*
X171586405Y-147324429D01*
X171674657Y-147371601D01*
X171770415Y-147400649D01*
X171870000Y-147410457D01*
X173570000Y-147410457D01*
X173669585Y-147400649D01*
X173765343Y-147371601D01*
X173853595Y-147324429D01*
X173930948Y-147260948D01*
X173994429Y-147183595D01*
X174041601Y-147095343D01*
X174070649Y-146999585D01*
X174080457Y-146900000D01*
X174080457Y-146709833D01*
X174136558Y-146812921D01*
X174306983Y-147017434D01*
X174514032Y-147184769D01*
X174749748Y-147308496D01*
X174985076Y-147379880D01*
X175196500Y-147279361D01*
X175196500Y-146113500D01*
X175323500Y-146113500D01*
X175323500Y-147279361D01*
X175534924Y-147379880D01*
X175770252Y-147308496D01*
X176005968Y-147184769D01*
X176213017Y-147017434D01*
X176383442Y-146812921D01*
X176510694Y-146579089D01*
X176589882Y-146324924D01*
X176489517Y-146113500D01*
X175323500Y-146113500D01*
X175196500Y-146113500D01*
X175176500Y-146113500D01*
X175176500Y-145986500D01*
X175196500Y-145986500D01*
X175196500Y-144820639D01*
X175323500Y-144820639D01*
X175323500Y-145986500D01*
X176489517Y-145986500D01*
X176589882Y-145775076D01*
X176510694Y-145520911D01*
X176383442Y-145287079D01*
X176213017Y-145082566D01*
X176005968Y-144915231D01*
X175770252Y-144791504D01*
X175534924Y-144720120D01*
X175323500Y-144820639D01*
X175196500Y-144820639D01*
X174985076Y-144720120D01*
X174749748Y-144791504D01*
X174514032Y-144915231D01*
X174306983Y-145082566D01*
X174136558Y-145287079D01*
X174080457Y-145390167D01*
X174080457Y-145200000D01*
X174070649Y-145100415D01*
X174041601Y-145004657D01*
X173994429Y-144916405D01*
X173930948Y-144839052D01*
X173853595Y-144775571D01*
X173765343Y-144728399D01*
X173669585Y-144699351D01*
X173570000Y-144689543D01*
X171870000Y-144689543D01*
X171770415Y-144699351D01*
X171674657Y-144728399D01*
X171586405Y-144775571D01*
X171509052Y-144839052D01*
X171445571Y-144916405D01*
X171398399Y-145004657D01*
X171380127Y-145064891D01*
X169862499Y-143547264D01*
X169834659Y-143513341D01*
X169699291Y-143402247D01*
X169544851Y-143319697D01*
X169377274Y-143268864D01*
X169246667Y-143256000D01*
X169246660Y-143256000D01*
X169203000Y-143251700D01*
X169159340Y-143256000D01*
X150352092Y-143256000D01*
X150250687Y-143201798D01*
X150059171Y-143143702D01*
X149860000Y-143124085D01*
X149660829Y-143143702D01*
X149469313Y-143201798D01*
X149292810Y-143296140D01*
X149191041Y-143379661D01*
X149089271Y-143296140D01*
X148912768Y-143201798D01*
X148721252Y-143143702D01*
X148571983Y-143129000D01*
X148522081Y-143124085D01*
X148472179Y-143129000D01*
X137427627Y-143129000D01*
X137283114Y-143010402D01*
X137199028Y-142965457D01*
X137375000Y-142965457D01*
X137474585Y-142955649D01*
X137570343Y-142926601D01*
X137658595Y-142879429D01*
X137735948Y-142815948D01*
X137799429Y-142738595D01*
X137846601Y-142650343D01*
X137875649Y-142554585D01*
X137885457Y-142455000D01*
X137885457Y-140755000D01*
X137875649Y-140655415D01*
X137846601Y-140559657D01*
X137799429Y-140471405D01*
X137735948Y-140394052D01*
X137709772Y-140372570D01*
X155937000Y-140372570D01*
X155937000Y-140551430D01*
X155971894Y-140726854D01*
X156040341Y-140892099D01*
X156139711Y-141040816D01*
X156266184Y-141167289D01*
X156414901Y-141266659D01*
X156580146Y-141335106D01*
X156755570Y-141370000D01*
X156934430Y-141370000D01*
X157109854Y-141335106D01*
X157275099Y-141266659D01*
X157423816Y-141167289D01*
X157494105Y-141097000D01*
X161788976Y-141097000D01*
X162596930Y-141904955D01*
X162616815Y-141929185D01*
X162713506Y-142008537D01*
X162823820Y-142067502D01*
X162943518Y-142103812D01*
X163036808Y-142113000D01*
X163036819Y-142113000D01*
X163068000Y-142116071D01*
X163099181Y-142113000D01*
X166465819Y-142113000D01*
X166497000Y-142116071D01*
X166528181Y-142113000D01*
X166528192Y-142113000D01*
X166621482Y-142103812D01*
X166741180Y-142067502D01*
X166851494Y-142008537D01*
X166948185Y-141929185D01*
X166968074Y-141904950D01*
X167875198Y-140997827D01*
X168008786Y-141038350D01*
X168208294Y-141058000D01*
X168341706Y-141058000D01*
X168541214Y-141038350D01*
X168797198Y-140960698D01*
X169033114Y-140834598D01*
X169239897Y-140664897D01*
X169409598Y-140458114D01*
X169535698Y-140222198D01*
X169613350Y-139966214D01*
X169639570Y-139700000D01*
X169613350Y-139433786D01*
X169535698Y-139177802D01*
X169409598Y-138941886D01*
X169239897Y-138735103D01*
X169033114Y-138565402D01*
X168949028Y-138520457D01*
X169125000Y-138520457D01*
X169224585Y-138510649D01*
X169320343Y-138481601D01*
X169408595Y-138434429D01*
X169485948Y-138370948D01*
X169549429Y-138293595D01*
X169596601Y-138205343D01*
X169625649Y-138109585D01*
X169635457Y-138010000D01*
X169635457Y-136310000D01*
X169625649Y-136210415D01*
X169596601Y-136114657D01*
X169549429Y-136026405D01*
X169485948Y-135949052D01*
X169408595Y-135885571D01*
X169320343Y-135838399D01*
X169224585Y-135809351D01*
X169125000Y-135799543D01*
X167425000Y-135799543D01*
X167325415Y-135809351D01*
X167229657Y-135838399D01*
X167141405Y-135885571D01*
X167064052Y-135949052D01*
X167000571Y-136026405D01*
X166953399Y-136114657D01*
X166924351Y-136210415D01*
X166914543Y-136310000D01*
X166914543Y-138010000D01*
X166924351Y-138109585D01*
X166953399Y-138205343D01*
X167000571Y-138293595D01*
X167064052Y-138370948D01*
X167141405Y-138434429D01*
X167229657Y-138481601D01*
X167325415Y-138510649D01*
X167425000Y-138520457D01*
X167600972Y-138520457D01*
X167516886Y-138565402D01*
X167310103Y-138735103D01*
X167140402Y-138941886D01*
X167014302Y-139177802D01*
X166936650Y-139433786D01*
X166910430Y-139700000D01*
X166936650Y-139966214D01*
X166977173Y-140099802D01*
X166233976Y-140843000D01*
X164556982Y-140843000D01*
X164592921Y-140823442D01*
X164797434Y-140653017D01*
X164964769Y-140445968D01*
X165088496Y-140210252D01*
X165159880Y-139974924D01*
X165059361Y-139763500D01*
X163893500Y-139763500D01*
X163893500Y-139783500D01*
X163766500Y-139783500D01*
X163766500Y-139763500D01*
X162600639Y-139763500D01*
X162500120Y-139974924D01*
X162515594Y-140025935D01*
X162503185Y-140010815D01*
X162406494Y-139931463D01*
X162296180Y-139872498D01*
X162176482Y-139836188D01*
X162083192Y-139827000D01*
X162083181Y-139827000D01*
X162052000Y-139823929D01*
X162020819Y-139827000D01*
X157494105Y-139827000D01*
X157423816Y-139756711D01*
X157275099Y-139657341D01*
X157109854Y-139588894D01*
X156934430Y-139554000D01*
X156755570Y-139554000D01*
X156580146Y-139588894D01*
X156414901Y-139657341D01*
X156266184Y-139756711D01*
X156139711Y-139883184D01*
X156040341Y-140031901D01*
X155971894Y-140197146D01*
X155937000Y-140372570D01*
X137709772Y-140372570D01*
X137658595Y-140330571D01*
X137570343Y-140283399D01*
X137541000Y-140274498D01*
X137541000Y-136310000D01*
X162469543Y-136310000D01*
X162469543Y-138010000D01*
X162479351Y-138109585D01*
X162508399Y-138205343D01*
X162555571Y-138293595D01*
X162619052Y-138370948D01*
X162696405Y-138434429D01*
X162784657Y-138481601D01*
X162880415Y-138510649D01*
X162980000Y-138520457D01*
X163170167Y-138520457D01*
X163067079Y-138576558D01*
X162862566Y-138746983D01*
X162695231Y-138954032D01*
X162571504Y-139189748D01*
X162500120Y-139425076D01*
X162600639Y-139636500D01*
X163766500Y-139636500D01*
X163766500Y-139616500D01*
X163893500Y-139616500D01*
X163893500Y-139636500D01*
X165059361Y-139636500D01*
X165159880Y-139425076D01*
X165088496Y-139189748D01*
X164964769Y-138954032D01*
X164797434Y-138746983D01*
X164592921Y-138576558D01*
X164489833Y-138520457D01*
X164680000Y-138520457D01*
X164779585Y-138510649D01*
X164875343Y-138481601D01*
X164963595Y-138434429D01*
X165040948Y-138370948D01*
X165104429Y-138293595D01*
X165151601Y-138205343D01*
X165180649Y-138109585D01*
X165190457Y-138010000D01*
X165190457Y-136310000D01*
X165180649Y-136210415D01*
X165151601Y-136114657D01*
X165104429Y-136026405D01*
X165040948Y-135949052D01*
X164963595Y-135885571D01*
X164875343Y-135838399D01*
X164779585Y-135809351D01*
X164680000Y-135799543D01*
X162980000Y-135799543D01*
X162880415Y-135809351D01*
X162784657Y-135838399D01*
X162696405Y-135885571D01*
X162619052Y-135949052D01*
X162555571Y-136026405D01*
X162508399Y-136114657D01*
X162479351Y-136210415D01*
X162469543Y-136310000D01*
X137541000Y-136310000D01*
X137541000Y-134669902D01*
X137545915Y-134620000D01*
X137526298Y-134420829D01*
X137468202Y-134229313D01*
X137373860Y-134052810D01*
X137278706Y-133936865D01*
X137246896Y-133898104D01*
X137208133Y-133866292D01*
X133972235Y-130630395D01*
X138091632Y-126510999D01*
X151417057Y-126510999D01*
X151480900Y-126553658D01*
X151646145Y-126622105D01*
X151821569Y-126656999D01*
X152000429Y-126656999D01*
X152175853Y-126622105D01*
X152341098Y-126553658D01*
X152404941Y-126510999D01*
X154450999Y-126510999D01*
X154451000Y-133091057D01*
X154408340Y-133154902D01*
X154339893Y-133320147D01*
X154304999Y-133495571D01*
X154304999Y-133674431D01*
X154339893Y-133849855D01*
X154408340Y-134015100D01*
X154507710Y-134163817D01*
X154634183Y-134290290D01*
X154782900Y-134389660D01*
X154948145Y-134458107D01*
X155123569Y-134493001D01*
X155302429Y-134493001D01*
X155477853Y-134458107D01*
X155643098Y-134389660D01*
X155791815Y-134290290D01*
X155918288Y-134163817D01*
X156017658Y-134015100D01*
X156083001Y-133857349D01*
X156083001Y-134634056D01*
X156040341Y-134697901D01*
X155971894Y-134863146D01*
X155937000Y-135038570D01*
X155937000Y-135217430D01*
X155971894Y-135392854D01*
X156040341Y-135558099D01*
X156139711Y-135706816D01*
X156266184Y-135833289D01*
X156414901Y-135932659D01*
X156580146Y-136001106D01*
X156755570Y-136036000D01*
X156934430Y-136036000D01*
X157109854Y-136001106D01*
X157275099Y-135932659D01*
X157423816Y-135833289D01*
X157550289Y-135706816D01*
X157649659Y-135558099D01*
X157718106Y-135392854D01*
X157753000Y-135217430D01*
X157753000Y-135038570D01*
X157718106Y-134863146D01*
X157649659Y-134697901D01*
X157607000Y-134634058D01*
X157607000Y-129450570D01*
X158477000Y-129450570D01*
X158477000Y-129629430D01*
X158511894Y-129804854D01*
X158580341Y-129970099D01*
X158623000Y-130033942D01*
X158623000Y-130068260D01*
X158623001Y-134634056D01*
X158580341Y-134697901D01*
X158511894Y-134863146D01*
X158477000Y-135038570D01*
X158477000Y-135217430D01*
X158511894Y-135392854D01*
X158580341Y-135558099D01*
X158679711Y-135706816D01*
X158806184Y-135833289D01*
X158954901Y-135932659D01*
X159120146Y-136001106D01*
X159295570Y-136036000D01*
X159474430Y-136036000D01*
X159649854Y-136001106D01*
X159815099Y-135932659D01*
X159963816Y-135833289D01*
X160090289Y-135706816D01*
X160189659Y-135558099D01*
X160258106Y-135392854D01*
X160293000Y-135217430D01*
X160293000Y-135038570D01*
X160258106Y-134863146D01*
X160189659Y-134697901D01*
X160147000Y-134634058D01*
X160147000Y-133895570D01*
X160509000Y-133895570D01*
X160509000Y-134074430D01*
X160543894Y-134249854D01*
X160612341Y-134415099D01*
X160711711Y-134563816D01*
X160838184Y-134690289D01*
X160986901Y-134789659D01*
X161152146Y-134858106D01*
X161327570Y-134893000D01*
X161506430Y-134893000D01*
X161681854Y-134858106D01*
X161847099Y-134789659D01*
X161995816Y-134690289D01*
X162066105Y-134620000D01*
X164201976Y-134620000D01*
X165208000Y-135626025D01*
X165208000Y-135725430D01*
X165242894Y-135900854D01*
X165311341Y-136066099D01*
X165410711Y-136214816D01*
X165537184Y-136341289D01*
X165685901Y-136440659D01*
X165851146Y-136509106D01*
X166026570Y-136544000D01*
X166205430Y-136544000D01*
X166380854Y-136509106D01*
X166546099Y-136440659D01*
X166694816Y-136341289D01*
X166821289Y-136214816D01*
X166920659Y-136066099D01*
X166989106Y-135900854D01*
X167024000Y-135725430D01*
X167024000Y-135546570D01*
X166989106Y-135371146D01*
X166920659Y-135205901D01*
X166821289Y-135057184D01*
X166694816Y-134930711D01*
X166546099Y-134831341D01*
X166380854Y-134762894D01*
X166205430Y-134728000D01*
X166106025Y-134728000D01*
X164936074Y-133558050D01*
X164916185Y-133533815D01*
X164819494Y-133454463D01*
X164709180Y-133395498D01*
X164589482Y-133359188D01*
X164496192Y-133350000D01*
X164496181Y-133350000D01*
X164465000Y-133346929D01*
X164433819Y-133350000D01*
X162066105Y-133350000D01*
X161995816Y-133279711D01*
X161847099Y-133180341D01*
X161681854Y-133111894D01*
X161506430Y-133077000D01*
X161327570Y-133077000D01*
X161152146Y-133111894D01*
X160986901Y-133180341D01*
X160838184Y-133279711D01*
X160711711Y-133406184D01*
X160612341Y-133554901D01*
X160543894Y-133720146D01*
X160509000Y-133895570D01*
X160147000Y-133895570D01*
X160147000Y-130364997D01*
X160263146Y-130413106D01*
X160438570Y-130448000D01*
X160617430Y-130448000D01*
X160792854Y-130413106D01*
X160958099Y-130344659D01*
X161106816Y-130245289D01*
X161177105Y-130175000D01*
X163818473Y-130175000D01*
X163845894Y-130312854D01*
X163914341Y-130478099D01*
X164013711Y-130626816D01*
X164140184Y-130753289D01*
X164288901Y-130852659D01*
X164454146Y-130921106D01*
X164629570Y-130956000D01*
X164808430Y-130956000D01*
X164983854Y-130921106D01*
X165149099Y-130852659D01*
X165297816Y-130753289D01*
X165424289Y-130626816D01*
X165523659Y-130478099D01*
X165592106Y-130312854D01*
X165627000Y-130137430D01*
X165627000Y-129958570D01*
X165592106Y-129783146D01*
X165523659Y-129617901D01*
X165424289Y-129469184D01*
X165297816Y-129342711D01*
X165149099Y-129243341D01*
X164983854Y-129174894D01*
X164808430Y-129140000D01*
X164709024Y-129140000D01*
X164682074Y-129113050D01*
X164662185Y-129088815D01*
X164565494Y-129009463D01*
X164455180Y-128950498D01*
X164335482Y-128914188D01*
X164242192Y-128905000D01*
X164242181Y-128905000D01*
X164211000Y-128901929D01*
X164179819Y-128905000D01*
X161177105Y-128905000D01*
X161106816Y-128834711D01*
X160958099Y-128735341D01*
X160792854Y-128666894D01*
X160617430Y-128632000D01*
X160438570Y-128632000D01*
X160263146Y-128666894D01*
X160097901Y-128735341D01*
X159956500Y-128829823D01*
X159815099Y-128735341D01*
X159649854Y-128666894D01*
X159474430Y-128632000D01*
X159295570Y-128632000D01*
X159120146Y-128666894D01*
X158954901Y-128735341D01*
X158806184Y-128834711D01*
X158679711Y-128961184D01*
X158580341Y-129109901D01*
X158511894Y-129275146D01*
X158477000Y-129450570D01*
X157607000Y-129450570D01*
X157607000Y-129144942D01*
X157649659Y-129081099D01*
X157718106Y-128915854D01*
X157753000Y-128740430D01*
X157753000Y-128561570D01*
X157718106Y-128386146D01*
X157649659Y-128220901D01*
X157550289Y-128072184D01*
X157423816Y-127945711D01*
X157275099Y-127846341D01*
X157109854Y-127777894D01*
X156934430Y-127743000D01*
X156755570Y-127743000D01*
X156580146Y-127777894D01*
X156414901Y-127846341D01*
X156266184Y-127945711D01*
X156139711Y-128072184D01*
X156040341Y-128220901D01*
X155974999Y-128378650D01*
X155974999Y-127291570D01*
X165335000Y-127291570D01*
X165335000Y-127470430D01*
X165369894Y-127645854D01*
X165438341Y-127811099D01*
X165537711Y-127959816D01*
X165664184Y-128086289D01*
X165812901Y-128185659D01*
X165978146Y-128254106D01*
X166153570Y-128289000D01*
X166252976Y-128289000D01*
X172085000Y-134121025D01*
X172085001Y-137069543D01*
X171870000Y-137069543D01*
X171770415Y-137079351D01*
X171674657Y-137108399D01*
X171586405Y-137155571D01*
X171509052Y-137219052D01*
X171445571Y-137296405D01*
X171398399Y-137384657D01*
X171369351Y-137480415D01*
X171359543Y-137580000D01*
X171359543Y-139280000D01*
X171369351Y-139379585D01*
X171398399Y-139475343D01*
X171445571Y-139563595D01*
X171509052Y-139640948D01*
X171586405Y-139704429D01*
X171674657Y-139751601D01*
X171770415Y-139780649D01*
X171870000Y-139790457D01*
X173570000Y-139790457D01*
X173669585Y-139780649D01*
X173765343Y-139751601D01*
X173853595Y-139704429D01*
X173930948Y-139640948D01*
X173994429Y-139563595D01*
X174041601Y-139475343D01*
X174070649Y-139379585D01*
X174080457Y-139280000D01*
X174080457Y-139089833D01*
X174136558Y-139192921D01*
X174306983Y-139397434D01*
X174514032Y-139564769D01*
X174749748Y-139688496D01*
X174985076Y-139759880D01*
X175196500Y-139659361D01*
X175196500Y-138493500D01*
X175323500Y-138493500D01*
X175323500Y-139659361D01*
X175534924Y-139759880D01*
X175770252Y-139688496D01*
X176005968Y-139564769D01*
X176213017Y-139397434D01*
X176383442Y-139192921D01*
X176510694Y-138959089D01*
X176589882Y-138704924D01*
X176489517Y-138493500D01*
X175323500Y-138493500D01*
X175196500Y-138493500D01*
X175176500Y-138493500D01*
X175176500Y-138366500D01*
X175196500Y-138366500D01*
X175196500Y-137200639D01*
X175323500Y-137200639D01*
X175323500Y-138366500D01*
X176489517Y-138366500D01*
X176589882Y-138155076D01*
X176510694Y-137900911D01*
X176383442Y-137667079D01*
X176213017Y-137462566D01*
X176005968Y-137295231D01*
X175770252Y-137171504D01*
X175534924Y-137100120D01*
X175323500Y-137200639D01*
X175196500Y-137200639D01*
X174985076Y-137100120D01*
X174749748Y-137171504D01*
X174514032Y-137295231D01*
X174306983Y-137462566D01*
X174136558Y-137667079D01*
X174080457Y-137770167D01*
X174080457Y-137580000D01*
X174070649Y-137480415D01*
X174041601Y-137384657D01*
X173994429Y-137296405D01*
X173930948Y-137219052D01*
X173853595Y-137155571D01*
X173765343Y-137108399D01*
X173669585Y-137079351D01*
X173570000Y-137069543D01*
X173355000Y-137069543D01*
X173355000Y-133889180D01*
X173358071Y-133857999D01*
X173355000Y-133826818D01*
X173355000Y-133826808D01*
X173345812Y-133733518D01*
X173309502Y-133613820D01*
X173250538Y-133503507D01*
X173250537Y-133503505D01*
X173191068Y-133431043D01*
X173171185Y-133406815D01*
X173146956Y-133386931D01*
X167151000Y-127390976D01*
X167151000Y-127291570D01*
X167116106Y-127116146D01*
X167047659Y-126950901D01*
X166948289Y-126802184D01*
X166821816Y-126675711D01*
X166673099Y-126576341D01*
X166507854Y-126507894D01*
X166332430Y-126473000D01*
X166153570Y-126473000D01*
X165978146Y-126507894D01*
X165812901Y-126576341D01*
X165664184Y-126675711D01*
X165537711Y-126802184D01*
X165438341Y-126950901D01*
X165369894Y-127116146D01*
X165335000Y-127291570D01*
X155974999Y-127291570D01*
X155974999Y-126510999D01*
X156788578Y-126510999D01*
X156826001Y-126514685D01*
X156863424Y-126510999D01*
X156863427Y-126510999D01*
X156975379Y-126499973D01*
X157119016Y-126456401D01*
X157251393Y-126385644D01*
X157367423Y-126290421D01*
X157391285Y-126261345D01*
X157415544Y-126237086D01*
X157490854Y-126222106D01*
X157656099Y-126153659D01*
X157804816Y-126054289D01*
X157931289Y-125927816D01*
X158030659Y-125779099D01*
X158099106Y-125613854D01*
X158134000Y-125438430D01*
X158134000Y-125259570D01*
X158099106Y-125084146D01*
X158030659Y-124918901D01*
X157931289Y-124770184D01*
X157804816Y-124643711D01*
X157656099Y-124544341D01*
X157490854Y-124475894D01*
X157315430Y-124441000D01*
X157136570Y-124441000D01*
X156961146Y-124475894D01*
X156795901Y-124544341D01*
X156647184Y-124643711D01*
X156520711Y-124770184D01*
X156421341Y-124918901D01*
X156393134Y-124986999D01*
X155250424Y-124986999D01*
X155212999Y-124983313D01*
X155175573Y-124986999D01*
X152404941Y-124986999D01*
X152341098Y-124944340D01*
X152175853Y-124875893D01*
X152000429Y-124840999D01*
X151821569Y-124840999D01*
X151646145Y-124875893D01*
X151480900Y-124944340D01*
X151417057Y-124986999D01*
X137813423Y-124986999D01*
X137776000Y-124983313D01*
X137738577Y-124986999D01*
X137738575Y-124986999D01*
X137626623Y-124998025D01*
X137482986Y-125041597D01*
X137350609Y-125112354D01*
X137234579Y-125207577D01*
X137210722Y-125236647D01*
X132653370Y-129794000D01*
X129172627Y-129794000D01*
X129028114Y-129675402D01*
X128944028Y-129630457D01*
X129120000Y-129630457D01*
X129219585Y-129620649D01*
X129315343Y-129591601D01*
X129403595Y-129544429D01*
X129480948Y-129480948D01*
X129544429Y-129403595D01*
X129591601Y-129315343D01*
X129620649Y-129219585D01*
X129630457Y-129120000D01*
X129630457Y-127420000D01*
X129620649Y-127320415D01*
X129591601Y-127224657D01*
X129544429Y-127136405D01*
X129480948Y-127059052D01*
X129403595Y-126995571D01*
X129315343Y-126948399D01*
X129219585Y-126919351D01*
X129120000Y-126909543D01*
X127420000Y-126909543D01*
X127320415Y-126919351D01*
X127224657Y-126948399D01*
X127136405Y-126995571D01*
X127059052Y-127059052D01*
X126995571Y-127136405D01*
X126948399Y-127224657D01*
X126919351Y-127320415D01*
X126909543Y-127420000D01*
X126909543Y-129120000D01*
X126919351Y-129219585D01*
X126948399Y-129315343D01*
X126995571Y-129403595D01*
X127059052Y-129480948D01*
X127136405Y-129544429D01*
X127224657Y-129591601D01*
X127320415Y-129620649D01*
X127420000Y-129630457D01*
X127595972Y-129630457D01*
X127511886Y-129675402D01*
X127305103Y-129845103D01*
X127135402Y-130051886D01*
X127009302Y-130287802D01*
X126931650Y-130543786D01*
X126905430Y-130810000D01*
X126931650Y-131076214D01*
X127009302Y-131332198D01*
X127135402Y-131568114D01*
X127305103Y-131774897D01*
X127511886Y-131944598D01*
X127747802Y-132070698D01*
X127778467Y-132080000D01*
X127747802Y-132089302D01*
X127511886Y-132215402D01*
X127305103Y-132385103D01*
X127135402Y-132591886D01*
X127009302Y-132827802D01*
X126931650Y-133083786D01*
X126905430Y-133350000D01*
X126931650Y-133616214D01*
X127009302Y-133872198D01*
X127135402Y-134108114D01*
X127305103Y-134314897D01*
X127511886Y-134484598D01*
X127747802Y-134610698D01*
X128003786Y-134688350D01*
X128203294Y-134708000D01*
X128336706Y-134708000D01*
X128536214Y-134688350D01*
X128792198Y-134610698D01*
X129028114Y-134484598D01*
X129234897Y-134314897D01*
X129404598Y-134108114D01*
X129530698Y-133872198D01*
X129608350Y-133616214D01*
X129634570Y-133350000D01*
X129608350Y-133083786D01*
X129530698Y-132827802D01*
X129404598Y-132591886D01*
X129234897Y-132385103D01*
X129028114Y-132215402D01*
X128792198Y-132089302D01*
X128761533Y-132080000D01*
X128792198Y-132070698D01*
X129028114Y-131944598D01*
X129172627Y-131826000D01*
X132294160Y-131826000D01*
X135509000Y-135040841D01*
X135509001Y-140274498D01*
X135479657Y-140283399D01*
X135391405Y-140330571D01*
X135314052Y-140394052D01*
X135250571Y-140471405D01*
X135203399Y-140559657D01*
X135174351Y-140655415D01*
X135164543Y-140755000D01*
X135164543Y-142455000D01*
X135174351Y-142554585D01*
X135203399Y-142650343D01*
X135250571Y-142738595D01*
X135314052Y-142815948D01*
X135391405Y-142879429D01*
X135479657Y-142926601D01*
X135575415Y-142955649D01*
X135675000Y-142965457D01*
X135850972Y-142965457D01*
X135766886Y-143010402D01*
X135622373Y-143129000D01*
X128931627Y-143129000D01*
X128881725Y-143124085D01*
X128831823Y-143129000D01*
X128682554Y-143143702D01*
X128491038Y-143201798D01*
X128314535Y-143296140D01*
X128159829Y-143423104D01*
X128128017Y-143461867D01*
X126900342Y-144689543D01*
X126150000Y-144689543D01*
X126050415Y-144699351D01*
X125954657Y-144728399D01*
X125866405Y-144775571D01*
X125789052Y-144839052D01*
X125725571Y-144916405D01*
X125678399Y-145004657D01*
X125649351Y-145100415D01*
X125639543Y-145200000D01*
X124993000Y-145200000D01*
X124993000Y-137580000D01*
X125639543Y-137580000D01*
X125639543Y-139280000D01*
X125649351Y-139379585D01*
X125678399Y-139475343D01*
X125725571Y-139563595D01*
X125789052Y-139640948D01*
X125866405Y-139704429D01*
X125954657Y-139751601D01*
X126050415Y-139780649D01*
X126150000Y-139790457D01*
X127850000Y-139790457D01*
X127949585Y-139780649D01*
X128045343Y-139751601D01*
X128133595Y-139704429D01*
X128210948Y-139640948D01*
X128274429Y-139563595D01*
X128321601Y-139475343D01*
X128350649Y-139379585D01*
X128360457Y-139280000D01*
X128360457Y-139089833D01*
X128416558Y-139192921D01*
X128586983Y-139397434D01*
X128794032Y-139564769D01*
X129029748Y-139688496D01*
X129265076Y-139759880D01*
X129476500Y-139659361D01*
X129476500Y-138493500D01*
X129603500Y-138493500D01*
X129603500Y-139659361D01*
X129814924Y-139759880D01*
X130050252Y-139688496D01*
X130285968Y-139564769D01*
X130493017Y-139397434D01*
X130663442Y-139192921D01*
X130790694Y-138959089D01*
X130869882Y-138704924D01*
X130769517Y-138493500D01*
X129603500Y-138493500D01*
X129476500Y-138493500D01*
X129456500Y-138493500D01*
X129456500Y-138366500D01*
X129476500Y-138366500D01*
X129476500Y-137200639D01*
X129603500Y-137200639D01*
X129603500Y-138366500D01*
X130769517Y-138366500D01*
X130869882Y-138155076D01*
X130790694Y-137900911D01*
X130663442Y-137667079D01*
X130493017Y-137462566D01*
X130285968Y-137295231D01*
X130050252Y-137171504D01*
X129814924Y-137100120D01*
X129603500Y-137200639D01*
X129476500Y-137200639D01*
X129265076Y-137100120D01*
X129029748Y-137171504D01*
X128794032Y-137295231D01*
X128586983Y-137462566D01*
X128416558Y-137667079D01*
X128360457Y-137770167D01*
X128360457Y-137580000D01*
X128350649Y-137480415D01*
X128321601Y-137384657D01*
X128274429Y-137296405D01*
X128210948Y-137219052D01*
X128133595Y-137155571D01*
X128045343Y-137108399D01*
X127949585Y-137079351D01*
X127850000Y-137069543D01*
X126150000Y-137069543D01*
X126050415Y-137079351D01*
X125954657Y-137108399D01*
X125866405Y-137155571D01*
X125789052Y-137219052D01*
X125725571Y-137296405D01*
X125678399Y-137384657D01*
X125649351Y-137480415D01*
X125639543Y-137580000D01*
X124993000Y-137580000D01*
X124993000Y-125005570D01*
X134093000Y-125005570D01*
X134093000Y-125184430D01*
X134127894Y-125359854D01*
X134196341Y-125525099D01*
X134295711Y-125673816D01*
X134422184Y-125800289D01*
X134570901Y-125899659D01*
X134736146Y-125968106D01*
X134911570Y-126003000D01*
X135090430Y-126003000D01*
X135265854Y-125968106D01*
X135431099Y-125899659D01*
X135579816Y-125800289D01*
X135706289Y-125673816D01*
X135805659Y-125525099D01*
X135874106Y-125359854D01*
X135909000Y-125184430D01*
X135909000Y-125085024D01*
X137296025Y-123698000D01*
X170805976Y-123698000D01*
X171812000Y-124704025D01*
X171812000Y-124803430D01*
X171846894Y-124978854D01*
X171915341Y-125144099D01*
X172014711Y-125292816D01*
X172141184Y-125419289D01*
X172289901Y-125518659D01*
X172455146Y-125587106D01*
X172630570Y-125622000D01*
X172809430Y-125622000D01*
X172984854Y-125587106D01*
X173150099Y-125518659D01*
X173298816Y-125419289D01*
X173425289Y-125292816D01*
X173524659Y-125144099D01*
X173593106Y-124978854D01*
X173628000Y-124803430D01*
X173628000Y-124624570D01*
X173593106Y-124449146D01*
X173524659Y-124283901D01*
X173425289Y-124135184D01*
X173298816Y-124008711D01*
X173150099Y-123909341D01*
X172984854Y-123840894D01*
X172809430Y-123806000D01*
X172710025Y-123806000D01*
X171540074Y-122636050D01*
X171520185Y-122611815D01*
X171423494Y-122532463D01*
X171313180Y-122473498D01*
X171193482Y-122437188D01*
X171100192Y-122428000D01*
X171100181Y-122428000D01*
X171069000Y-122424929D01*
X171037819Y-122428000D01*
X137064181Y-122428000D01*
X137033000Y-122424929D01*
X137001819Y-122428000D01*
X137001808Y-122428000D01*
X136908518Y-122437188D01*
X136788820Y-122473498D01*
X136678506Y-122532462D01*
X136624524Y-122576765D01*
X136581815Y-122611815D01*
X136561930Y-122636045D01*
X135010976Y-124187000D01*
X134911570Y-124187000D01*
X134736146Y-124221894D01*
X134570901Y-124290341D01*
X134422184Y-124389711D01*
X134295711Y-124516184D01*
X134196341Y-124664901D01*
X134127894Y-124830146D01*
X134093000Y-125005570D01*
X124993000Y-125005570D01*
X124993000Y-119915721D01*
X137762000Y-119915721D01*
X137762000Y-120114279D01*
X137800737Y-120309023D01*
X137876722Y-120492467D01*
X137987035Y-120657562D01*
X138127438Y-120797965D01*
X138292533Y-120908278D01*
X138475977Y-120984263D01*
X138670721Y-121023000D01*
X138869279Y-121023000D01*
X139064023Y-120984263D01*
X139247467Y-120908278D01*
X139412562Y-120797965D01*
X139552965Y-120657562D01*
X139663278Y-120492467D01*
X139739263Y-120309023D01*
X139778000Y-120114279D01*
X139778000Y-119915721D01*
X142162000Y-119915721D01*
X142162000Y-120114279D01*
X142200737Y-120309023D01*
X142276722Y-120492467D01*
X142387035Y-120657562D01*
X142527438Y-120797965D01*
X142692533Y-120908278D01*
X142875977Y-120984263D01*
X143070721Y-121023000D01*
X143269279Y-121023000D01*
X143464023Y-120984263D01*
X143647467Y-120908278D01*
X143812562Y-120797965D01*
X143952965Y-120657562D01*
X144063278Y-120492467D01*
X144139263Y-120309023D01*
X144178000Y-120114279D01*
X144178000Y-119915721D01*
X144139263Y-119720977D01*
X144063278Y-119537533D01*
X143952965Y-119372438D01*
X143812562Y-119232035D01*
X143647467Y-119121722D01*
X143464023Y-119045737D01*
X143269279Y-119007000D01*
X143070721Y-119007000D01*
X142875977Y-119045737D01*
X142692533Y-119121722D01*
X142527438Y-119232035D01*
X142387035Y-119372438D01*
X142276722Y-119537533D01*
X142200737Y-119720977D01*
X142162000Y-119915721D01*
X139778000Y-119915721D01*
X139739263Y-119720977D01*
X139663278Y-119537533D01*
X139552965Y-119372438D01*
X139412562Y-119232035D01*
X139247467Y-119121722D01*
X139064023Y-119045737D01*
X138869279Y-119007000D01*
X138670721Y-119007000D01*
X138475977Y-119045737D01*
X138292533Y-119121722D01*
X138127438Y-119232035D01*
X137987035Y-119372438D01*
X137876722Y-119537533D01*
X137800737Y-119720977D01*
X137762000Y-119915721D01*
X124993000Y-119915721D01*
X124993000Y-117351098D01*
X153227000Y-117351098D01*
X153227000Y-117598902D01*
X153275344Y-117841945D01*
X153370175Y-118070886D01*
X153507848Y-118276928D01*
X153683072Y-118452152D01*
X153889114Y-118589825D01*
X154118055Y-118684656D01*
X154361098Y-118733000D01*
X154608902Y-118733000D01*
X154851945Y-118684656D01*
X155080886Y-118589825D01*
X155286928Y-118452152D01*
X155462152Y-118276928D01*
X155599825Y-118070886D01*
X155694656Y-117841945D01*
X155743000Y-117598902D01*
X155743000Y-117351098D01*
X158127000Y-117351098D01*
X158127000Y-117598902D01*
X158175344Y-117841945D01*
X158270175Y-118070886D01*
X158407848Y-118276928D01*
X158583072Y-118452152D01*
X158789114Y-118589825D01*
X159018055Y-118684656D01*
X159261098Y-118733000D01*
X159508902Y-118733000D01*
X159751945Y-118684656D01*
X159980886Y-118589825D01*
X160186928Y-118452152D01*
X160362152Y-118276928D01*
X160499825Y-118070886D01*
X160594656Y-117841945D01*
X160643000Y-117598902D01*
X160643000Y-117351098D01*
X160594656Y-117108055D01*
X160499825Y-116879114D01*
X160362152Y-116673072D01*
X160186928Y-116497848D01*
X159980886Y-116360175D01*
X159751945Y-116265344D01*
X159508902Y-116217000D01*
X159261098Y-116217000D01*
X159018055Y-116265344D01*
X158789114Y-116360175D01*
X158583072Y-116497848D01*
X158407848Y-116673072D01*
X158270175Y-116879114D01*
X158175344Y-117108055D01*
X158127000Y-117351098D01*
X155743000Y-117351098D01*
X155694656Y-117108055D01*
X155599825Y-116879114D01*
X155462152Y-116673072D01*
X155286928Y-116497848D01*
X155080886Y-116360175D01*
X154851945Y-116265344D01*
X154608902Y-116217000D01*
X154361098Y-116217000D01*
X154118055Y-116265344D01*
X153889114Y-116360175D01*
X153683072Y-116497848D01*
X153507848Y-116673072D01*
X153370175Y-116879114D01*
X153275344Y-117108055D01*
X153227000Y-117351098D01*
X124993000Y-117351098D01*
X124993000Y-115596066D01*
X125009543Y-115427347D01*
X125050973Y-115290126D01*
X125118266Y-115163565D01*
X125208859Y-115052487D01*
X125319305Y-114961117D01*
X125445391Y-114892944D01*
X125582321Y-114850556D01*
X125749359Y-114833000D01*
X176503934Y-114833000D01*
X176672653Y-114849543D01*
X176672653Y-114849543D01*
G37*
X176672653Y-114849543D02*
X176809874Y-114890973D01*
X176936435Y-114958266D01*
X177047513Y-115048859D01*
X177138883Y-115159305D01*
X177207056Y-115285391D01*
X177249444Y-115422321D01*
X177267000Y-115589359D01*
X177267001Y-147293924D01*
X177250457Y-147462653D01*
X177209027Y-147599874D01*
X177141733Y-147726436D01*
X177051141Y-147837513D01*
X176940695Y-147928883D01*
X176814608Y-147997057D01*
X176677679Y-148039444D01*
X176510641Y-148057000D01*
X125756066Y-148057000D01*
X125587347Y-148040457D01*
X125450126Y-147999027D01*
X125323564Y-147931733D01*
X125212487Y-147841141D01*
X125121117Y-147730695D01*
X125052943Y-147604608D01*
X125010556Y-147467679D01*
X124993000Y-147300641D01*
X124993000Y-145200000D01*
X125639543Y-145200000D01*
X125639543Y-146900000D01*
X125649351Y-146999585D01*
X125678399Y-147095343D01*
X125725571Y-147183595D01*
X125789052Y-147260948D01*
X125866405Y-147324429D01*
X125954657Y-147371601D01*
X126050415Y-147400649D01*
X126150000Y-147410457D01*
X127850000Y-147410457D01*
X127949585Y-147400649D01*
X128045343Y-147371601D01*
X128133595Y-147324429D01*
X128210948Y-147260948D01*
X128274429Y-147183595D01*
X128321601Y-147095343D01*
X128350649Y-146999585D01*
X128360457Y-146900000D01*
X128360457Y-146709833D01*
X128416558Y-146812921D01*
X128586983Y-147017434D01*
X128794032Y-147184769D01*
X129029748Y-147308496D01*
X129265076Y-147379880D01*
X129476500Y-147279361D01*
X129476500Y-146113500D01*
X129603500Y-146113500D01*
X129603500Y-147279361D01*
X129814924Y-147379880D01*
X130050252Y-147308496D01*
X130285968Y-147184769D01*
X130493017Y-147017434D01*
X130590877Y-146900000D01*
X145324542Y-146900000D01*
X145334350Y-146999585D01*
X145363398Y-147095344D01*
X145410570Y-147183595D01*
X145474052Y-147260948D01*
X145551405Y-147324430D01*
X145639656Y-147371602D01*
X145735415Y-147400650D01*
X145835000Y-147410458D01*
X146494500Y-147408000D01*
X146621500Y-147281000D01*
X146621500Y-146113500D01*
X145454000Y-146113500D01*
X145327000Y-146240500D01*
X145324542Y-146900000D01*
X130590877Y-146900000D01*
X130663442Y-146812921D01*
X130790694Y-146579089D01*
X130869882Y-146324924D01*
X130769517Y-146113500D01*
X129603500Y-146113500D01*
X129476500Y-146113500D01*
X129456500Y-146113500D01*
X129456500Y-145986500D01*
X129476500Y-145986500D01*
X129476500Y-145966500D01*
X129603500Y-145966500D01*
X129603500Y-145986500D01*
X130769517Y-145986500D01*
X130869882Y-145775076D01*
X130790694Y-145520911D01*
X130663442Y-145287079D01*
X130558378Y-145161000D01*
X135622373Y-145161000D01*
X135766886Y-145279598D01*
X136002802Y-145405698D01*
X136258786Y-145483350D01*
X136458294Y-145503000D01*
X136591706Y-145503000D01*
X136791214Y-145483350D01*
X137047198Y-145405698D01*
X137283114Y-145279598D01*
X137427627Y-145161000D01*
X145328383Y-145161000D01*
X145324542Y-145200000D01*
X145327000Y-145859500D01*
X145454000Y-145986500D01*
X146621500Y-145986500D01*
X146621500Y-145966500D01*
X146748500Y-145966500D01*
X146748500Y-145986500D01*
X146768500Y-145986500D01*
X146768500Y-146113500D01*
X146748500Y-146113500D01*
X146748500Y-147281000D01*
X146875500Y-147408000D01*
X147535000Y-147410458D01*
X147634585Y-147400650D01*
X147730344Y-147371602D01*
X147818595Y-147324430D01*
X147895948Y-147260948D01*
X147959430Y-147183595D01*
X148006602Y-147095344D01*
X148035650Y-146999585D01*
X148045458Y-146900000D01*
X148044798Y-146722794D01*
X148090402Y-146808114D01*
X148260103Y-147014897D01*
X148466886Y-147184598D01*
X148702802Y-147310698D01*
X148958786Y-147388350D01*
X149158294Y-147408000D01*
X149291706Y-147408000D01*
X149491214Y-147388350D01*
X149747198Y-147310698D01*
X149983114Y-147184598D01*
X150189897Y-147014897D01*
X150359598Y-146808114D01*
X150485698Y-146572198D01*
X150495000Y-146541533D01*
X150504302Y-146572198D01*
X150630402Y-146808114D01*
X150800103Y-147014897D01*
X151006886Y-147184598D01*
X151242802Y-147310698D01*
X151498786Y-147388350D01*
X151698294Y-147408000D01*
X151831706Y-147408000D01*
X152031214Y-147388350D01*
X152287198Y-147310698D01*
X152523114Y-147184598D01*
X152729897Y-147014897D01*
X152899598Y-146808114D01*
X153025698Y-146572198D01*
X153035000Y-146541533D01*
X153044302Y-146572198D01*
X153170402Y-146808114D01*
X153340103Y-147014897D01*
X153546886Y-147184598D01*
X153782802Y-147310698D01*
X154038786Y-147388350D01*
X154238294Y-147408000D01*
X154371706Y-147408000D01*
X154571214Y-147388350D01*
X154827198Y-147310698D01*
X155063114Y-147184598D01*
X155269897Y-147014897D01*
X155439598Y-146808114D01*
X155565698Y-146572198D01*
X155575000Y-146541533D01*
X155584302Y-146572198D01*
X155710402Y-146808114D01*
X155880103Y-147014897D01*
X156086886Y-147184598D01*
X156322802Y-147310698D01*
X156578786Y-147388350D01*
X156778294Y-147408000D01*
X156911706Y-147408000D01*
X157111214Y-147388350D01*
X157367198Y-147310698D01*
X157603114Y-147184598D01*
X157809897Y-147014897D01*
X157979598Y-146808114D01*
X158105698Y-146572198D01*
X158115000Y-146541533D01*
X158124302Y-146572198D01*
X158250402Y-146808114D01*
X158420103Y-147014897D01*
X158626886Y-147184598D01*
X158862802Y-147310698D01*
X159118786Y-147388350D01*
X159318294Y-147408000D01*
X159451706Y-147408000D01*
X159651214Y-147388350D01*
X159907198Y-147310698D01*
X160143114Y-147184598D01*
X160349897Y-147014897D01*
X160519598Y-146808114D01*
X160645698Y-146572198D01*
X160723350Y-146316214D01*
X160749570Y-146050000D01*
X160723350Y-145783786D01*
X160645698Y-145527802D01*
X160519598Y-145291886D01*
X160349897Y-145085103D01*
X160287627Y-145034000D01*
X168834765Y-145034000D01*
X170448506Y-146647742D01*
X170476341Y-146681659D01*
X170611709Y-146792753D01*
X170746204Y-146864642D01*
X170765635Y-146875028D01*
X170766149Y-146875303D01*
X170847566Y-146900000D01*
X170933725Y-146926136D01*
X170950325Y-146927771D01*
X171064333Y-146939000D01*
X171064340Y-146939000D01*
X171108000Y-146943300D01*
X171151660Y-146939000D01*
X171363384Y-146939000D01*
X171369351Y-146999585D01*
X171398399Y-147095343D01*
X171445571Y-147183595D01*
X171509052Y-147260948D01*
X171586405Y-147324429D01*
X171674657Y-147371601D01*
X171770415Y-147400649D01*
X171870000Y-147410457D01*
X173570000Y-147410457D01*
X173669585Y-147400649D01*
X173765343Y-147371601D01*
X173853595Y-147324429D01*
X173930948Y-147260948D01*
X173994429Y-147183595D01*
X174041601Y-147095343D01*
X174070649Y-146999585D01*
X174080457Y-146900000D01*
X174080457Y-146709833D01*
X174136558Y-146812921D01*
X174306983Y-147017434D01*
X174514032Y-147184769D01*
X174749748Y-147308496D01*
X174985076Y-147379880D01*
X175196500Y-147279361D01*
X175196500Y-146113500D01*
X175323500Y-146113500D01*
X175323500Y-147279361D01*
X175534924Y-147379880D01*
X175770252Y-147308496D01*
X176005968Y-147184769D01*
X176213017Y-147017434D01*
X176383442Y-146812921D01*
X176510694Y-146579089D01*
X176589882Y-146324924D01*
X176489517Y-146113500D01*
X175323500Y-146113500D01*
X175196500Y-146113500D01*
X175176500Y-146113500D01*
X175176500Y-145986500D01*
X175196500Y-145986500D01*
X175196500Y-144820639D01*
X175323500Y-144820639D01*
X175323500Y-145986500D01*
X176489517Y-145986500D01*
X176589882Y-145775076D01*
X176510694Y-145520911D01*
X176383442Y-145287079D01*
X176213017Y-145082566D01*
X176005968Y-144915231D01*
X175770252Y-144791504D01*
X175534924Y-144720120D01*
X175323500Y-144820639D01*
X175196500Y-144820639D01*
X174985076Y-144720120D01*
X174749748Y-144791504D01*
X174514032Y-144915231D01*
X174306983Y-145082566D01*
X174136558Y-145287079D01*
X174080457Y-145390167D01*
X174080457Y-145200000D01*
X174070649Y-145100415D01*
X174041601Y-145004657D01*
X173994429Y-144916405D01*
X173930948Y-144839052D01*
X173853595Y-144775571D01*
X173765343Y-144728399D01*
X173669585Y-144699351D01*
X173570000Y-144689543D01*
X171870000Y-144689543D01*
X171770415Y-144699351D01*
X171674657Y-144728399D01*
X171586405Y-144775571D01*
X171509052Y-144839052D01*
X171445571Y-144916405D01*
X171398399Y-145004657D01*
X171380127Y-145064891D01*
X169862499Y-143547264D01*
X169834659Y-143513341D01*
X169699291Y-143402247D01*
X169544851Y-143319697D01*
X169377274Y-143268864D01*
X169246667Y-143256000D01*
X169246660Y-143256000D01*
X169203000Y-143251700D01*
X169159340Y-143256000D01*
X150352092Y-143256000D01*
X150250687Y-143201798D01*
X150059171Y-143143702D01*
X149860000Y-143124085D01*
X149660829Y-143143702D01*
X149469313Y-143201798D01*
X149292810Y-143296140D01*
X149191041Y-143379661D01*
X149089271Y-143296140D01*
X148912768Y-143201798D01*
X148721252Y-143143702D01*
X148571983Y-143129000D01*
X148522081Y-143124085D01*
X148472179Y-143129000D01*
X137427627Y-143129000D01*
X137283114Y-143010402D01*
X137199028Y-142965457D01*
X137375000Y-142965457D01*
X137474585Y-142955649D01*
X137570343Y-142926601D01*
X137658595Y-142879429D01*
X137735948Y-142815948D01*
X137799429Y-142738595D01*
X137846601Y-142650343D01*
X137875649Y-142554585D01*
X137885457Y-142455000D01*
X137885457Y-140755000D01*
X137875649Y-140655415D01*
X137846601Y-140559657D01*
X137799429Y-140471405D01*
X137735948Y-140394052D01*
X137709772Y-140372570D01*
X155937000Y-140372570D01*
X155937000Y-140551430D01*
X155971894Y-140726854D01*
X156040341Y-140892099D01*
X156139711Y-141040816D01*
X156266184Y-141167289D01*
X156414901Y-141266659D01*
X156580146Y-141335106D01*
X156755570Y-141370000D01*
X156934430Y-141370000D01*
X157109854Y-141335106D01*
X157275099Y-141266659D01*
X157423816Y-141167289D01*
X157494105Y-141097000D01*
X161788976Y-141097000D01*
X162596930Y-141904955D01*
X162616815Y-141929185D01*
X162713506Y-142008537D01*
X162823820Y-142067502D01*
X162943518Y-142103812D01*
X163036808Y-142113000D01*
X163036819Y-142113000D01*
X163068000Y-142116071D01*
X163099181Y-142113000D01*
X166465819Y-142113000D01*
X166497000Y-142116071D01*
X166528181Y-142113000D01*
X166528192Y-142113000D01*
X166621482Y-142103812D01*
X166741180Y-142067502D01*
X166851494Y-142008537D01*
X166948185Y-141929185D01*
X166968074Y-141904950D01*
X167875198Y-140997827D01*
X168008786Y-141038350D01*
X168208294Y-141058000D01*
X168341706Y-141058000D01*
X168541214Y-141038350D01*
X168797198Y-140960698D01*
X169033114Y-140834598D01*
X169239897Y-140664897D01*
X169409598Y-140458114D01*
X169535698Y-140222198D01*
X169613350Y-139966214D01*
X169639570Y-139700000D01*
X169613350Y-139433786D01*
X169535698Y-139177802D01*
X169409598Y-138941886D01*
X169239897Y-138735103D01*
X169033114Y-138565402D01*
X168949028Y-138520457D01*
X169125000Y-138520457D01*
X169224585Y-138510649D01*
X169320343Y-138481601D01*
X169408595Y-138434429D01*
X169485948Y-138370948D01*
X169549429Y-138293595D01*
X169596601Y-138205343D01*
X169625649Y-138109585D01*
X169635457Y-138010000D01*
X169635457Y-136310000D01*
X169625649Y-136210415D01*
X169596601Y-136114657D01*
X169549429Y-136026405D01*
X169485948Y-135949052D01*
X169408595Y-135885571D01*
X169320343Y-135838399D01*
X169224585Y-135809351D01*
X169125000Y-135799543D01*
X167425000Y-135799543D01*
X167325415Y-135809351D01*
X167229657Y-135838399D01*
X167141405Y-135885571D01*
X167064052Y-135949052D01*
X167000571Y-136026405D01*
X166953399Y-136114657D01*
X166924351Y-136210415D01*
X166914543Y-136310000D01*
X166914543Y-138010000D01*
X166924351Y-138109585D01*
X166953399Y-138205343D01*
X167000571Y-138293595D01*
X167064052Y-138370948D01*
X167141405Y-138434429D01*
X167229657Y-138481601D01*
X167325415Y-138510649D01*
X167425000Y-138520457D01*
X167600972Y-138520457D01*
X167516886Y-138565402D01*
X167310103Y-138735103D01*
X167140402Y-138941886D01*
X167014302Y-139177802D01*
X166936650Y-139433786D01*
X166910430Y-139700000D01*
X166936650Y-139966214D01*
X166977173Y-140099802D01*
X166233976Y-140843000D01*
X164556982Y-140843000D01*
X164592921Y-140823442D01*
X164797434Y-140653017D01*
X164964769Y-140445968D01*
X165088496Y-140210252D01*
X165159880Y-139974924D01*
X165059361Y-139763500D01*
X163893500Y-139763500D01*
X163893500Y-139783500D01*
X163766500Y-139783500D01*
X163766500Y-139763500D01*
X162600639Y-139763500D01*
X162500120Y-139974924D01*
X162515594Y-140025935D01*
X162503185Y-140010815D01*
X162406494Y-139931463D01*
X162296180Y-139872498D01*
X162176482Y-139836188D01*
X162083192Y-139827000D01*
X162083181Y-139827000D01*
X162052000Y-139823929D01*
X162020819Y-139827000D01*
X157494105Y-139827000D01*
X157423816Y-139756711D01*
X157275099Y-139657341D01*
X157109854Y-139588894D01*
X156934430Y-139554000D01*
X156755570Y-139554000D01*
X156580146Y-139588894D01*
X156414901Y-139657341D01*
X156266184Y-139756711D01*
X156139711Y-139883184D01*
X156040341Y-140031901D01*
X155971894Y-140197146D01*
X155937000Y-140372570D01*
X137709772Y-140372570D01*
X137658595Y-140330571D01*
X137570343Y-140283399D01*
X137541000Y-140274498D01*
X137541000Y-136310000D01*
X162469543Y-136310000D01*
X162469543Y-138010000D01*
X162479351Y-138109585D01*
X162508399Y-138205343D01*
X162555571Y-138293595D01*
X162619052Y-138370948D01*
X162696405Y-138434429D01*
X162784657Y-138481601D01*
X162880415Y-138510649D01*
X162980000Y-138520457D01*
X163170167Y-138520457D01*
X163067079Y-138576558D01*
X162862566Y-138746983D01*
X162695231Y-138954032D01*
X162571504Y-139189748D01*
X162500120Y-139425076D01*
X162600639Y-139636500D01*
X163766500Y-139636500D01*
X163766500Y-139616500D01*
X163893500Y-139616500D01*
X163893500Y-139636500D01*
X165059361Y-139636500D01*
X165159880Y-139425076D01*
X165088496Y-139189748D01*
X164964769Y-138954032D01*
X164797434Y-138746983D01*
X164592921Y-138576558D01*
X164489833Y-138520457D01*
X164680000Y-138520457D01*
X164779585Y-138510649D01*
X164875343Y-138481601D01*
X164963595Y-138434429D01*
X165040948Y-138370948D01*
X165104429Y-138293595D01*
X165151601Y-138205343D01*
X165180649Y-138109585D01*
X165190457Y-138010000D01*
X165190457Y-136310000D01*
X165180649Y-136210415D01*
X165151601Y-136114657D01*
X165104429Y-136026405D01*
X165040948Y-135949052D01*
X164963595Y-135885571D01*
X164875343Y-135838399D01*
X164779585Y-135809351D01*
X164680000Y-135799543D01*
X162980000Y-135799543D01*
X162880415Y-135809351D01*
X162784657Y-135838399D01*
X162696405Y-135885571D01*
X162619052Y-135949052D01*
X162555571Y-136026405D01*
X162508399Y-136114657D01*
X162479351Y-136210415D01*
X162469543Y-136310000D01*
X137541000Y-136310000D01*
X137541000Y-134669902D01*
X137545915Y-134620000D01*
X137526298Y-134420829D01*
X137468202Y-134229313D01*
X137373860Y-134052810D01*
X137278706Y-133936865D01*
X137246896Y-133898104D01*
X137208133Y-133866292D01*
X133972235Y-130630395D01*
X138091632Y-126510999D01*
X151417057Y-126510999D01*
X151480900Y-126553658D01*
X151646145Y-126622105D01*
X151821569Y-126656999D01*
X152000429Y-126656999D01*
X152175853Y-126622105D01*
X152341098Y-126553658D01*
X152404941Y-126510999D01*
X154450999Y-126510999D01*
X154451000Y-133091057D01*
X154408340Y-133154902D01*
X154339893Y-133320147D01*
X154304999Y-133495571D01*
X154304999Y-133674431D01*
X154339893Y-133849855D01*
X154408340Y-134015100D01*
X154507710Y-134163817D01*
X154634183Y-134290290D01*
X154782900Y-134389660D01*
X154948145Y-134458107D01*
X155123569Y-134493001D01*
X155302429Y-134493001D01*
X155477853Y-134458107D01*
X155643098Y-134389660D01*
X155791815Y-134290290D01*
X155918288Y-134163817D01*
X156017658Y-134015100D01*
X156083001Y-133857349D01*
X156083001Y-134634056D01*
X156040341Y-134697901D01*
X155971894Y-134863146D01*
X155937000Y-135038570D01*
X155937000Y-135217430D01*
X155971894Y-135392854D01*
X156040341Y-135558099D01*
X156139711Y-135706816D01*
X156266184Y-135833289D01*
X156414901Y-135932659D01*
X156580146Y-136001106D01*
X156755570Y-136036000D01*
X156934430Y-136036000D01*
X157109854Y-136001106D01*
X157275099Y-135932659D01*
X157423816Y-135833289D01*
X157550289Y-135706816D01*
X157649659Y-135558099D01*
X157718106Y-135392854D01*
X157753000Y-135217430D01*
X157753000Y-135038570D01*
X157718106Y-134863146D01*
X157649659Y-134697901D01*
X157607000Y-134634058D01*
X157607000Y-129450570D01*
X158477000Y-129450570D01*
X158477000Y-129629430D01*
X158511894Y-129804854D01*
X158580341Y-129970099D01*
X158623000Y-130033942D01*
X158623000Y-130068260D01*
X158623001Y-134634056D01*
X158580341Y-134697901D01*
X158511894Y-134863146D01*
X158477000Y-135038570D01*
X158477000Y-135217430D01*
X158511894Y-135392854D01*
X158580341Y-135558099D01*
X158679711Y-135706816D01*
X158806184Y-135833289D01*
X158954901Y-135932659D01*
X159120146Y-136001106D01*
X159295570Y-136036000D01*
X159474430Y-136036000D01*
X159649854Y-136001106D01*
X159815099Y-135932659D01*
X159963816Y-135833289D01*
X160090289Y-135706816D01*
X160189659Y-135558099D01*
X160258106Y-135392854D01*
X160293000Y-135217430D01*
X160293000Y-135038570D01*
X160258106Y-134863146D01*
X160189659Y-134697901D01*
X160147000Y-134634058D01*
X160147000Y-133895570D01*
X160509000Y-133895570D01*
X160509000Y-134074430D01*
X160543894Y-134249854D01*
X160612341Y-134415099D01*
X160711711Y-134563816D01*
X160838184Y-134690289D01*
X160986901Y-134789659D01*
X161152146Y-134858106D01*
X161327570Y-134893000D01*
X161506430Y-134893000D01*
X161681854Y-134858106D01*
X161847099Y-134789659D01*
X161995816Y-134690289D01*
X162066105Y-134620000D01*
X164201976Y-134620000D01*
X165208000Y-135626025D01*
X165208000Y-135725430D01*
X165242894Y-135900854D01*
X165311341Y-136066099D01*
X165410711Y-136214816D01*
X165537184Y-136341289D01*
X165685901Y-136440659D01*
X165851146Y-136509106D01*
X166026570Y-136544000D01*
X166205430Y-136544000D01*
X166380854Y-136509106D01*
X166546099Y-136440659D01*
X166694816Y-136341289D01*
X166821289Y-136214816D01*
X166920659Y-136066099D01*
X166989106Y-135900854D01*
X167024000Y-135725430D01*
X167024000Y-135546570D01*
X166989106Y-135371146D01*
X166920659Y-135205901D01*
X166821289Y-135057184D01*
X166694816Y-134930711D01*
X166546099Y-134831341D01*
X166380854Y-134762894D01*
X166205430Y-134728000D01*
X166106025Y-134728000D01*
X164936074Y-133558050D01*
X164916185Y-133533815D01*
X164819494Y-133454463D01*
X164709180Y-133395498D01*
X164589482Y-133359188D01*
X164496192Y-133350000D01*
X164496181Y-133350000D01*
X164465000Y-133346929D01*
X164433819Y-133350000D01*
X162066105Y-133350000D01*
X161995816Y-133279711D01*
X161847099Y-133180341D01*
X161681854Y-133111894D01*
X161506430Y-133077000D01*
X161327570Y-133077000D01*
X161152146Y-133111894D01*
X160986901Y-133180341D01*
X160838184Y-133279711D01*
X160711711Y-133406184D01*
X160612341Y-133554901D01*
X160543894Y-133720146D01*
X160509000Y-133895570D01*
X160147000Y-133895570D01*
X160147000Y-130364997D01*
X160263146Y-130413106D01*
X160438570Y-130448000D01*
X160617430Y-130448000D01*
X160792854Y-130413106D01*
X160958099Y-130344659D01*
X161106816Y-130245289D01*
X161177105Y-130175000D01*
X163818473Y-130175000D01*
X163845894Y-130312854D01*
X163914341Y-130478099D01*
X164013711Y-130626816D01*
X164140184Y-130753289D01*
X164288901Y-130852659D01*
X164454146Y-130921106D01*
X164629570Y-130956000D01*
X164808430Y-130956000D01*
X164983854Y-130921106D01*
X165149099Y-130852659D01*
X165297816Y-130753289D01*
X165424289Y-130626816D01*
X165523659Y-130478099D01*
X165592106Y-130312854D01*
X165627000Y-130137430D01*
X165627000Y-129958570D01*
X165592106Y-129783146D01*
X165523659Y-129617901D01*
X165424289Y-129469184D01*
X165297816Y-129342711D01*
X165149099Y-129243341D01*
X164983854Y-129174894D01*
X164808430Y-129140000D01*
X164709024Y-129140000D01*
X164682074Y-129113050D01*
X164662185Y-129088815D01*
X164565494Y-129009463D01*
X164455180Y-128950498D01*
X164335482Y-128914188D01*
X164242192Y-128905000D01*
X164242181Y-128905000D01*
X164211000Y-128901929D01*
X164179819Y-128905000D01*
X161177105Y-128905000D01*
X161106816Y-128834711D01*
X160958099Y-128735341D01*
X160792854Y-128666894D01*
X160617430Y-128632000D01*
X160438570Y-128632000D01*
X160263146Y-128666894D01*
X160097901Y-128735341D01*
X159956500Y-128829823D01*
X159815099Y-128735341D01*
X159649854Y-128666894D01*
X159474430Y-128632000D01*
X159295570Y-128632000D01*
X159120146Y-128666894D01*
X158954901Y-128735341D01*
X158806184Y-128834711D01*
X158679711Y-128961184D01*
X158580341Y-129109901D01*
X158511894Y-129275146D01*
X158477000Y-129450570D01*
X157607000Y-129450570D01*
X157607000Y-129144942D01*
X157649659Y-129081099D01*
X157718106Y-128915854D01*
X157753000Y-128740430D01*
X157753000Y-128561570D01*
X157718106Y-128386146D01*
X157649659Y-128220901D01*
X157550289Y-128072184D01*
X157423816Y-127945711D01*
X157275099Y-127846341D01*
X157109854Y-127777894D01*
X156934430Y-127743000D01*
X156755570Y-127743000D01*
X156580146Y-127777894D01*
X156414901Y-127846341D01*
X156266184Y-127945711D01*
X156139711Y-128072184D01*
X156040341Y-128220901D01*
X155974999Y-128378650D01*
X155974999Y-127291570D01*
X165335000Y-127291570D01*
X165335000Y-127470430D01*
X165369894Y-127645854D01*
X165438341Y-127811099D01*
X165537711Y-127959816D01*
X165664184Y-128086289D01*
X165812901Y-128185659D01*
X165978146Y-128254106D01*
X166153570Y-128289000D01*
X166252976Y-128289000D01*
X172085000Y-134121025D01*
X172085001Y-137069543D01*
X171870000Y-137069543D01*
X171770415Y-137079351D01*
X171674657Y-137108399D01*
X171586405Y-137155571D01*
X171509052Y-137219052D01*
X171445571Y-137296405D01*
X171398399Y-137384657D01*
X171369351Y-137480415D01*
X171359543Y-137580000D01*
X171359543Y-139280000D01*
X171369351Y-139379585D01*
X171398399Y-139475343D01*
X171445571Y-139563595D01*
X171509052Y-139640948D01*
X171586405Y-139704429D01*
X171674657Y-139751601D01*
X171770415Y-139780649D01*
X171870000Y-139790457D01*
X173570000Y-139790457D01*
X173669585Y-139780649D01*
X173765343Y-139751601D01*
X173853595Y-139704429D01*
X173930948Y-139640948D01*
X173994429Y-139563595D01*
X174041601Y-139475343D01*
X174070649Y-139379585D01*
X174080457Y-139280000D01*
X174080457Y-139089833D01*
X174136558Y-139192921D01*
X174306983Y-139397434D01*
X174514032Y-139564769D01*
X174749748Y-139688496D01*
X174985076Y-139759880D01*
X175196500Y-139659361D01*
X175196500Y-138493500D01*
X175323500Y-138493500D01*
X175323500Y-139659361D01*
X175534924Y-139759880D01*
X175770252Y-139688496D01*
X176005968Y-139564769D01*
X176213017Y-139397434D01*
X176383442Y-139192921D01*
X176510694Y-138959089D01*
X176589882Y-138704924D01*
X176489517Y-138493500D01*
X175323500Y-138493500D01*
X175196500Y-138493500D01*
X175176500Y-138493500D01*
X175176500Y-138366500D01*
X175196500Y-138366500D01*
X175196500Y-137200639D01*
X175323500Y-137200639D01*
X175323500Y-138366500D01*
X176489517Y-138366500D01*
X176589882Y-138155076D01*
X176510694Y-137900911D01*
X176383442Y-137667079D01*
X176213017Y-137462566D01*
X176005968Y-137295231D01*
X175770252Y-137171504D01*
X175534924Y-137100120D01*
X175323500Y-137200639D01*
X175196500Y-137200639D01*
X174985076Y-137100120D01*
X174749748Y-137171504D01*
X174514032Y-137295231D01*
X174306983Y-137462566D01*
X174136558Y-137667079D01*
X174080457Y-137770167D01*
X174080457Y-137580000D01*
X174070649Y-137480415D01*
X174041601Y-137384657D01*
X173994429Y-137296405D01*
X173930948Y-137219052D01*
X173853595Y-137155571D01*
X173765343Y-137108399D01*
X173669585Y-137079351D01*
X173570000Y-137069543D01*
X173355000Y-137069543D01*
X173355000Y-133889180D01*
X173358071Y-133857999D01*
X173355000Y-133826818D01*
X173355000Y-133826808D01*
X173345812Y-133733518D01*
X173309502Y-133613820D01*
X173250538Y-133503507D01*
X173250537Y-133503505D01*
X173191068Y-133431043D01*
X173171185Y-133406815D01*
X173146956Y-133386931D01*
X167151000Y-127390976D01*
X167151000Y-127291570D01*
X167116106Y-127116146D01*
X167047659Y-126950901D01*
X166948289Y-126802184D01*
X166821816Y-126675711D01*
X166673099Y-126576341D01*
X166507854Y-126507894D01*
X166332430Y-126473000D01*
X166153570Y-126473000D01*
X165978146Y-126507894D01*
X165812901Y-126576341D01*
X165664184Y-126675711D01*
X165537711Y-126802184D01*
X165438341Y-126950901D01*
X165369894Y-127116146D01*
X165335000Y-127291570D01*
X155974999Y-127291570D01*
X155974999Y-126510999D01*
X156788578Y-126510999D01*
X156826001Y-126514685D01*
X156863424Y-126510999D01*
X156863427Y-126510999D01*
X156975379Y-126499973D01*
X157119016Y-126456401D01*
X157251393Y-126385644D01*
X157367423Y-126290421D01*
X157391285Y-126261345D01*
X157415544Y-126237086D01*
X157490854Y-126222106D01*
X157656099Y-126153659D01*
X157804816Y-126054289D01*
X157931289Y-125927816D01*
X158030659Y-125779099D01*
X158099106Y-125613854D01*
X158134000Y-125438430D01*
X158134000Y-125259570D01*
X158099106Y-125084146D01*
X158030659Y-124918901D01*
X157931289Y-124770184D01*
X157804816Y-124643711D01*
X157656099Y-124544341D01*
X157490854Y-124475894D01*
X157315430Y-124441000D01*
X157136570Y-124441000D01*
X156961146Y-124475894D01*
X156795901Y-124544341D01*
X156647184Y-124643711D01*
X156520711Y-124770184D01*
X156421341Y-124918901D01*
X156393134Y-124986999D01*
X155250424Y-124986999D01*
X155212999Y-124983313D01*
X155175573Y-124986999D01*
X152404941Y-124986999D01*
X152341098Y-124944340D01*
X152175853Y-124875893D01*
X152000429Y-124840999D01*
X151821569Y-124840999D01*
X151646145Y-124875893D01*
X151480900Y-124944340D01*
X151417057Y-124986999D01*
X137813423Y-124986999D01*
X137776000Y-124983313D01*
X137738577Y-124986999D01*
X137738575Y-124986999D01*
X137626623Y-124998025D01*
X137482986Y-125041597D01*
X137350609Y-125112354D01*
X137234579Y-125207577D01*
X137210722Y-125236647D01*
X132653370Y-129794000D01*
X129172627Y-129794000D01*
X129028114Y-129675402D01*
X128944028Y-129630457D01*
X129120000Y-129630457D01*
X129219585Y-129620649D01*
X129315343Y-129591601D01*
X129403595Y-129544429D01*
X129480948Y-129480948D01*
X129544429Y-129403595D01*
X129591601Y-129315343D01*
X129620649Y-129219585D01*
X129630457Y-129120000D01*
X129630457Y-127420000D01*
X129620649Y-127320415D01*
X129591601Y-127224657D01*
X129544429Y-127136405D01*
X129480948Y-127059052D01*
X129403595Y-126995571D01*
X129315343Y-126948399D01*
X129219585Y-126919351D01*
X129120000Y-126909543D01*
X127420000Y-126909543D01*
X127320415Y-126919351D01*
X127224657Y-126948399D01*
X127136405Y-126995571D01*
X127059052Y-127059052D01*
X126995571Y-127136405D01*
X126948399Y-127224657D01*
X126919351Y-127320415D01*
X126909543Y-127420000D01*
X126909543Y-129120000D01*
X126919351Y-129219585D01*
X126948399Y-129315343D01*
X126995571Y-129403595D01*
X127059052Y-129480948D01*
X127136405Y-129544429D01*
X127224657Y-129591601D01*
X127320415Y-129620649D01*
X127420000Y-129630457D01*
X127595972Y-129630457D01*
X127511886Y-129675402D01*
X127305103Y-129845103D01*
X127135402Y-130051886D01*
X127009302Y-130287802D01*
X126931650Y-130543786D01*
X126905430Y-130810000D01*
X126931650Y-131076214D01*
X127009302Y-131332198D01*
X127135402Y-131568114D01*
X127305103Y-131774897D01*
X127511886Y-131944598D01*
X127747802Y-132070698D01*
X127778467Y-132080000D01*
X127747802Y-132089302D01*
X127511886Y-132215402D01*
X127305103Y-132385103D01*
X127135402Y-132591886D01*
X127009302Y-132827802D01*
X126931650Y-133083786D01*
X126905430Y-133350000D01*
X126931650Y-133616214D01*
X127009302Y-133872198D01*
X127135402Y-134108114D01*
X127305103Y-134314897D01*
X127511886Y-134484598D01*
X127747802Y-134610698D01*
X128003786Y-134688350D01*
X128203294Y-134708000D01*
X128336706Y-134708000D01*
X128536214Y-134688350D01*
X128792198Y-134610698D01*
X129028114Y-134484598D01*
X129234897Y-134314897D01*
X129404598Y-134108114D01*
X129530698Y-133872198D01*
X129608350Y-133616214D01*
X129634570Y-133350000D01*
X129608350Y-133083786D01*
X129530698Y-132827802D01*
X129404598Y-132591886D01*
X129234897Y-132385103D01*
X129028114Y-132215402D01*
X128792198Y-132089302D01*
X128761533Y-132080000D01*
X128792198Y-132070698D01*
X129028114Y-131944598D01*
X129172627Y-131826000D01*
X132294160Y-131826000D01*
X135509000Y-135040841D01*
X135509001Y-140274498D01*
X135479657Y-140283399D01*
X135391405Y-140330571D01*
X135314052Y-140394052D01*
X135250571Y-140471405D01*
X135203399Y-140559657D01*
X135174351Y-140655415D01*
X135164543Y-140755000D01*
X135164543Y-142455000D01*
X135174351Y-142554585D01*
X135203399Y-142650343D01*
X135250571Y-142738595D01*
X135314052Y-142815948D01*
X135391405Y-142879429D01*
X135479657Y-142926601D01*
X135575415Y-142955649D01*
X135675000Y-142965457D01*
X135850972Y-142965457D01*
X135766886Y-143010402D01*
X135622373Y-143129000D01*
X128931627Y-143129000D01*
X128881725Y-143124085D01*
X128831823Y-143129000D01*
X128682554Y-143143702D01*
X128491038Y-143201798D01*
X128314535Y-143296140D01*
X128159829Y-143423104D01*
X128128017Y-143461867D01*
X126900342Y-144689543D01*
X126150000Y-144689543D01*
X126050415Y-144699351D01*
X125954657Y-144728399D01*
X125866405Y-144775571D01*
X125789052Y-144839052D01*
X125725571Y-144916405D01*
X125678399Y-145004657D01*
X125649351Y-145100415D01*
X125639543Y-145200000D01*
X124993000Y-145200000D01*
X124993000Y-137580000D01*
X125639543Y-137580000D01*
X125639543Y-139280000D01*
X125649351Y-139379585D01*
X125678399Y-139475343D01*
X125725571Y-139563595D01*
X125789052Y-139640948D01*
X125866405Y-139704429D01*
X125954657Y-139751601D01*
X126050415Y-139780649D01*
X126150000Y-139790457D01*
X127850000Y-139790457D01*
X127949585Y-139780649D01*
X128045343Y-139751601D01*
X128133595Y-139704429D01*
X128210948Y-139640948D01*
X128274429Y-139563595D01*
X128321601Y-139475343D01*
X128350649Y-139379585D01*
X128360457Y-139280000D01*
X128360457Y-139089833D01*
X128416558Y-139192921D01*
X128586983Y-139397434D01*
X128794032Y-139564769D01*
X129029748Y-139688496D01*
X129265076Y-139759880D01*
X129476500Y-139659361D01*
X129476500Y-138493500D01*
X129603500Y-138493500D01*
X129603500Y-139659361D01*
X129814924Y-139759880D01*
X130050252Y-139688496D01*
X130285968Y-139564769D01*
X130493017Y-139397434D01*
X130663442Y-139192921D01*
X130790694Y-138959089D01*
X130869882Y-138704924D01*
X130769517Y-138493500D01*
X129603500Y-138493500D01*
X129476500Y-138493500D01*
X129456500Y-138493500D01*
X129456500Y-138366500D01*
X129476500Y-138366500D01*
X129476500Y-137200639D01*
X129603500Y-137200639D01*
X129603500Y-138366500D01*
X130769517Y-138366500D01*
X130869882Y-138155076D01*
X130790694Y-137900911D01*
X130663442Y-137667079D01*
X130493017Y-137462566D01*
X130285968Y-137295231D01*
X130050252Y-137171504D01*
X129814924Y-137100120D01*
X129603500Y-137200639D01*
X129476500Y-137200639D01*
X129265076Y-137100120D01*
X129029748Y-137171504D01*
X128794032Y-137295231D01*
X128586983Y-137462566D01*
X128416558Y-137667079D01*
X128360457Y-137770167D01*
X128360457Y-137580000D01*
X128350649Y-137480415D01*
X128321601Y-137384657D01*
X128274429Y-137296405D01*
X128210948Y-137219052D01*
X128133595Y-137155571D01*
X128045343Y-137108399D01*
X127949585Y-137079351D01*
X127850000Y-137069543D01*
X126150000Y-137069543D01*
X126050415Y-137079351D01*
X125954657Y-137108399D01*
X125866405Y-137155571D01*
X125789052Y-137219052D01*
X125725571Y-137296405D01*
X125678399Y-137384657D01*
X125649351Y-137480415D01*
X125639543Y-137580000D01*
X124993000Y-137580000D01*
X124993000Y-125005570D01*
X134093000Y-125005570D01*
X134093000Y-125184430D01*
X134127894Y-125359854D01*
X134196341Y-125525099D01*
X134295711Y-125673816D01*
X134422184Y-125800289D01*
X134570901Y-125899659D01*
X134736146Y-125968106D01*
X134911570Y-126003000D01*
X135090430Y-126003000D01*
X135265854Y-125968106D01*
X135431099Y-125899659D01*
X135579816Y-125800289D01*
X135706289Y-125673816D01*
X135805659Y-125525099D01*
X135874106Y-125359854D01*
X135909000Y-125184430D01*
X135909000Y-125085024D01*
X137296025Y-123698000D01*
X170805976Y-123698000D01*
X171812000Y-124704025D01*
X171812000Y-124803430D01*
X171846894Y-124978854D01*
X171915341Y-125144099D01*
X172014711Y-125292816D01*
X172141184Y-125419289D01*
X172289901Y-125518659D01*
X172455146Y-125587106D01*
X172630570Y-125622000D01*
X172809430Y-125622000D01*
X172984854Y-125587106D01*
X173150099Y-125518659D01*
X173298816Y-125419289D01*
X173425289Y-125292816D01*
X173524659Y-125144099D01*
X173593106Y-124978854D01*
X173628000Y-124803430D01*
X173628000Y-124624570D01*
X173593106Y-124449146D01*
X173524659Y-124283901D01*
X173425289Y-124135184D01*
X173298816Y-124008711D01*
X173150099Y-123909341D01*
X172984854Y-123840894D01*
X172809430Y-123806000D01*
X172710025Y-123806000D01*
X171540074Y-122636050D01*
X171520185Y-122611815D01*
X171423494Y-122532463D01*
X171313180Y-122473498D01*
X171193482Y-122437188D01*
X171100192Y-122428000D01*
X171100181Y-122428000D01*
X171069000Y-122424929D01*
X171037819Y-122428000D01*
X137064181Y-122428000D01*
X137033000Y-122424929D01*
X137001819Y-122428000D01*
X137001808Y-122428000D01*
X136908518Y-122437188D01*
X136788820Y-122473498D01*
X136678506Y-122532462D01*
X136624524Y-122576765D01*
X136581815Y-122611815D01*
X136561930Y-122636045D01*
X135010976Y-124187000D01*
X134911570Y-124187000D01*
X134736146Y-124221894D01*
X134570901Y-124290341D01*
X134422184Y-124389711D01*
X134295711Y-124516184D01*
X134196341Y-124664901D01*
X134127894Y-124830146D01*
X134093000Y-125005570D01*
X124993000Y-125005570D01*
X124993000Y-119915721D01*
X137762000Y-119915721D01*
X137762000Y-120114279D01*
X137800737Y-120309023D01*
X137876722Y-120492467D01*
X137987035Y-120657562D01*
X138127438Y-120797965D01*
X138292533Y-120908278D01*
X138475977Y-120984263D01*
X138670721Y-121023000D01*
X138869279Y-121023000D01*
X139064023Y-120984263D01*
X139247467Y-120908278D01*
X139412562Y-120797965D01*
X139552965Y-120657562D01*
X139663278Y-120492467D01*
X139739263Y-120309023D01*
X139778000Y-120114279D01*
X139778000Y-119915721D01*
X142162000Y-119915721D01*
X142162000Y-120114279D01*
X142200737Y-120309023D01*
X142276722Y-120492467D01*
X142387035Y-120657562D01*
X142527438Y-120797965D01*
X142692533Y-120908278D01*
X142875977Y-120984263D01*
X143070721Y-121023000D01*
X143269279Y-121023000D01*
X143464023Y-120984263D01*
X143647467Y-120908278D01*
X143812562Y-120797965D01*
X143952965Y-120657562D01*
X144063278Y-120492467D01*
X144139263Y-120309023D01*
X144178000Y-120114279D01*
X144178000Y-119915721D01*
X144139263Y-119720977D01*
X144063278Y-119537533D01*
X143952965Y-119372438D01*
X143812562Y-119232035D01*
X143647467Y-119121722D01*
X143464023Y-119045737D01*
X143269279Y-119007000D01*
X143070721Y-119007000D01*
X142875977Y-119045737D01*
X142692533Y-119121722D01*
X142527438Y-119232035D01*
X142387035Y-119372438D01*
X142276722Y-119537533D01*
X142200737Y-119720977D01*
X142162000Y-119915721D01*
X139778000Y-119915721D01*
X139739263Y-119720977D01*
X139663278Y-119537533D01*
X139552965Y-119372438D01*
X139412562Y-119232035D01*
X139247467Y-119121722D01*
X139064023Y-119045737D01*
X138869279Y-119007000D01*
X138670721Y-119007000D01*
X138475977Y-119045737D01*
X138292533Y-119121722D01*
X138127438Y-119232035D01*
X137987035Y-119372438D01*
X137876722Y-119537533D01*
X137800737Y-119720977D01*
X137762000Y-119915721D01*
X124993000Y-119915721D01*
X124993000Y-117351098D01*
X153227000Y-117351098D01*
X153227000Y-117598902D01*
X153275344Y-117841945D01*
X153370175Y-118070886D01*
X153507848Y-118276928D01*
X153683072Y-118452152D01*
X153889114Y-118589825D01*
X154118055Y-118684656D01*
X154361098Y-118733000D01*
X154608902Y-118733000D01*
X154851945Y-118684656D01*
X155080886Y-118589825D01*
X155286928Y-118452152D01*
X155462152Y-118276928D01*
X155599825Y-118070886D01*
X155694656Y-117841945D01*
X155743000Y-117598902D01*
X155743000Y-117351098D01*
X158127000Y-117351098D01*
X158127000Y-117598902D01*
X158175344Y-117841945D01*
X158270175Y-118070886D01*
X158407848Y-118276928D01*
X158583072Y-118452152D01*
X158789114Y-118589825D01*
X159018055Y-118684656D01*
X159261098Y-118733000D01*
X159508902Y-118733000D01*
X159751945Y-118684656D01*
X159980886Y-118589825D01*
X160186928Y-118452152D01*
X160362152Y-118276928D01*
X160499825Y-118070886D01*
X160594656Y-117841945D01*
X160643000Y-117598902D01*
X160643000Y-117351098D01*
X160594656Y-117108055D01*
X160499825Y-116879114D01*
X160362152Y-116673072D01*
X160186928Y-116497848D01*
X159980886Y-116360175D01*
X159751945Y-116265344D01*
X159508902Y-116217000D01*
X159261098Y-116217000D01*
X159018055Y-116265344D01*
X158789114Y-116360175D01*
X158583072Y-116497848D01*
X158407848Y-116673072D01*
X158270175Y-116879114D01*
X158175344Y-117108055D01*
X158127000Y-117351098D01*
X155743000Y-117351098D01*
X155694656Y-117108055D01*
X155599825Y-116879114D01*
X155462152Y-116673072D01*
X155286928Y-116497848D01*
X155080886Y-116360175D01*
X154851945Y-116265344D01*
X154608902Y-116217000D01*
X154361098Y-116217000D01*
X154118055Y-116265344D01*
X153889114Y-116360175D01*
X153683072Y-116497848D01*
X153507848Y-116673072D01*
X153370175Y-116879114D01*
X153275344Y-117108055D01*
X153227000Y-117351098D01*
X124993000Y-117351098D01*
X124993000Y-115596066D01*
X125009543Y-115427347D01*
X125050973Y-115290126D01*
X125118266Y-115163565D01*
X125208859Y-115052487D01*
X125319305Y-114961117D01*
X125445391Y-114892944D01*
X125582321Y-114850556D01*
X125749359Y-114833000D01*
X176503934Y-114833000D01*
X176672653Y-114849543D01*
M02*
