%FSLAX45Y45*%
G04 Gerber Fmt 4.5, Leading zero omitted, Abs format (unit mm)*
G04 Created by KiCad (PCBNEW (5.1.2)-2) date 2019-08-11 21:37:22*
%MOMM*%
%LPD*%
G04 APERTURE LIST*
%ADD10C,0.050000*%
%ADD11C,0.200000*%
%ADD12C,0.300000*%
G04 APERTURE END LIST*
D10*
X17780000Y-14732000D02*
G75*
G02X17653000Y-14859000I-127000J0D01*
G01*
X17653000Y-11430000D02*
G75*
G02X17780000Y-11557000I0J-127000D01*
G01*
X12446000Y-11557000D02*
G75*
G02X12573000Y-11430000I127000J0D01*
G01*
X12573000Y-14859000D02*
G75*
G02X12446000Y-14732000I0J127000D01*
G01*
X17653000Y-14859000D02*
X12573000Y-14859000D01*
X17780000Y-11557000D02*
X17780000Y-14732000D01*
X12573000Y-11430000D02*
X17653000Y-11430000D01*
X12446000Y-14732000D02*
X12446000Y-11557000D01*
D11*
X12553000Y-12553000D02*
X12593000Y-12593000D01*
X12593000Y-12553000D02*
X12553000Y-12593000D01*
X12553000Y-13061000D02*
X12593000Y-13101000D01*
X12593000Y-13061000D02*
X12553000Y-13101000D01*
X12553000Y-13569000D02*
X12593000Y-13609000D01*
X12593000Y-13569000D02*
X12553000Y-13609000D01*
X13238800Y-12146600D02*
X13278800Y-12186600D01*
X13278800Y-12146600D02*
X13238800Y-12186600D01*
X13315000Y-14712000D02*
X13355000Y-14752000D01*
X13355000Y-14712000D02*
X13315000Y-14752000D01*
X13480100Y-12489500D02*
X13520100Y-12529500D01*
X13520100Y-12489500D02*
X13480100Y-12529500D01*
X13569000Y-14712000D02*
X13609000Y-14752000D01*
X13609000Y-14712000D02*
X13569000Y-14752000D01*
X13645200Y-11968800D02*
X13685200Y-12008800D01*
X13685200Y-11968800D02*
X13645200Y-12008800D01*
X13746800Y-13035600D02*
X13786800Y-13075600D01*
X13786800Y-13035600D02*
X13746800Y-13075600D01*
X13797600Y-12426000D02*
X13837600Y-12466000D01*
X13837600Y-12426000D02*
X13797600Y-12466000D01*
X13823000Y-14712000D02*
X13863000Y-14752000D01*
X13863000Y-14712000D02*
X13823000Y-14752000D01*
X13950000Y-11537000D02*
X13990000Y-11577000D01*
X13990000Y-11537000D02*
X13950000Y-11577000D01*
X14077000Y-14712000D02*
X14117000Y-14752000D01*
X14117000Y-14712000D02*
X14077000Y-14752000D01*
X14204000Y-11537000D02*
X14244000Y-11577000D01*
X14244000Y-11537000D02*
X14204000Y-11577000D01*
X14331000Y-14712000D02*
X14371000Y-14752000D01*
X14371000Y-14712000D02*
X14331000Y-14752000D01*
X14407200Y-12718100D02*
X14447200Y-12758100D01*
X14447200Y-12718100D02*
X14407200Y-12758100D01*
X14508800Y-13086400D02*
X14548800Y-13126400D01*
X14548800Y-13086400D02*
X14508800Y-13126400D01*
X14712000Y-11918000D02*
X14752000Y-11958000D01*
X14752000Y-11918000D02*
X14712000Y-11958000D01*
X14762800Y-12426000D02*
X14802800Y-12466000D01*
X14802800Y-12426000D02*
X14762800Y-12466000D01*
X15093000Y-11918000D02*
X15133000Y-11958000D01*
X15133000Y-11918000D02*
X15093000Y-11958000D01*
X15171100Y-12554900D02*
X15211100Y-12594900D01*
X15211100Y-12554900D02*
X15171100Y-12594900D01*
X15283500Y-13391200D02*
X15323500Y-13431200D01*
X15323500Y-13391200D02*
X15283500Y-13431200D01*
X15347000Y-11918000D02*
X15387000Y-11958000D01*
X15387000Y-11918000D02*
X15347000Y-11958000D01*
X15501300Y-13338500D02*
X15541300Y-13378500D01*
X15541300Y-13338500D02*
X15501300Y-13378500D01*
X15664500Y-12845100D02*
X15704500Y-12885100D01*
X15704500Y-12845100D02*
X15664500Y-12885100D01*
X15664500Y-13492800D02*
X15704500Y-13532800D01*
X15704500Y-13492800D02*
X15664500Y-13532800D01*
X15664500Y-14026200D02*
X15704500Y-14066200D01*
X15704500Y-14026200D02*
X15664500Y-14066200D01*
X15702600Y-12514900D02*
X15742600Y-12554900D01*
X15742600Y-12514900D02*
X15702600Y-12554900D01*
X15778800Y-12629200D02*
X15818800Y-12669200D01*
X15818800Y-12629200D02*
X15778800Y-12669200D01*
X15778800Y-13340400D02*
X15818800Y-13380400D01*
X15818800Y-13340400D02*
X15778800Y-13380400D01*
X15855000Y-11918000D02*
X15895000Y-11958000D01*
X15895000Y-11918000D02*
X15855000Y-11958000D01*
X15918500Y-12934000D02*
X15958500Y-12974000D01*
X15958500Y-12934000D02*
X15918500Y-12974000D01*
X15918500Y-13492800D02*
X15958500Y-13532800D01*
X15958500Y-13492800D02*
X15918500Y-13532800D01*
X16020100Y-12718100D02*
X16060100Y-12758100D01*
X16060100Y-12718100D02*
X16020100Y-12758100D01*
X16032800Y-12934000D02*
X16072800Y-12974000D01*
X16072800Y-12934000D02*
X16032800Y-12974000D01*
X16109000Y-11918000D02*
X16149000Y-11958000D01*
X16149000Y-11918000D02*
X16109000Y-11958000D01*
X16109000Y-14712000D02*
X16149000Y-14752000D01*
X16149000Y-14712000D02*
X16109000Y-14752000D01*
X16121700Y-13378500D02*
X16161700Y-13418500D01*
X16161700Y-13378500D02*
X16121700Y-13418500D01*
X16248700Y-13251500D02*
X16288700Y-13291500D01*
X16288700Y-13251500D02*
X16248700Y-13291500D01*
X16363000Y-14712000D02*
X16403000Y-14752000D01*
X16403000Y-14712000D02*
X16363000Y-14752000D01*
X16451900Y-12984800D02*
X16491900Y-13024800D01*
X16491900Y-12984800D02*
X16451900Y-13024800D01*
X16591600Y-13543600D02*
X16631600Y-13583600D01*
X16631600Y-13543600D02*
X16591600Y-13583600D01*
X16604300Y-12718100D02*
X16644300Y-12758100D01*
X16644300Y-12718100D02*
X16604300Y-12758100D01*
X16617000Y-11537000D02*
X16657000Y-11577000D01*
X16657000Y-11537000D02*
X16617000Y-11577000D01*
X16617000Y-14712000D02*
X16657000Y-14752000D01*
X16657000Y-14712000D02*
X16617000Y-14752000D01*
X16871000Y-11537000D02*
X16911000Y-11577000D01*
X16911000Y-11537000D02*
X16871000Y-11577000D01*
X16871000Y-14712000D02*
X16911000Y-14752000D01*
X16911000Y-14712000D02*
X16871000Y-14752000D01*
X16947200Y-13238800D02*
X16987200Y-13278800D01*
X16987200Y-13238800D02*
X16947200Y-13278800D01*
X16959900Y-12730800D02*
X16999900Y-12770800D01*
X16999900Y-12730800D02*
X16959900Y-12770800D01*
X17112300Y-13518200D02*
X17152300Y-13558200D01*
X17152300Y-13518200D02*
X17112300Y-13558200D01*
X17125000Y-11537000D02*
X17165000Y-11577000D01*
X17165000Y-11537000D02*
X17125000Y-11577000D01*
X17125000Y-12984800D02*
X17165000Y-13024800D01*
X17165000Y-12984800D02*
X17125000Y-13024800D01*
X17252000Y-12451400D02*
X17292000Y-12491400D01*
X17292000Y-12451400D02*
X17252000Y-12491400D01*
X17379000Y-11537000D02*
X17419000Y-11577000D01*
X17419000Y-11537000D02*
X17379000Y-11577000D01*
X17633000Y-11791000D02*
X17673000Y-11831000D01*
X17673000Y-11791000D02*
X17633000Y-11831000D01*
X17633000Y-12045000D02*
X17673000Y-12085000D01*
X17673000Y-12045000D02*
X17633000Y-12085000D01*
X15488500Y-11747500D02*
G75*
G03X15488500Y-11747500I-40000J0D01*
G01*
X15978500Y-11747500D02*
G75*
G03X15978500Y-11747500I-40000J0D01*
G01*
X13652500Y-14110500D02*
X13652500Y-14210500D01*
X13602500Y-14160500D02*
X13702500Y-14160500D01*
X13652500Y-14364500D02*
X13652500Y-14464500D01*
X13602500Y-14414500D02*
X13702500Y-14414500D01*
X12700000Y-14555000D02*
X12700000Y-14655000D01*
X12650000Y-14605000D02*
X12750000Y-14605000D01*
X12954000Y-14555000D02*
X12954000Y-14655000D01*
X12904000Y-14605000D02*
X13004000Y-14605000D01*
X16827500Y-13666000D02*
X16827500Y-13766000D01*
X16777500Y-13716000D02*
X16877500Y-13716000D01*
X16827500Y-13920000D02*
X16827500Y-14020000D01*
X16777500Y-13970000D02*
X16877500Y-13970000D01*
X17272000Y-13793000D02*
X17272000Y-13893000D01*
X17222000Y-13843000D02*
X17322000Y-13843000D01*
X17526000Y-13793000D02*
X17526000Y-13893000D01*
X17476000Y-13843000D02*
X17576000Y-13843000D01*
X17272000Y-14555000D02*
X17272000Y-14655000D01*
X17222000Y-14605000D02*
X17322000Y-14605000D01*
X17526000Y-14555000D02*
X17526000Y-14655000D01*
X17476000Y-14605000D02*
X17576000Y-14605000D01*
X16383000Y-13666000D02*
X16383000Y-13766000D01*
X16333000Y-13716000D02*
X16433000Y-13716000D01*
X16383000Y-13920000D02*
X16383000Y-14020000D01*
X16333000Y-13970000D02*
X16433000Y-13970000D01*
X12827000Y-12777000D02*
X12827000Y-12877000D01*
X12777000Y-12827000D02*
X12877000Y-12827000D01*
X12827000Y-13031000D02*
X12827000Y-13131000D01*
X12777000Y-13081000D02*
X12877000Y-13081000D01*
X12827000Y-13285000D02*
X12827000Y-13385000D01*
X12777000Y-13335000D02*
X12877000Y-13335000D01*
X14668500Y-14555000D02*
X14668500Y-14655000D01*
X14618500Y-14605000D02*
X14718500Y-14605000D01*
X14922500Y-14555000D02*
X14922500Y-14655000D01*
X14872500Y-14605000D02*
X14972500Y-14605000D01*
X15176500Y-14555000D02*
X15176500Y-14655000D01*
X15126500Y-14605000D02*
X15226500Y-14605000D01*
X15430500Y-14555000D02*
X15430500Y-14655000D01*
X15380500Y-14605000D02*
X15480500Y-14605000D01*
X15684500Y-14555000D02*
X15684500Y-14655000D01*
X15634500Y-14605000D02*
X15734500Y-14605000D01*
X15938500Y-14555000D02*
X15938500Y-14655000D01*
X15888500Y-14605000D02*
X15988500Y-14605000D01*
X12700000Y-13793000D02*
X12700000Y-13893000D01*
X12650000Y-13843000D02*
X12750000Y-13843000D01*
X12954000Y-13793000D02*
X12954000Y-13893000D01*
X12904000Y-13843000D02*
X13004000Y-13843000D01*
D12*
X12729928Y-15327214D02*
X12729928Y-15027214D01*
X12801357Y-15027214D01*
X12844214Y-15041500D01*
X12872786Y-15070071D01*
X12887071Y-15098643D01*
X12901357Y-15155786D01*
X12901357Y-15198643D01*
X12887071Y-15255786D01*
X12872786Y-15284357D01*
X12844214Y-15312929D01*
X12801357Y-15327214D01*
X12729928Y-15327214D01*
X13029928Y-15327214D02*
X13029928Y-15127214D01*
X13029928Y-15184357D02*
X13044214Y-15155786D01*
X13058500Y-15141500D01*
X13087071Y-15127214D01*
X13115643Y-15127214D01*
X13215643Y-15327214D02*
X13215643Y-15127214D01*
X13215643Y-15027214D02*
X13201357Y-15041500D01*
X13215643Y-15055786D01*
X13229928Y-15041500D01*
X13215643Y-15027214D01*
X13215643Y-15055786D01*
X13401357Y-15327214D02*
X13372786Y-15312929D01*
X13358500Y-15284357D01*
X13358500Y-15027214D01*
X13558500Y-15327214D02*
X13529928Y-15312929D01*
X13515643Y-15284357D01*
X13515643Y-15027214D01*
X13901357Y-15327214D02*
X13901357Y-15027214D01*
X14001357Y-15241500D01*
X14101357Y-15027214D01*
X14101357Y-15327214D01*
X14372786Y-15327214D02*
X14372786Y-15170071D01*
X14358500Y-15141500D01*
X14329928Y-15127214D01*
X14272786Y-15127214D01*
X14244214Y-15141500D01*
X14372786Y-15312929D02*
X14344214Y-15327214D01*
X14272786Y-15327214D01*
X14244214Y-15312929D01*
X14229928Y-15284357D01*
X14229928Y-15255786D01*
X14244214Y-15227214D01*
X14272786Y-15212929D01*
X14344214Y-15212929D01*
X14372786Y-15198643D01*
X14515643Y-15127214D02*
X14515643Y-15427214D01*
X14515643Y-15141500D02*
X14544214Y-15127214D01*
X14601357Y-15127214D01*
X14629928Y-15141500D01*
X14644214Y-15155786D01*
X14658500Y-15184357D01*
X14658500Y-15270071D01*
X14644214Y-15298643D01*
X14629928Y-15312929D01*
X14601357Y-15327214D01*
X14544214Y-15327214D01*
X14515643Y-15312929D01*
X14787071Y-15298643D02*
X14801357Y-15312929D01*
X14787071Y-15327214D01*
X14772786Y-15312929D01*
X14787071Y-15298643D01*
X14787071Y-15327214D01*
X14787071Y-15141500D02*
X14801357Y-15155786D01*
X14787071Y-15170071D01*
X14772786Y-15155786D01*
X14787071Y-15141500D01*
X14787071Y-15170071D01*
X12403500Y-15801500D02*
X12443500Y-15841500D01*
X12443500Y-15801500D02*
X12403500Y-15841500D01*
X12787071Y-15657214D02*
X12815643Y-15657214D01*
X12844214Y-15671500D01*
X12858500Y-15685786D01*
X12872786Y-15714357D01*
X12887071Y-15771500D01*
X12887071Y-15842929D01*
X12872786Y-15900071D01*
X12858500Y-15928643D01*
X12844214Y-15942929D01*
X12815643Y-15957214D01*
X12787071Y-15957214D01*
X12758500Y-15942929D01*
X12744214Y-15928643D01*
X12729928Y-15900071D01*
X12715643Y-15842929D01*
X12715643Y-15771500D01*
X12729928Y-15714357D01*
X12744214Y-15685786D01*
X12758500Y-15671500D01*
X12787071Y-15657214D01*
X13015643Y-15928643D02*
X13029928Y-15942929D01*
X13015643Y-15957214D01*
X13001357Y-15942929D01*
X13015643Y-15928643D01*
X13015643Y-15957214D01*
X13287071Y-15757214D02*
X13287071Y-15957214D01*
X13215643Y-15642929D02*
X13144214Y-15857214D01*
X13329928Y-15857214D01*
X13501357Y-15657214D02*
X13529928Y-15657214D01*
X13558500Y-15671500D01*
X13572786Y-15685786D01*
X13587071Y-15714357D01*
X13601357Y-15771500D01*
X13601357Y-15842929D01*
X13587071Y-15900071D01*
X13572786Y-15928643D01*
X13558500Y-15942929D01*
X13529928Y-15957214D01*
X13501357Y-15957214D01*
X13472786Y-15942929D01*
X13458500Y-15928643D01*
X13444214Y-15900071D01*
X13429928Y-15842929D01*
X13429928Y-15771500D01*
X13444214Y-15714357D01*
X13458500Y-15685786D01*
X13472786Y-15671500D01*
X13501357Y-15657214D01*
X13729928Y-15957214D02*
X13729928Y-15757214D01*
X13729928Y-15785786D02*
X13744214Y-15771500D01*
X13772786Y-15757214D01*
X13815643Y-15757214D01*
X13844214Y-15771500D01*
X13858500Y-15800071D01*
X13858500Y-15957214D01*
X13858500Y-15800071D02*
X13872786Y-15771500D01*
X13901357Y-15757214D01*
X13944214Y-15757214D01*
X13972786Y-15771500D01*
X13987071Y-15800071D01*
X13987071Y-15957214D01*
X14129928Y-15957214D02*
X14129928Y-15757214D01*
X14129928Y-15785786D02*
X14144214Y-15771500D01*
X14172786Y-15757214D01*
X14215643Y-15757214D01*
X14244214Y-15771500D01*
X14258500Y-15800071D01*
X14258500Y-15957214D01*
X14258500Y-15800071D02*
X14272786Y-15771500D01*
X14301357Y-15757214D01*
X14344214Y-15757214D01*
X14372786Y-15771500D01*
X14387071Y-15800071D01*
X14387071Y-15957214D01*
X14972786Y-15642929D02*
X14715643Y-16028643D01*
X15358500Y-15657214D02*
X15387071Y-15657214D01*
X15415643Y-15671500D01*
X15429928Y-15685786D01*
X15444214Y-15714357D01*
X15458500Y-15771500D01*
X15458500Y-15842929D01*
X15444214Y-15900071D01*
X15429928Y-15928643D01*
X15415643Y-15942929D01*
X15387071Y-15957214D01*
X15358500Y-15957214D01*
X15329928Y-15942929D01*
X15315643Y-15928643D01*
X15301357Y-15900071D01*
X15287071Y-15842929D01*
X15287071Y-15771500D01*
X15301357Y-15714357D01*
X15315643Y-15685786D01*
X15329928Y-15671500D01*
X15358500Y-15657214D01*
X15587071Y-15928643D02*
X15601357Y-15942929D01*
X15587071Y-15957214D01*
X15572786Y-15942929D01*
X15587071Y-15928643D01*
X15587071Y-15957214D01*
X15787071Y-15657214D02*
X15815643Y-15657214D01*
X15844214Y-15671500D01*
X15858500Y-15685786D01*
X15872786Y-15714357D01*
X15887071Y-15771500D01*
X15887071Y-15842929D01*
X15872786Y-15900071D01*
X15858500Y-15928643D01*
X15844214Y-15942929D01*
X15815643Y-15957214D01*
X15787071Y-15957214D01*
X15758500Y-15942929D01*
X15744214Y-15928643D01*
X15729928Y-15900071D01*
X15715643Y-15842929D01*
X15715643Y-15771500D01*
X15729928Y-15714357D01*
X15744214Y-15685786D01*
X15758500Y-15671500D01*
X15787071Y-15657214D01*
X16172786Y-15957214D02*
X16001357Y-15957214D01*
X16087071Y-15957214D02*
X16087071Y-15657214D01*
X16058500Y-15700071D01*
X16029928Y-15728643D01*
X16001357Y-15742929D01*
X16429928Y-15657214D02*
X16372786Y-15657214D01*
X16344214Y-15671500D01*
X16329928Y-15685786D01*
X16301357Y-15728643D01*
X16287071Y-15785786D01*
X16287071Y-15900071D01*
X16301357Y-15928643D01*
X16315643Y-15942929D01*
X16344214Y-15957214D01*
X16401357Y-15957214D01*
X16429928Y-15942929D01*
X16444214Y-15928643D01*
X16458500Y-15900071D01*
X16458500Y-15828643D01*
X16444214Y-15800071D01*
X16429928Y-15785786D01*
X16401357Y-15771500D01*
X16344214Y-15771500D01*
X16315643Y-15785786D01*
X16301357Y-15800071D01*
X16287071Y-15828643D01*
X16572786Y-15657214D02*
X16572786Y-15714357D01*
X16687071Y-15657214D02*
X16687071Y-15714357D01*
X17129928Y-16071500D02*
X17115643Y-16057214D01*
X17087071Y-16014357D01*
X17072786Y-15985786D01*
X17058500Y-15942929D01*
X17044214Y-15871500D01*
X17044214Y-15814357D01*
X17058500Y-15742929D01*
X17072786Y-15700071D01*
X17087071Y-15671500D01*
X17115643Y-15628643D01*
X17129928Y-15614357D01*
X17387071Y-15657214D02*
X17244214Y-15657214D01*
X17229928Y-15800071D01*
X17244214Y-15785786D01*
X17272786Y-15771500D01*
X17344214Y-15771500D01*
X17372786Y-15785786D01*
X17387071Y-15800071D01*
X17401357Y-15828643D01*
X17401357Y-15900071D01*
X17387071Y-15928643D01*
X17372786Y-15942929D01*
X17344214Y-15957214D01*
X17272786Y-15957214D01*
X17244214Y-15942929D01*
X17229928Y-15928643D01*
X17658500Y-15657214D02*
X17601357Y-15657214D01*
X17572786Y-15671500D01*
X17558500Y-15685786D01*
X17529928Y-15728643D01*
X17515643Y-15785786D01*
X17515643Y-15900071D01*
X17529928Y-15928643D01*
X17544214Y-15942929D01*
X17572786Y-15957214D01*
X17629928Y-15957214D01*
X17658500Y-15942929D01*
X17672786Y-15928643D01*
X17687071Y-15900071D01*
X17687071Y-15828643D01*
X17672786Y-15800071D01*
X17658500Y-15785786D01*
X17629928Y-15771500D01*
X17572786Y-15771500D01*
X17544214Y-15785786D01*
X17529928Y-15800071D01*
X17515643Y-15828643D01*
X18044214Y-15957214D02*
X18044214Y-15657214D01*
X18172786Y-15957214D02*
X18172786Y-15800071D01*
X18158500Y-15771500D01*
X18129928Y-15757214D01*
X18087071Y-15757214D01*
X18058500Y-15771500D01*
X18044214Y-15785786D01*
X18358500Y-15957214D02*
X18329928Y-15942929D01*
X18315643Y-15928643D01*
X18301357Y-15900071D01*
X18301357Y-15814357D01*
X18315643Y-15785786D01*
X18329928Y-15771500D01*
X18358500Y-15757214D01*
X18401357Y-15757214D01*
X18429928Y-15771500D01*
X18444214Y-15785786D01*
X18458500Y-15814357D01*
X18458500Y-15900071D01*
X18444214Y-15928643D01*
X18429928Y-15942929D01*
X18401357Y-15957214D01*
X18358500Y-15957214D01*
X18629928Y-15957214D02*
X18601357Y-15942929D01*
X18587071Y-15914357D01*
X18587071Y-15657214D01*
X18858500Y-15942929D02*
X18829928Y-15957214D01*
X18772786Y-15957214D01*
X18744214Y-15942929D01*
X18729928Y-15914357D01*
X18729928Y-15800071D01*
X18744214Y-15771500D01*
X18772786Y-15757214D01*
X18829928Y-15757214D01*
X18858500Y-15771500D01*
X18872786Y-15800071D01*
X18872786Y-15828643D01*
X18729928Y-15857214D01*
X18987071Y-15942929D02*
X19015643Y-15957214D01*
X19072786Y-15957214D01*
X19101357Y-15942929D01*
X19115643Y-15914357D01*
X19115643Y-15900071D01*
X19101357Y-15871500D01*
X19072786Y-15857214D01*
X19029928Y-15857214D01*
X19001357Y-15842929D01*
X18987071Y-15814357D01*
X18987071Y-15800071D01*
X19001357Y-15771500D01*
X19029928Y-15757214D01*
X19072786Y-15757214D01*
X19101357Y-15771500D01*
X19215643Y-16071500D02*
X19229928Y-16057214D01*
X19258500Y-16014357D01*
X19272786Y-15985786D01*
X19287071Y-15942929D01*
X19301357Y-15871500D01*
X19301357Y-15814357D01*
X19287071Y-15742929D01*
X19272786Y-15700071D01*
X19258500Y-15671500D01*
X19229928Y-15628643D01*
X19215643Y-15614357D01*
X12443500Y-16217500D02*
G75*
G03X12443500Y-16217500I-40000J0D01*
G01*
X12787071Y-16053214D02*
X12815643Y-16053214D01*
X12844214Y-16067500D01*
X12858500Y-16081786D01*
X12872786Y-16110357D01*
X12887071Y-16167500D01*
X12887071Y-16238929D01*
X12872786Y-16296071D01*
X12858500Y-16324643D01*
X12844214Y-16338929D01*
X12815643Y-16353214D01*
X12787071Y-16353214D01*
X12758500Y-16338929D01*
X12744214Y-16324643D01*
X12729928Y-16296071D01*
X12715643Y-16238929D01*
X12715643Y-16167500D01*
X12729928Y-16110357D01*
X12744214Y-16081786D01*
X12758500Y-16067500D01*
X12787071Y-16053214D01*
X13015643Y-16324643D02*
X13029928Y-16338929D01*
X13015643Y-16353214D01*
X13001357Y-16338929D01*
X13015643Y-16324643D01*
X13015643Y-16353214D01*
X13201357Y-16181786D02*
X13172786Y-16167500D01*
X13158500Y-16153214D01*
X13144214Y-16124643D01*
X13144214Y-16110357D01*
X13158500Y-16081786D01*
X13172786Y-16067500D01*
X13201357Y-16053214D01*
X13258500Y-16053214D01*
X13287071Y-16067500D01*
X13301357Y-16081786D01*
X13315643Y-16110357D01*
X13315643Y-16124643D01*
X13301357Y-16153214D01*
X13287071Y-16167500D01*
X13258500Y-16181786D01*
X13201357Y-16181786D01*
X13172786Y-16196071D01*
X13158500Y-16210357D01*
X13144214Y-16238929D01*
X13144214Y-16296071D01*
X13158500Y-16324643D01*
X13172786Y-16338929D01*
X13201357Y-16353214D01*
X13258500Y-16353214D01*
X13287071Y-16338929D01*
X13301357Y-16324643D01*
X13315643Y-16296071D01*
X13315643Y-16238929D01*
X13301357Y-16210357D01*
X13287071Y-16196071D01*
X13258500Y-16181786D01*
X13501357Y-16053214D02*
X13529928Y-16053214D01*
X13558500Y-16067500D01*
X13572786Y-16081786D01*
X13587071Y-16110357D01*
X13601357Y-16167500D01*
X13601357Y-16238929D01*
X13587071Y-16296071D01*
X13572786Y-16324643D01*
X13558500Y-16338929D01*
X13529928Y-16353214D01*
X13501357Y-16353214D01*
X13472786Y-16338929D01*
X13458500Y-16324643D01*
X13444214Y-16296071D01*
X13429928Y-16238929D01*
X13429928Y-16167500D01*
X13444214Y-16110357D01*
X13458500Y-16081786D01*
X13472786Y-16067500D01*
X13501357Y-16053214D01*
X13729928Y-16353214D02*
X13729928Y-16153214D01*
X13729928Y-16181786D02*
X13744214Y-16167500D01*
X13772786Y-16153214D01*
X13815643Y-16153214D01*
X13844214Y-16167500D01*
X13858500Y-16196071D01*
X13858500Y-16353214D01*
X13858500Y-16196071D02*
X13872786Y-16167500D01*
X13901357Y-16153214D01*
X13944214Y-16153214D01*
X13972786Y-16167500D01*
X13987071Y-16196071D01*
X13987071Y-16353214D01*
X14129928Y-16353214D02*
X14129928Y-16153214D01*
X14129928Y-16181786D02*
X14144214Y-16167500D01*
X14172786Y-16153214D01*
X14215643Y-16153214D01*
X14244214Y-16167500D01*
X14258500Y-16196071D01*
X14258500Y-16353214D01*
X14258500Y-16196071D02*
X14272786Y-16167500D01*
X14301357Y-16153214D01*
X14344214Y-16153214D01*
X14372786Y-16167500D01*
X14387071Y-16196071D01*
X14387071Y-16353214D01*
X14972786Y-16038929D02*
X14715643Y-16424643D01*
X15358500Y-16053214D02*
X15387071Y-16053214D01*
X15415643Y-16067500D01*
X15429928Y-16081786D01*
X15444214Y-16110357D01*
X15458500Y-16167500D01*
X15458500Y-16238929D01*
X15444214Y-16296071D01*
X15429928Y-16324643D01*
X15415643Y-16338929D01*
X15387071Y-16353214D01*
X15358500Y-16353214D01*
X15329928Y-16338929D01*
X15315643Y-16324643D01*
X15301357Y-16296071D01*
X15287071Y-16238929D01*
X15287071Y-16167500D01*
X15301357Y-16110357D01*
X15315643Y-16081786D01*
X15329928Y-16067500D01*
X15358500Y-16053214D01*
X15587071Y-16324643D02*
X15601357Y-16338929D01*
X15587071Y-16353214D01*
X15572786Y-16338929D01*
X15587071Y-16324643D01*
X15587071Y-16353214D01*
X15787071Y-16053214D02*
X15815643Y-16053214D01*
X15844214Y-16067500D01*
X15858500Y-16081786D01*
X15872786Y-16110357D01*
X15887071Y-16167500D01*
X15887071Y-16238929D01*
X15872786Y-16296071D01*
X15858500Y-16324643D01*
X15844214Y-16338929D01*
X15815643Y-16353214D01*
X15787071Y-16353214D01*
X15758500Y-16338929D01*
X15744214Y-16324643D01*
X15729928Y-16296071D01*
X15715643Y-16238929D01*
X15715643Y-16167500D01*
X15729928Y-16110357D01*
X15744214Y-16081786D01*
X15758500Y-16067500D01*
X15787071Y-16053214D01*
X15987071Y-16053214D02*
X16172786Y-16053214D01*
X16072786Y-16167500D01*
X16115643Y-16167500D01*
X16144214Y-16181786D01*
X16158500Y-16196071D01*
X16172786Y-16224643D01*
X16172786Y-16296071D01*
X16158500Y-16324643D01*
X16144214Y-16338929D01*
X16115643Y-16353214D01*
X16029928Y-16353214D01*
X16001357Y-16338929D01*
X15987071Y-16324643D01*
X16458500Y-16353214D02*
X16287071Y-16353214D01*
X16372786Y-16353214D02*
X16372786Y-16053214D01*
X16344214Y-16096071D01*
X16315643Y-16124643D01*
X16287071Y-16138929D01*
X16572786Y-16053214D02*
X16572786Y-16110357D01*
X16687071Y-16053214D02*
X16687071Y-16110357D01*
X17129928Y-16467500D02*
X17115643Y-16453214D01*
X17087071Y-16410357D01*
X17072786Y-16381786D01*
X17058500Y-16338929D01*
X17044214Y-16267500D01*
X17044214Y-16210357D01*
X17058500Y-16138929D01*
X17072786Y-16096071D01*
X17087071Y-16067500D01*
X17115643Y-16024643D01*
X17129928Y-16010357D01*
X17229928Y-16081786D02*
X17244214Y-16067500D01*
X17272786Y-16053214D01*
X17344214Y-16053214D01*
X17372786Y-16067500D01*
X17387071Y-16081786D01*
X17401357Y-16110357D01*
X17401357Y-16138929D01*
X17387071Y-16181786D01*
X17215643Y-16353214D01*
X17401357Y-16353214D01*
X17758500Y-16353214D02*
X17758500Y-16053214D01*
X17887071Y-16353214D02*
X17887071Y-16196071D01*
X17872786Y-16167500D01*
X17844214Y-16153214D01*
X17801357Y-16153214D01*
X17772786Y-16167500D01*
X17758500Y-16181786D01*
X18072786Y-16353214D02*
X18044214Y-16338929D01*
X18029928Y-16324643D01*
X18015643Y-16296071D01*
X18015643Y-16210357D01*
X18029928Y-16181786D01*
X18044214Y-16167500D01*
X18072786Y-16153214D01*
X18115643Y-16153214D01*
X18144214Y-16167500D01*
X18158500Y-16181786D01*
X18172786Y-16210357D01*
X18172786Y-16296071D01*
X18158500Y-16324643D01*
X18144214Y-16338929D01*
X18115643Y-16353214D01*
X18072786Y-16353214D01*
X18344214Y-16353214D02*
X18315643Y-16338929D01*
X18301357Y-16310357D01*
X18301357Y-16053214D01*
X18572786Y-16338929D02*
X18544214Y-16353214D01*
X18487071Y-16353214D01*
X18458500Y-16338929D01*
X18444214Y-16310357D01*
X18444214Y-16196071D01*
X18458500Y-16167500D01*
X18487071Y-16153214D01*
X18544214Y-16153214D01*
X18572786Y-16167500D01*
X18587071Y-16196071D01*
X18587071Y-16224643D01*
X18444214Y-16253214D01*
X18701357Y-16338929D02*
X18729928Y-16353214D01*
X18787071Y-16353214D01*
X18815643Y-16338929D01*
X18829928Y-16310357D01*
X18829928Y-16296071D01*
X18815643Y-16267500D01*
X18787071Y-16253214D01*
X18744214Y-16253214D01*
X18715643Y-16238929D01*
X18701357Y-16210357D01*
X18701357Y-16196071D01*
X18715643Y-16167500D01*
X18744214Y-16153214D01*
X18787071Y-16153214D01*
X18815643Y-16167500D01*
X18929928Y-16467500D02*
X18944214Y-16453214D01*
X18972786Y-16410357D01*
X18987071Y-16381786D01*
X19001357Y-16338929D01*
X19015643Y-16267500D01*
X19015643Y-16210357D01*
X19001357Y-16138929D01*
X18987071Y-16096071D01*
X18972786Y-16067500D01*
X18944214Y-16024643D01*
X18929928Y-16010357D01*
X12393500Y-16563500D02*
X12393500Y-16663500D01*
X12343500Y-16613500D02*
X12443500Y-16613500D01*
X12887071Y-16749214D02*
X12715643Y-16749214D01*
X12801357Y-16749214D02*
X12801357Y-16449214D01*
X12772786Y-16492071D01*
X12744214Y-16520643D01*
X12715643Y-16534929D01*
X13015643Y-16720643D02*
X13029928Y-16734929D01*
X13015643Y-16749214D01*
X13001357Y-16734929D01*
X13015643Y-16720643D01*
X13015643Y-16749214D01*
X13215643Y-16449214D02*
X13244214Y-16449214D01*
X13272786Y-16463500D01*
X13287071Y-16477786D01*
X13301357Y-16506357D01*
X13315643Y-16563500D01*
X13315643Y-16634929D01*
X13301357Y-16692071D01*
X13287071Y-16720643D01*
X13272786Y-16734929D01*
X13244214Y-16749214D01*
X13215643Y-16749214D01*
X13187071Y-16734929D01*
X13172786Y-16720643D01*
X13158500Y-16692071D01*
X13144214Y-16634929D01*
X13144214Y-16563500D01*
X13158500Y-16506357D01*
X13172786Y-16477786D01*
X13187071Y-16463500D01*
X13215643Y-16449214D01*
X13501357Y-16449214D02*
X13529928Y-16449214D01*
X13558500Y-16463500D01*
X13572786Y-16477786D01*
X13587071Y-16506357D01*
X13601357Y-16563500D01*
X13601357Y-16634929D01*
X13587071Y-16692071D01*
X13572786Y-16720643D01*
X13558500Y-16734929D01*
X13529928Y-16749214D01*
X13501357Y-16749214D01*
X13472786Y-16734929D01*
X13458500Y-16720643D01*
X13444214Y-16692071D01*
X13429928Y-16634929D01*
X13429928Y-16563500D01*
X13444214Y-16506357D01*
X13458500Y-16477786D01*
X13472786Y-16463500D01*
X13501357Y-16449214D01*
X13729928Y-16749214D02*
X13729928Y-16549214D01*
X13729928Y-16577786D02*
X13744214Y-16563500D01*
X13772786Y-16549214D01*
X13815643Y-16549214D01*
X13844214Y-16563500D01*
X13858500Y-16592071D01*
X13858500Y-16749214D01*
X13858500Y-16592071D02*
X13872786Y-16563500D01*
X13901357Y-16549214D01*
X13944214Y-16549214D01*
X13972786Y-16563500D01*
X13987071Y-16592071D01*
X13987071Y-16749214D01*
X14129928Y-16749214D02*
X14129928Y-16549214D01*
X14129928Y-16577786D02*
X14144214Y-16563500D01*
X14172786Y-16549214D01*
X14215643Y-16549214D01*
X14244214Y-16563500D01*
X14258500Y-16592071D01*
X14258500Y-16749214D01*
X14258500Y-16592071D02*
X14272786Y-16563500D01*
X14301357Y-16549214D01*
X14344214Y-16549214D01*
X14372786Y-16563500D01*
X14387071Y-16592071D01*
X14387071Y-16749214D01*
X14972786Y-16434929D02*
X14715643Y-16820643D01*
X15358500Y-16449214D02*
X15387071Y-16449214D01*
X15415643Y-16463500D01*
X15429928Y-16477786D01*
X15444214Y-16506357D01*
X15458500Y-16563500D01*
X15458500Y-16634929D01*
X15444214Y-16692071D01*
X15429928Y-16720643D01*
X15415643Y-16734929D01*
X15387071Y-16749214D01*
X15358500Y-16749214D01*
X15329928Y-16734929D01*
X15315643Y-16720643D01*
X15301357Y-16692071D01*
X15287071Y-16634929D01*
X15287071Y-16563500D01*
X15301357Y-16506357D01*
X15315643Y-16477786D01*
X15329928Y-16463500D01*
X15358500Y-16449214D01*
X15587071Y-16720643D02*
X15601357Y-16734929D01*
X15587071Y-16749214D01*
X15572786Y-16734929D01*
X15587071Y-16720643D01*
X15587071Y-16749214D01*
X15787071Y-16449214D02*
X15815643Y-16449214D01*
X15844214Y-16463500D01*
X15858500Y-16477786D01*
X15872786Y-16506357D01*
X15887071Y-16563500D01*
X15887071Y-16634929D01*
X15872786Y-16692071D01*
X15858500Y-16720643D01*
X15844214Y-16734929D01*
X15815643Y-16749214D01*
X15787071Y-16749214D01*
X15758500Y-16734929D01*
X15744214Y-16720643D01*
X15729928Y-16692071D01*
X15715643Y-16634929D01*
X15715643Y-16563500D01*
X15729928Y-16506357D01*
X15744214Y-16477786D01*
X15758500Y-16463500D01*
X15787071Y-16449214D01*
X15987071Y-16449214D02*
X16172786Y-16449214D01*
X16072786Y-16563500D01*
X16115643Y-16563500D01*
X16144214Y-16577786D01*
X16158500Y-16592071D01*
X16172786Y-16620643D01*
X16172786Y-16692071D01*
X16158500Y-16720643D01*
X16144214Y-16734929D01*
X16115643Y-16749214D01*
X16029928Y-16749214D01*
X16001357Y-16734929D01*
X15987071Y-16720643D01*
X16315643Y-16749214D02*
X16372786Y-16749214D01*
X16401357Y-16734929D01*
X16415643Y-16720643D01*
X16444214Y-16677786D01*
X16458500Y-16620643D01*
X16458500Y-16506357D01*
X16444214Y-16477786D01*
X16429928Y-16463500D01*
X16401357Y-16449214D01*
X16344214Y-16449214D01*
X16315643Y-16463500D01*
X16301357Y-16477786D01*
X16287071Y-16506357D01*
X16287071Y-16577786D01*
X16301357Y-16606357D01*
X16315643Y-16620643D01*
X16344214Y-16634929D01*
X16401357Y-16634929D01*
X16429928Y-16620643D01*
X16444214Y-16606357D01*
X16458500Y-16577786D01*
X16572786Y-16449214D02*
X16572786Y-16506357D01*
X16687071Y-16449214D02*
X16687071Y-16506357D01*
X17129928Y-16863500D02*
X17115643Y-16849214D01*
X17087071Y-16806357D01*
X17072786Y-16777786D01*
X17058500Y-16734929D01*
X17044214Y-16663500D01*
X17044214Y-16606357D01*
X17058500Y-16534929D01*
X17072786Y-16492071D01*
X17087071Y-16463500D01*
X17115643Y-16420643D01*
X17129928Y-16406357D01*
X17229928Y-16477786D02*
X17244214Y-16463500D01*
X17272786Y-16449214D01*
X17344214Y-16449214D01*
X17372786Y-16463500D01*
X17387071Y-16477786D01*
X17401357Y-16506357D01*
X17401357Y-16534929D01*
X17387071Y-16577786D01*
X17215643Y-16749214D01*
X17401357Y-16749214D01*
X17501357Y-16449214D02*
X17687071Y-16449214D01*
X17587071Y-16563500D01*
X17629928Y-16563500D01*
X17658500Y-16577786D01*
X17672786Y-16592071D01*
X17687071Y-16620643D01*
X17687071Y-16692071D01*
X17672786Y-16720643D01*
X17658500Y-16734929D01*
X17629928Y-16749214D01*
X17544214Y-16749214D01*
X17515643Y-16734929D01*
X17501357Y-16720643D01*
X18044214Y-16749214D02*
X18044214Y-16449214D01*
X18172786Y-16749214D02*
X18172786Y-16592071D01*
X18158500Y-16563500D01*
X18129928Y-16549214D01*
X18087071Y-16549214D01*
X18058500Y-16563500D01*
X18044214Y-16577786D01*
X18358500Y-16749214D02*
X18329928Y-16734929D01*
X18315643Y-16720643D01*
X18301357Y-16692071D01*
X18301357Y-16606357D01*
X18315643Y-16577786D01*
X18329928Y-16563500D01*
X18358500Y-16549214D01*
X18401357Y-16549214D01*
X18429928Y-16563500D01*
X18444214Y-16577786D01*
X18458500Y-16606357D01*
X18458500Y-16692071D01*
X18444214Y-16720643D01*
X18429928Y-16734929D01*
X18401357Y-16749214D01*
X18358500Y-16749214D01*
X18629928Y-16749214D02*
X18601357Y-16734929D01*
X18587071Y-16706357D01*
X18587071Y-16449214D01*
X18858500Y-16734929D02*
X18829928Y-16749214D01*
X18772786Y-16749214D01*
X18744214Y-16734929D01*
X18729928Y-16706357D01*
X18729928Y-16592071D01*
X18744214Y-16563500D01*
X18772786Y-16549214D01*
X18829928Y-16549214D01*
X18858500Y-16563500D01*
X18872786Y-16592071D01*
X18872786Y-16620643D01*
X18729928Y-16649214D01*
X18987071Y-16734929D02*
X19015643Y-16749214D01*
X19072786Y-16749214D01*
X19101357Y-16734929D01*
X19115643Y-16706357D01*
X19115643Y-16692071D01*
X19101357Y-16663500D01*
X19072786Y-16649214D01*
X19029928Y-16649214D01*
X19001357Y-16634929D01*
X18987071Y-16606357D01*
X18987071Y-16592071D01*
X19001357Y-16563500D01*
X19029928Y-16549214D01*
X19072786Y-16549214D01*
X19101357Y-16563500D01*
X19215643Y-16863500D02*
X19229928Y-16849214D01*
X19258500Y-16806357D01*
X19272786Y-16777786D01*
X19287071Y-16734929D01*
X19301357Y-16663500D01*
X19301357Y-16606357D01*
X19287071Y-16534929D01*
X19272786Y-16492071D01*
X19258500Y-16463500D01*
X19229928Y-16420643D01*
X19215643Y-16406357D01*
M02*
