G04 #@! TF.GenerationSoftware,KiCad,Pcbnew,(5.1.2)-2*
G04 #@! TF.CreationDate,2019-08-11T21:37:17+02:00*
G04 #@! TF.ProjectId,20190811_usbasp,32303139-3038-4313-915f-757362617370,rev?*
G04 #@! TF.SameCoordinates,Original*
G04 #@! TF.FileFunction,Legend,Top*
G04 #@! TF.FilePolarity,Positive*
%FSLAX46Y46*%
G04 Gerber Fmt 4.6, Leading zero omitted, Abs format (unit mm)*
G04 Created by KiCad (PCBNEW (5.1.2)-2) date 2019-08-11 21:37:17*
%MOMM*%
%LPD*%
G04 APERTURE LIST*
%ADD10C,0.120000*%
%ADD11C,0.150000*%
%ADD12C,0.010000*%
G04 APERTURE END LIST*
D10*
X161925000Y-140335000D02*
X161925000Y-148590000D01*
X142875000Y-140335000D02*
X161925000Y-140335000D01*
X142875000Y-148590000D02*
X142875000Y-140335000D01*
X132080000Y-135382000D02*
X132080000Y-148336000D01*
X124460000Y-135382000D02*
X132080000Y-135382000D01*
X170180000Y-135382000D02*
X170180000Y-148336000D01*
X177800000Y-135382000D02*
X170180000Y-135382000D01*
D11*
X167434000Y-121070714D02*
X167672095Y-121737380D01*
X167910190Y-121070714D01*
X168195904Y-120737380D02*
X168814952Y-120737380D01*
X168481619Y-121118333D01*
X168624476Y-121118333D01*
X168719714Y-121165952D01*
X168767333Y-121213571D01*
X168814952Y-121308809D01*
X168814952Y-121546904D01*
X168767333Y-121642142D01*
X168719714Y-121689761D01*
X168624476Y-121737380D01*
X168338761Y-121737380D01*
X168243523Y-121689761D01*
X168195904Y-121642142D01*
X169957809Y-120832619D02*
X170005428Y-120785000D01*
X170100666Y-120737380D01*
X170338761Y-120737380D01*
X170434000Y-120785000D01*
X170481619Y-120832619D01*
X170529238Y-120927857D01*
X170529238Y-121023095D01*
X170481619Y-121165952D01*
X169910190Y-121737380D01*
X170529238Y-121737380D01*
X171148285Y-120737380D02*
X171243523Y-120737380D01*
X171338761Y-120785000D01*
X171386380Y-120832619D01*
X171434000Y-120927857D01*
X171481619Y-121118333D01*
X171481619Y-121356428D01*
X171434000Y-121546904D01*
X171386380Y-121642142D01*
X171338761Y-121689761D01*
X171243523Y-121737380D01*
X171148285Y-121737380D01*
X171053047Y-121689761D01*
X171005428Y-121642142D01*
X170957809Y-121546904D01*
X170910190Y-121356428D01*
X170910190Y-121118333D01*
X170957809Y-120927857D01*
X171005428Y-120832619D01*
X171053047Y-120785000D01*
X171148285Y-120737380D01*
X172434000Y-121737380D02*
X171862571Y-121737380D01*
X172148285Y-121737380D02*
X172148285Y-120737380D01*
X172053047Y-120880238D01*
X171957809Y-120975476D01*
X171862571Y-121023095D01*
X172910190Y-121737380D02*
X173100666Y-121737380D01*
X173195904Y-121689761D01*
X173243523Y-121642142D01*
X173338761Y-121499285D01*
X173386380Y-121308809D01*
X173386380Y-120927857D01*
X173338761Y-120832619D01*
X173291142Y-120785000D01*
X173195904Y-120737380D01*
X173005428Y-120737380D01*
X172910190Y-120785000D01*
X172862571Y-120832619D01*
X172814952Y-120927857D01*
X172814952Y-121165952D01*
X172862571Y-121261190D01*
X172910190Y-121308809D01*
X173005428Y-121356428D01*
X173195904Y-121356428D01*
X173291142Y-121308809D01*
X173338761Y-121261190D01*
X173386380Y-121165952D01*
X164005428Y-122642380D02*
X164005428Y-123451904D01*
X164053047Y-123547142D01*
X164100666Y-123594761D01*
X164195904Y-123642380D01*
X164386380Y-123642380D01*
X164481619Y-123594761D01*
X164529238Y-123547142D01*
X164576857Y-123451904D01*
X164576857Y-122642380D01*
X164957809Y-122975714D02*
X165148285Y-123642380D01*
X165338761Y-123166190D01*
X165529238Y-123642380D01*
X165719714Y-122975714D01*
X166481619Y-123594761D02*
X166386380Y-123642380D01*
X166195904Y-123642380D01*
X166100666Y-123594761D01*
X166053047Y-123499523D01*
X166053047Y-123118571D01*
X166100666Y-123023333D01*
X166195904Y-122975714D01*
X166386380Y-122975714D01*
X166481619Y-123023333D01*
X166529238Y-123118571D01*
X166529238Y-123213809D01*
X166053047Y-123309047D01*
X167624476Y-122642380D02*
X168291142Y-122642380D01*
X167624476Y-123642380D01*
X168291142Y-123642380D01*
X168672095Y-123642380D02*
X168672095Y-122975714D01*
X168672095Y-122642380D02*
X168624476Y-122690000D01*
X168672095Y-122737619D01*
X168719714Y-122690000D01*
X168672095Y-122642380D01*
X168672095Y-122737619D01*
X169148285Y-123642380D02*
X169148285Y-122975714D01*
X169148285Y-123070952D02*
X169195904Y-123023333D01*
X169291142Y-122975714D01*
X169434000Y-122975714D01*
X169529238Y-123023333D01*
X169576857Y-123118571D01*
X169576857Y-123642380D01*
X169576857Y-123118571D02*
X169624476Y-123023333D01*
X169719714Y-122975714D01*
X169862571Y-122975714D01*
X169957809Y-123023333D01*
X170005428Y-123118571D01*
X170005428Y-123642380D01*
X170481619Y-123642380D02*
X170481619Y-122975714D01*
X170481619Y-123070952D02*
X170529238Y-123023333D01*
X170624476Y-122975714D01*
X170767333Y-122975714D01*
X170862571Y-123023333D01*
X170910190Y-123118571D01*
X170910190Y-123642380D01*
X170910190Y-123118571D02*
X170957809Y-123023333D01*
X171053047Y-122975714D01*
X171195904Y-122975714D01*
X171291142Y-123023333D01*
X171338761Y-123118571D01*
X171338761Y-123642380D01*
X172195904Y-123594761D02*
X172100666Y-123642380D01*
X171910190Y-123642380D01*
X171814952Y-123594761D01*
X171767333Y-123499523D01*
X171767333Y-123118571D01*
X171814952Y-123023333D01*
X171910190Y-122975714D01*
X172100666Y-122975714D01*
X172195904Y-123023333D01*
X172243523Y-123118571D01*
X172243523Y-123213809D01*
X171767333Y-123309047D01*
X172672095Y-123642380D02*
X172672095Y-122975714D01*
X172672095Y-123166190D02*
X172719714Y-123070952D01*
X172767333Y-123023333D01*
X172862571Y-122975714D01*
X172957809Y-122975714D01*
X173291142Y-123642380D02*
X173291142Y-122975714D01*
X173291142Y-123070952D02*
X173338761Y-123023333D01*
X173434000Y-122975714D01*
X173576857Y-122975714D01*
X173672095Y-123023333D01*
X173719714Y-123118571D01*
X173719714Y-123642380D01*
X173719714Y-123118571D02*
X173767333Y-123023333D01*
X173862571Y-122975714D01*
X174005428Y-122975714D01*
X174100666Y-123023333D01*
X174148285Y-123118571D01*
X174148285Y-123642380D01*
X175053047Y-123642380D02*
X175053047Y-123118571D01*
X175005428Y-123023333D01*
X174910190Y-122975714D01*
X174719714Y-122975714D01*
X174624476Y-123023333D01*
X175053047Y-123594761D02*
X174957809Y-123642380D01*
X174719714Y-123642380D01*
X174624476Y-123594761D01*
X174576857Y-123499523D01*
X174576857Y-123404285D01*
X174624476Y-123309047D01*
X174719714Y-123261428D01*
X174957809Y-123261428D01*
X175053047Y-123213809D01*
X175529238Y-122975714D02*
X175529238Y-123642380D01*
X175529238Y-123070952D02*
X175576857Y-123023333D01*
X175672095Y-122975714D01*
X175814952Y-122975714D01*
X175910190Y-123023333D01*
X175957809Y-123118571D01*
X175957809Y-123642380D01*
X176434000Y-122975714D02*
X176434000Y-123642380D01*
X176434000Y-123070952D02*
X176481619Y-123023333D01*
X176576857Y-122975714D01*
X176719714Y-122975714D01*
X176814952Y-123023333D01*
X176862571Y-123118571D01*
X176862571Y-123642380D01*
X167862571Y-118832380D02*
X167862571Y-119641904D01*
X167910190Y-119737142D01*
X167957809Y-119784761D01*
X168053047Y-119832380D01*
X168243523Y-119832380D01*
X168338761Y-119784761D01*
X168386380Y-119737142D01*
X168434000Y-119641904D01*
X168434000Y-118832380D01*
X168862571Y-119784761D02*
X169005428Y-119832380D01*
X169243523Y-119832380D01*
X169338761Y-119784761D01*
X169386380Y-119737142D01*
X169434000Y-119641904D01*
X169434000Y-119546666D01*
X169386380Y-119451428D01*
X169338761Y-119403809D01*
X169243523Y-119356190D01*
X169053047Y-119308571D01*
X168957809Y-119260952D01*
X168910190Y-119213333D01*
X168862571Y-119118095D01*
X168862571Y-119022857D01*
X168910190Y-118927619D01*
X168957809Y-118880000D01*
X169053047Y-118832380D01*
X169291142Y-118832380D01*
X169434000Y-118880000D01*
X170195904Y-119308571D02*
X170338761Y-119356190D01*
X170386380Y-119403809D01*
X170434000Y-119499047D01*
X170434000Y-119641904D01*
X170386380Y-119737142D01*
X170338761Y-119784761D01*
X170243523Y-119832380D01*
X169862571Y-119832380D01*
X169862571Y-118832380D01*
X170195904Y-118832380D01*
X170291142Y-118880000D01*
X170338761Y-118927619D01*
X170386380Y-119022857D01*
X170386380Y-119118095D01*
X170338761Y-119213333D01*
X170291142Y-119260952D01*
X170195904Y-119308571D01*
X169862571Y-119308571D01*
X171291142Y-119832380D02*
X171291142Y-119308571D01*
X171243523Y-119213333D01*
X171148285Y-119165714D01*
X170957809Y-119165714D01*
X170862571Y-119213333D01*
X171291142Y-119784761D02*
X171195904Y-119832380D01*
X170957809Y-119832380D01*
X170862571Y-119784761D01*
X170814952Y-119689523D01*
X170814952Y-119594285D01*
X170862571Y-119499047D01*
X170957809Y-119451428D01*
X171195904Y-119451428D01*
X171291142Y-119403809D01*
X171719714Y-119784761D02*
X171814952Y-119832380D01*
X172005428Y-119832380D01*
X172100666Y-119784761D01*
X172148285Y-119689523D01*
X172148285Y-119641904D01*
X172100666Y-119546666D01*
X172005428Y-119499047D01*
X171862571Y-119499047D01*
X171767333Y-119451428D01*
X171719714Y-119356190D01*
X171719714Y-119308571D01*
X171767333Y-119213333D01*
X171862571Y-119165714D01*
X172005428Y-119165714D01*
X172100666Y-119213333D01*
X172576857Y-119165714D02*
X172576857Y-120165714D01*
X172576857Y-119213333D02*
X172672095Y-119165714D01*
X172862571Y-119165714D01*
X172957809Y-119213333D01*
X173005428Y-119260952D01*
X173053047Y-119356190D01*
X173053047Y-119641904D01*
X173005428Y-119737142D01*
X172957809Y-119784761D01*
X172862571Y-119832380D01*
X172672095Y-119832380D01*
X172576857Y-119784761D01*
X166743523Y-117403571D02*
X166886380Y-117451190D01*
X166934000Y-117498809D01*
X166981619Y-117594047D01*
X166981619Y-117736904D01*
X166934000Y-117832142D01*
X166886380Y-117879761D01*
X166791142Y-117927380D01*
X166410190Y-117927380D01*
X166410190Y-116927380D01*
X166743523Y-116927380D01*
X166838761Y-116975000D01*
X166886380Y-117022619D01*
X166934000Y-117117857D01*
X166934000Y-117213095D01*
X166886380Y-117308333D01*
X166838761Y-117355952D01*
X166743523Y-117403571D01*
X166410190Y-117403571D01*
X167410190Y-117927380D02*
X167410190Y-117260714D01*
X167410190Y-117451190D02*
X167457809Y-117355952D01*
X167505428Y-117308333D01*
X167600666Y-117260714D01*
X167695904Y-117260714D01*
X168410190Y-117879761D02*
X168314952Y-117927380D01*
X168124476Y-117927380D01*
X168029238Y-117879761D01*
X167981619Y-117784523D01*
X167981619Y-117403571D01*
X168029238Y-117308333D01*
X168124476Y-117260714D01*
X168314952Y-117260714D01*
X168410190Y-117308333D01*
X168457809Y-117403571D01*
X168457809Y-117498809D01*
X167981619Y-117594047D01*
X169314952Y-117927380D02*
X169314952Y-117403571D01*
X169267333Y-117308333D01*
X169172095Y-117260714D01*
X168981619Y-117260714D01*
X168886380Y-117308333D01*
X169314952Y-117879761D02*
X169219714Y-117927380D01*
X168981619Y-117927380D01*
X168886380Y-117879761D01*
X168838761Y-117784523D01*
X168838761Y-117689285D01*
X168886380Y-117594047D01*
X168981619Y-117546428D01*
X169219714Y-117546428D01*
X169314952Y-117498809D01*
X170219714Y-117927380D02*
X170219714Y-116927380D01*
X170219714Y-117879761D02*
X170124476Y-117927380D01*
X169934000Y-117927380D01*
X169838761Y-117879761D01*
X169791142Y-117832142D01*
X169743523Y-117736904D01*
X169743523Y-117451190D01*
X169791142Y-117355952D01*
X169838761Y-117308333D01*
X169934000Y-117260714D01*
X170124476Y-117260714D01*
X170219714Y-117308333D01*
X170695904Y-117927380D02*
X170695904Y-116927380D01*
X170695904Y-117308333D02*
X170791142Y-117260714D01*
X170981619Y-117260714D01*
X171076857Y-117308333D01*
X171124476Y-117355952D01*
X171172095Y-117451190D01*
X171172095Y-117736904D01*
X171124476Y-117832142D01*
X171076857Y-117879761D01*
X170981619Y-117927380D01*
X170791142Y-117927380D01*
X170695904Y-117879761D01*
X171743523Y-117927380D02*
X171648285Y-117879761D01*
X171600666Y-117832142D01*
X171553047Y-117736904D01*
X171553047Y-117451190D01*
X171600666Y-117355952D01*
X171648285Y-117308333D01*
X171743523Y-117260714D01*
X171886380Y-117260714D01*
X171981619Y-117308333D01*
X172029238Y-117355952D01*
X172076857Y-117451190D01*
X172076857Y-117736904D01*
X172029238Y-117832142D01*
X171981619Y-117879761D01*
X171886380Y-117927380D01*
X171743523Y-117927380D01*
X172934000Y-117927380D02*
X172934000Y-117403571D01*
X172886380Y-117308333D01*
X172791142Y-117260714D01*
X172600666Y-117260714D01*
X172505428Y-117308333D01*
X172934000Y-117879761D02*
X172838761Y-117927380D01*
X172600666Y-117927380D01*
X172505428Y-117879761D01*
X172457809Y-117784523D01*
X172457809Y-117689285D01*
X172505428Y-117594047D01*
X172600666Y-117546428D01*
X172838761Y-117546428D01*
X172934000Y-117498809D01*
X173410190Y-117927380D02*
X173410190Y-117260714D01*
X173410190Y-117451190D02*
X173457809Y-117355952D01*
X173505428Y-117308333D01*
X173600666Y-117260714D01*
X173695904Y-117260714D01*
X174457809Y-117927380D02*
X174457809Y-116927380D01*
X174457809Y-117879761D02*
X174362571Y-117927380D01*
X174172095Y-117927380D01*
X174076857Y-117879761D01*
X174029238Y-117832142D01*
X173981619Y-117736904D01*
X173981619Y-117451190D01*
X174029238Y-117355952D01*
X174076857Y-117308333D01*
X174172095Y-117260714D01*
X174362571Y-117260714D01*
X174457809Y-117308333D01*
X174976404Y-135898000D02*
X174881166Y-135850380D01*
X174738309Y-135850380D01*
X174595452Y-135898000D01*
X174500214Y-135993238D01*
X174452595Y-136088476D01*
X174404976Y-136278952D01*
X174404976Y-136421809D01*
X174452595Y-136612285D01*
X174500214Y-136707523D01*
X174595452Y-136802761D01*
X174738309Y-136850380D01*
X174833547Y-136850380D01*
X174976404Y-136802761D01*
X175024023Y-136755142D01*
X175024023Y-136421809D01*
X174833547Y-136421809D01*
X175452595Y-136850380D02*
X175452595Y-135850380D01*
X176024023Y-136850380D01*
X176024023Y-135850380D01*
X176500214Y-136850380D02*
X176500214Y-135850380D01*
X176738309Y-135850380D01*
X176881166Y-135898000D01*
X176976404Y-135993238D01*
X177024023Y-136088476D01*
X177071642Y-136278952D01*
X177071642Y-136421809D01*
X177024023Y-136612285D01*
X176976404Y-136707523D01*
X176881166Y-136802761D01*
X176738309Y-136850380D01*
X176500214Y-136850380D01*
X170870714Y-135850380D02*
X171204047Y-136850380D01*
X171537380Y-135850380D01*
X171727857Y-135850380D02*
X172299285Y-135850380D01*
X172013571Y-136850380D02*
X172013571Y-135850380D01*
X173156428Y-135898000D02*
X173061190Y-135850380D01*
X172918333Y-135850380D01*
X172775476Y-135898000D01*
X172680238Y-135993238D01*
X172632619Y-136088476D01*
X172585000Y-136278952D01*
X172585000Y-136421809D01*
X172632619Y-136612285D01*
X172680238Y-136707523D01*
X172775476Y-136802761D01*
X172918333Y-136850380D01*
X173013571Y-136850380D01*
X173156428Y-136802761D01*
X173204047Y-136755142D01*
X173204047Y-136421809D01*
X173013571Y-136421809D01*
X174976404Y-143518000D02*
X174881166Y-143470380D01*
X174738309Y-143470380D01*
X174595452Y-143518000D01*
X174500214Y-143613238D01*
X174452595Y-143708476D01*
X174404976Y-143898952D01*
X174404976Y-144041809D01*
X174452595Y-144232285D01*
X174500214Y-144327523D01*
X174595452Y-144422761D01*
X174738309Y-144470380D01*
X174833547Y-144470380D01*
X174976404Y-144422761D01*
X175024023Y-144375142D01*
X175024023Y-144041809D01*
X174833547Y-144041809D01*
X175452595Y-144470380D02*
X175452595Y-143470380D01*
X176024023Y-144470380D01*
X176024023Y-143470380D01*
X176500214Y-144470380D02*
X176500214Y-143470380D01*
X176738309Y-143470380D01*
X176881166Y-143518000D01*
X176976404Y-143613238D01*
X177024023Y-143708476D01*
X177071642Y-143898952D01*
X177071642Y-144041809D01*
X177024023Y-144232285D01*
X176976404Y-144327523D01*
X176881166Y-144422761D01*
X176738309Y-144470380D01*
X176500214Y-144470380D01*
X170870714Y-143470380D02*
X171204047Y-144470380D01*
X171537380Y-143470380D01*
X171727857Y-143470380D02*
X172299285Y-143470380D01*
X172013571Y-144470380D02*
X172013571Y-143470380D01*
X173156428Y-143518000D02*
X173061190Y-143470380D01*
X172918333Y-143470380D01*
X172775476Y-143518000D01*
X172680238Y-143613238D01*
X172632619Y-143708476D01*
X172585000Y-143898952D01*
X172585000Y-144041809D01*
X172632619Y-144232285D01*
X172680238Y-144327523D01*
X172775476Y-144422761D01*
X172918333Y-144470380D01*
X173013571Y-144470380D01*
X173156428Y-144422761D01*
X173204047Y-144375142D01*
X173204047Y-144041809D01*
X173013571Y-144041809D01*
X129256404Y-135898000D02*
X129161166Y-135850380D01*
X129018309Y-135850380D01*
X128875452Y-135898000D01*
X128780214Y-135993238D01*
X128732595Y-136088476D01*
X128684976Y-136278952D01*
X128684976Y-136421809D01*
X128732595Y-136612285D01*
X128780214Y-136707523D01*
X128875452Y-136802761D01*
X129018309Y-136850380D01*
X129113547Y-136850380D01*
X129256404Y-136802761D01*
X129304023Y-136755142D01*
X129304023Y-136421809D01*
X129113547Y-136421809D01*
X129732595Y-136850380D02*
X129732595Y-135850380D01*
X130304023Y-136850380D01*
X130304023Y-135850380D01*
X130780214Y-136850380D02*
X130780214Y-135850380D01*
X131018309Y-135850380D01*
X131161166Y-135898000D01*
X131256404Y-135993238D01*
X131304023Y-136088476D01*
X131351642Y-136278952D01*
X131351642Y-136421809D01*
X131304023Y-136612285D01*
X131256404Y-136707523D01*
X131161166Y-136802761D01*
X131018309Y-136850380D01*
X130780214Y-136850380D01*
X125150714Y-135850380D02*
X125484047Y-136850380D01*
X125817380Y-135850380D01*
X126007857Y-135850380D02*
X126579285Y-135850380D01*
X126293571Y-136850380D02*
X126293571Y-135850380D01*
X127436428Y-135898000D02*
X127341190Y-135850380D01*
X127198333Y-135850380D01*
X127055476Y-135898000D01*
X126960238Y-135993238D01*
X126912619Y-136088476D01*
X126865000Y-136278952D01*
X126865000Y-136421809D01*
X126912619Y-136612285D01*
X126960238Y-136707523D01*
X127055476Y-136802761D01*
X127198333Y-136850380D01*
X127293571Y-136850380D01*
X127436428Y-136802761D01*
X127484047Y-136755142D01*
X127484047Y-136421809D01*
X127293571Y-136421809D01*
X129256404Y-143518000D02*
X129161166Y-143470380D01*
X129018309Y-143470380D01*
X128875452Y-143518000D01*
X128780214Y-143613238D01*
X128732595Y-143708476D01*
X128684976Y-143898952D01*
X128684976Y-144041809D01*
X128732595Y-144232285D01*
X128780214Y-144327523D01*
X128875452Y-144422761D01*
X129018309Y-144470380D01*
X129113547Y-144470380D01*
X129256404Y-144422761D01*
X129304023Y-144375142D01*
X129304023Y-144041809D01*
X129113547Y-144041809D01*
X129732595Y-144470380D02*
X129732595Y-143470380D01*
X130304023Y-144470380D01*
X130304023Y-143470380D01*
X130780214Y-144470380D02*
X130780214Y-143470380D01*
X131018309Y-143470380D01*
X131161166Y-143518000D01*
X131256404Y-143613238D01*
X131304023Y-143708476D01*
X131351642Y-143898952D01*
X131351642Y-144041809D01*
X131304023Y-144232285D01*
X131256404Y-144327523D01*
X131161166Y-144422761D01*
X131018309Y-144470380D01*
X130780214Y-144470380D01*
X125150714Y-143470380D02*
X125484047Y-144470380D01*
X125817380Y-143470380D01*
X126007857Y-143470380D02*
X126579285Y-143470380D01*
X126293571Y-144470380D02*
X126293571Y-143470380D01*
X127436428Y-143518000D02*
X127341190Y-143470380D01*
X127198333Y-143470380D01*
X127055476Y-143518000D01*
X126960238Y-143613238D01*
X126912619Y-143708476D01*
X126865000Y-143898952D01*
X126865000Y-144041809D01*
X126912619Y-144232285D01*
X126960238Y-144327523D01*
X127055476Y-144422761D01*
X127198333Y-144470380D01*
X127293571Y-144470380D01*
X127436428Y-144422761D01*
X127484047Y-144375142D01*
X127484047Y-144041809D01*
X127293571Y-144041809D01*
X133818380Y-143962285D02*
X134818380Y-143628952D01*
X133818380Y-143295619D01*
X133818380Y-143105142D02*
X133818380Y-142533714D01*
X134818380Y-142819428D02*
X133818380Y-142819428D01*
X133866000Y-141676571D02*
X133818380Y-141771809D01*
X133818380Y-141914666D01*
X133866000Y-142057523D01*
X133961238Y-142152761D01*
X134056476Y-142200380D01*
X134246952Y-142248000D01*
X134389809Y-142248000D01*
X134580285Y-142200380D01*
X134675523Y-142152761D01*
X134770761Y-142057523D01*
X134818380Y-141914666D01*
X134818380Y-141819428D01*
X134770761Y-141676571D01*
X134723142Y-141628952D01*
X134389809Y-141628952D01*
X134389809Y-141819428D01*
X125563380Y-128460476D02*
X125563380Y-128936666D01*
X126039571Y-128984285D01*
X125991952Y-128936666D01*
X125944333Y-128841428D01*
X125944333Y-128603333D01*
X125991952Y-128508095D01*
X126039571Y-128460476D01*
X126134809Y-128412857D01*
X126372904Y-128412857D01*
X126468142Y-128460476D01*
X126515761Y-128508095D01*
X126563380Y-128603333D01*
X126563380Y-128841428D01*
X126515761Y-128936666D01*
X126468142Y-128984285D01*
X125563380Y-128127142D02*
X126563380Y-127793809D01*
X125563380Y-127460476D01*
X125563380Y-134588095D02*
X125563380Y-133969047D01*
X125944333Y-134302380D01*
X125944333Y-134159523D01*
X125991952Y-134064285D01*
X126039571Y-134016666D01*
X126134809Y-133969047D01*
X126372904Y-133969047D01*
X126468142Y-134016666D01*
X126515761Y-134064285D01*
X126563380Y-134159523D01*
X126563380Y-134445238D01*
X126515761Y-134540476D01*
X126468142Y-134588095D01*
X125563380Y-133683333D02*
X126563380Y-133350000D01*
X125563380Y-133016666D01*
X125563380Y-132778571D02*
X125563380Y-132159523D01*
X125944333Y-132492857D01*
X125944333Y-132350000D01*
X125991952Y-132254761D01*
X126039571Y-132207142D01*
X126134809Y-132159523D01*
X126372904Y-132159523D01*
X126468142Y-132207142D01*
X126515761Y-132254761D01*
X126563380Y-132350000D01*
X126563380Y-132635714D01*
X126515761Y-132730952D01*
X126468142Y-132778571D01*
X167828928Y-126309428D02*
X168590833Y-126309428D01*
X168209880Y-126690380D02*
X168209880Y-125928476D01*
X169543214Y-125690380D02*
X169067023Y-125690380D01*
X169019404Y-126166571D01*
X169067023Y-126118952D01*
X169162261Y-126071333D01*
X169400357Y-126071333D01*
X169495595Y-126118952D01*
X169543214Y-126166571D01*
X169590833Y-126261809D01*
X169590833Y-126499904D01*
X169543214Y-126595142D01*
X169495595Y-126642761D01*
X169400357Y-126690380D01*
X169162261Y-126690380D01*
X169067023Y-126642761D01*
X169019404Y-126595142D01*
X169876547Y-125690380D02*
X170209880Y-126690380D01*
X170543214Y-125690380D01*
X171305119Y-126023714D02*
X171305119Y-126690380D01*
X170876547Y-126023714D02*
X170876547Y-126547523D01*
X170924166Y-126642761D01*
X171019404Y-126690380D01*
X171162261Y-126690380D01*
X171257500Y-126642761D01*
X171305119Y-126595142D01*
X171733690Y-126642761D02*
X171828928Y-126690380D01*
X172019404Y-126690380D01*
X172114642Y-126642761D01*
X172162261Y-126547523D01*
X172162261Y-126499904D01*
X172114642Y-126404666D01*
X172019404Y-126357047D01*
X171876547Y-126357047D01*
X171781309Y-126309428D01*
X171733690Y-126214190D01*
X171733690Y-126166571D01*
X171781309Y-126071333D01*
X171876547Y-126023714D01*
X172019404Y-126023714D01*
X172114642Y-126071333D01*
X172590833Y-126690380D02*
X172590833Y-125690380D01*
X172590833Y-126071333D02*
X172686071Y-126023714D01*
X172876547Y-126023714D01*
X172971785Y-126071333D01*
X173019404Y-126118952D01*
X173067023Y-126214190D01*
X173067023Y-126499904D01*
X173019404Y-126595142D01*
X172971785Y-126642761D01*
X172876547Y-126690380D01*
X172686071Y-126690380D01*
X172590833Y-126642761D01*
X170733690Y-128230380D02*
X171067023Y-129230380D01*
X171400357Y-128230380D01*
X171590833Y-128230380D02*
X172162261Y-128230380D01*
X171876547Y-129230380D02*
X171876547Y-128230380D01*
X173019404Y-128278000D02*
X172924166Y-128230380D01*
X172781309Y-128230380D01*
X172638452Y-128278000D01*
X172543214Y-128373238D01*
X172495595Y-128468476D01*
X172447976Y-128658952D01*
X172447976Y-128801809D01*
X172495595Y-128992285D01*
X172543214Y-129087523D01*
X172638452Y-129182761D01*
X172781309Y-129230380D01*
X172876547Y-129230380D01*
X173019404Y-129182761D01*
X173067023Y-129135142D01*
X173067023Y-128801809D01*
X172876547Y-128801809D01*
X170305119Y-131770380D02*
X169828928Y-131770380D01*
X169828928Y-130770380D01*
X170638452Y-131246571D02*
X170971785Y-131246571D01*
X171114642Y-131770380D02*
X170638452Y-131770380D01*
X170638452Y-130770380D01*
X171114642Y-130770380D01*
X171543214Y-131770380D02*
X171543214Y-130770380D01*
X171781309Y-130770380D01*
X171924166Y-130818000D01*
X172019404Y-130913238D01*
X172067023Y-131008476D01*
X172114642Y-131198952D01*
X172114642Y-131341809D01*
X172067023Y-131532285D01*
X172019404Y-131627523D01*
X171924166Y-131722761D01*
X171781309Y-131770380D01*
X171543214Y-131770380D01*
X172495595Y-130865619D02*
X172543214Y-130818000D01*
X172638452Y-130770380D01*
X172876547Y-130770380D01*
X172971785Y-130818000D01*
X173019404Y-130865619D01*
X173067023Y-130960857D01*
X173067023Y-131056095D01*
X173019404Y-131198952D01*
X172447976Y-131770380D01*
X173067023Y-131770380D01*
X170305119Y-134437380D02*
X169828928Y-134437380D01*
X169828928Y-133437380D01*
X170638452Y-133913571D02*
X170971785Y-133913571D01*
X171114642Y-134437380D02*
X170638452Y-134437380D01*
X170638452Y-133437380D01*
X171114642Y-133437380D01*
X171543214Y-134437380D02*
X171543214Y-133437380D01*
X171781309Y-133437380D01*
X171924166Y-133485000D01*
X172019404Y-133580238D01*
X172067023Y-133675476D01*
X172114642Y-133865952D01*
X172114642Y-134008809D01*
X172067023Y-134199285D01*
X172019404Y-134294523D01*
X171924166Y-134389761D01*
X171781309Y-134437380D01*
X171543214Y-134437380D01*
X173067023Y-134437380D02*
X172495595Y-134437380D01*
X172781309Y-134437380D02*
X172781309Y-133437380D01*
X172686071Y-133580238D01*
X172590833Y-133675476D01*
X172495595Y-133723095D01*
X164234761Y-146146928D02*
X164282380Y-146004071D01*
X164282380Y-145765976D01*
X164234761Y-145670738D01*
X164187142Y-145623119D01*
X164091904Y-145575500D01*
X163996666Y-145575500D01*
X163901428Y-145623119D01*
X163853809Y-145670738D01*
X163806190Y-145765976D01*
X163758571Y-145956452D01*
X163710952Y-146051690D01*
X163663333Y-146099309D01*
X163568095Y-146146928D01*
X163472857Y-146146928D01*
X163377619Y-146099309D01*
X163330000Y-146051690D01*
X163282380Y-145956452D01*
X163282380Y-145718357D01*
X163330000Y-145575500D01*
X164282380Y-145146928D02*
X163282380Y-145146928D01*
X163282380Y-144765976D01*
X163330000Y-144670738D01*
X163377619Y-144623119D01*
X163472857Y-144575500D01*
X163615714Y-144575500D01*
X163710952Y-144623119D01*
X163758571Y-144670738D01*
X163806190Y-144765976D01*
X163806190Y-145146928D01*
X163758571Y-144146928D02*
X163758571Y-143813595D01*
X164282380Y-143670738D02*
X164282380Y-144146928D01*
X163282380Y-144146928D01*
X163282380Y-143670738D01*
X163758571Y-143242166D02*
X163758571Y-142908833D01*
X164282380Y-142765976D02*
X164282380Y-143242166D01*
X163282380Y-143242166D01*
X163282380Y-142765976D01*
X164282380Y-142337404D02*
X163282380Y-142337404D01*
X163282380Y-142099309D01*
X163330000Y-141956452D01*
X163425238Y-141861214D01*
X163520476Y-141813595D01*
X163710952Y-141765976D01*
X163853809Y-141765976D01*
X164044285Y-141813595D01*
X164139523Y-141861214D01*
X164234761Y-141956452D01*
X164282380Y-142099309D01*
X164282380Y-142337404D01*
X168727380Y-144480261D02*
X167727380Y-144480261D01*
X167727380Y-144099309D01*
X167775000Y-144004071D01*
X167822619Y-143956452D01*
X167917857Y-143908833D01*
X168060714Y-143908833D01*
X168155952Y-143956452D01*
X168203571Y-144004071D01*
X168251190Y-144099309D01*
X168251190Y-144480261D01*
X167775000Y-142956452D02*
X167727380Y-143051690D01*
X167727380Y-143194547D01*
X167775000Y-143337404D01*
X167870238Y-143432642D01*
X167965476Y-143480261D01*
X168155952Y-143527880D01*
X168298809Y-143527880D01*
X168489285Y-143480261D01*
X168584523Y-143432642D01*
X168679761Y-143337404D01*
X168727380Y-143194547D01*
X168727380Y-143099309D01*
X168679761Y-142956452D01*
X168632142Y-142908833D01*
X168298809Y-142908833D01*
X168298809Y-143099309D01*
X168727380Y-142480261D02*
X167727380Y-142480261D01*
X168441666Y-142146928D01*
X167727380Y-141813595D01*
X168727380Y-141813595D01*
X159837380Y-143809404D02*
X158837380Y-143809404D01*
X159551666Y-143476071D01*
X158837380Y-143142738D01*
X159837380Y-143142738D01*
X158837380Y-142476071D02*
X158837380Y-142285595D01*
X158885000Y-142190357D01*
X158980238Y-142095119D01*
X159170714Y-142047500D01*
X159504047Y-142047500D01*
X159694523Y-142095119D01*
X159789761Y-142190357D01*
X159837380Y-142285595D01*
X159837380Y-142476071D01*
X159789761Y-142571309D01*
X159694523Y-142666547D01*
X159504047Y-142714166D01*
X159170714Y-142714166D01*
X158980238Y-142666547D01*
X158885000Y-142571309D01*
X158837380Y-142476071D01*
X159789761Y-141666547D02*
X159837380Y-141523690D01*
X159837380Y-141285595D01*
X159789761Y-141190357D01*
X159742142Y-141142738D01*
X159646904Y-141095119D01*
X159551666Y-141095119D01*
X159456428Y-141142738D01*
X159408809Y-141190357D01*
X159361190Y-141285595D01*
X159313571Y-141476071D01*
X159265952Y-141571309D01*
X159218333Y-141618928D01*
X159123095Y-141666547D01*
X159027857Y-141666547D01*
X158932619Y-141618928D01*
X158885000Y-141571309D01*
X158837380Y-141476071D01*
X158837380Y-141237976D01*
X158885000Y-141095119D01*
X159837380Y-140666547D02*
X158837380Y-140666547D01*
X157297380Y-143237976D02*
X156821190Y-143571309D01*
X157297380Y-143809404D02*
X156297380Y-143809404D01*
X156297380Y-143428452D01*
X156345000Y-143333214D01*
X156392619Y-143285595D01*
X156487857Y-143237976D01*
X156630714Y-143237976D01*
X156725952Y-143285595D01*
X156773571Y-143333214D01*
X156821190Y-143428452D01*
X156821190Y-143809404D01*
X157249761Y-142857023D02*
X157297380Y-142714166D01*
X157297380Y-142476071D01*
X157249761Y-142380833D01*
X157202142Y-142333214D01*
X157106904Y-142285595D01*
X157011666Y-142285595D01*
X156916428Y-142333214D01*
X156868809Y-142380833D01*
X156821190Y-142476071D01*
X156773571Y-142666547D01*
X156725952Y-142761785D01*
X156678333Y-142809404D01*
X156583095Y-142857023D01*
X156487857Y-142857023D01*
X156392619Y-142809404D01*
X156345000Y-142761785D01*
X156297380Y-142666547D01*
X156297380Y-142428452D01*
X156345000Y-142285595D01*
X156297380Y-141999880D02*
X156297380Y-141428452D01*
X157297380Y-141714166D02*
X156297380Y-141714166D01*
X154709761Y-143857023D02*
X154757380Y-143714166D01*
X154757380Y-143476071D01*
X154709761Y-143380833D01*
X154662142Y-143333214D01*
X154566904Y-143285595D01*
X154471666Y-143285595D01*
X154376428Y-143333214D01*
X154328809Y-143380833D01*
X154281190Y-143476071D01*
X154233571Y-143666547D01*
X154185952Y-143761785D01*
X154138333Y-143809404D01*
X154043095Y-143857023D01*
X153947857Y-143857023D01*
X153852619Y-143809404D01*
X153805000Y-143761785D01*
X153757380Y-143666547D01*
X153757380Y-143428452D01*
X153805000Y-143285595D01*
X154662142Y-142285595D02*
X154709761Y-142333214D01*
X154757380Y-142476071D01*
X154757380Y-142571309D01*
X154709761Y-142714166D01*
X154614523Y-142809404D01*
X154519285Y-142857023D01*
X154328809Y-142904642D01*
X154185952Y-142904642D01*
X153995476Y-142857023D01*
X153900238Y-142809404D01*
X153805000Y-142714166D01*
X153757380Y-142571309D01*
X153757380Y-142476071D01*
X153805000Y-142333214D01*
X153852619Y-142285595D01*
X154757380Y-141857023D02*
X153757380Y-141857023D01*
X154757380Y-141285595D02*
X154185952Y-141714166D01*
X153757380Y-141285595D02*
X154328809Y-141857023D01*
X152217380Y-143809404D02*
X151217380Y-143809404D01*
X151931666Y-143476071D01*
X151217380Y-143142738D01*
X152217380Y-143142738D01*
X152217380Y-142666547D02*
X151217380Y-142666547D01*
X152169761Y-142237976D02*
X152217380Y-142095119D01*
X152217380Y-141857023D01*
X152169761Y-141761785D01*
X152122142Y-141714166D01*
X152026904Y-141666547D01*
X151931666Y-141666547D01*
X151836428Y-141714166D01*
X151788809Y-141761785D01*
X151741190Y-141857023D01*
X151693571Y-142047500D01*
X151645952Y-142142738D01*
X151598333Y-142190357D01*
X151503095Y-142237976D01*
X151407857Y-142237976D01*
X151312619Y-142190357D01*
X151265000Y-142142738D01*
X151217380Y-142047500D01*
X151217380Y-141809404D01*
X151265000Y-141666547D01*
X151217380Y-141047500D02*
X151217380Y-140857023D01*
X151265000Y-140761785D01*
X151360238Y-140666547D01*
X151550714Y-140618928D01*
X151884047Y-140618928D01*
X152074523Y-140666547D01*
X152169761Y-140761785D01*
X152217380Y-140857023D01*
X152217380Y-141047500D01*
X152169761Y-141142738D01*
X152074523Y-141237976D01*
X151884047Y-141285595D01*
X151550714Y-141285595D01*
X151360238Y-141237976D01*
X151265000Y-141142738D01*
X151217380Y-141047500D01*
X148677380Y-143952261D02*
X149677380Y-143618928D01*
X148677380Y-143285595D01*
X148677380Y-143095119D02*
X148677380Y-142523690D01*
X149677380Y-142809404D02*
X148677380Y-142809404D01*
X148725000Y-141666547D02*
X148677380Y-141761785D01*
X148677380Y-141904642D01*
X148725000Y-142047500D01*
X148820238Y-142142738D01*
X148915476Y-142190357D01*
X149105952Y-142237976D01*
X149248809Y-142237976D01*
X149439285Y-142190357D01*
X149534523Y-142142738D01*
X149629761Y-142047500D01*
X149677380Y-141904642D01*
X149677380Y-141809404D01*
X149629761Y-141666547D01*
X149582142Y-141618928D01*
X149248809Y-141618928D01*
X149248809Y-141809404D01*
X146185000Y-143285595D02*
X146137380Y-143380833D01*
X146137380Y-143523690D01*
X146185000Y-143666547D01*
X146280238Y-143761785D01*
X146375476Y-143809404D01*
X146565952Y-143857023D01*
X146708809Y-143857023D01*
X146899285Y-143809404D01*
X146994523Y-143761785D01*
X147089761Y-143666547D01*
X147137380Y-143523690D01*
X147137380Y-143428452D01*
X147089761Y-143285595D01*
X147042142Y-143237976D01*
X146708809Y-143237976D01*
X146708809Y-143428452D01*
X147137380Y-142809404D02*
X146137380Y-142809404D01*
X147137380Y-142237976D01*
X146137380Y-142237976D01*
X147137380Y-141761785D02*
X146137380Y-141761785D01*
X146137380Y-141523690D01*
X146185000Y-141380833D01*
X146280238Y-141285595D01*
X146375476Y-141237976D01*
X146565952Y-141190357D01*
X146708809Y-141190357D01*
X146899285Y-141237976D01*
X146994523Y-141285595D01*
X147089761Y-141380833D01*
X147137380Y-141523690D01*
X147137380Y-141761785D01*
D12*
G36*
X146788910Y-134529348D02*
G01*
X146867454Y-134529778D01*
X146924298Y-134530942D01*
X146963105Y-134533207D01*
X146987538Y-134536940D01*
X147001262Y-134542506D01*
X147007940Y-134550273D01*
X147011236Y-134560605D01*
X147011556Y-134561943D01*
X147016562Y-134586079D01*
X147025829Y-134633701D01*
X147038392Y-134699741D01*
X147053287Y-134779128D01*
X147069551Y-134866796D01*
X147070119Y-134869875D01*
X147086410Y-134955789D01*
X147101652Y-135031696D01*
X147114861Y-135093045D01*
X147125054Y-135135282D01*
X147131248Y-135153855D01*
X147131543Y-135154184D01*
X147149788Y-135163253D01*
X147187405Y-135178367D01*
X147236271Y-135196262D01*
X147236543Y-135196358D01*
X147298093Y-135219493D01*
X147370657Y-135248965D01*
X147439057Y-135278597D01*
X147442294Y-135280062D01*
X147553702Y-135330626D01*
X147800399Y-135162160D01*
X147876077Y-135110803D01*
X147944631Y-135064889D01*
X148002088Y-135027030D01*
X148044476Y-134999837D01*
X148067825Y-134985921D01*
X148070042Y-134984889D01*
X148087010Y-134989484D01*
X148118701Y-135011655D01*
X148166352Y-135052447D01*
X148231198Y-135112905D01*
X148297397Y-135177227D01*
X148361214Y-135240612D01*
X148418329Y-135298451D01*
X148465305Y-135347175D01*
X148498703Y-135383210D01*
X148515085Y-135402984D01*
X148515694Y-135404002D01*
X148517505Y-135417572D01*
X148510683Y-135439733D01*
X148493540Y-135473478D01*
X148464393Y-135521800D01*
X148421555Y-135587692D01*
X148364448Y-135672517D01*
X148313766Y-135747177D01*
X148268461Y-135814140D01*
X148231150Y-135869516D01*
X148204452Y-135909420D01*
X148190985Y-135929962D01*
X148190137Y-135931356D01*
X148191781Y-135951038D01*
X148204245Y-135989293D01*
X148225048Y-136038889D01*
X148232462Y-136054728D01*
X148264814Y-136125290D01*
X148299328Y-136205353D01*
X148327365Y-136274629D01*
X148347568Y-136326045D01*
X148363615Y-136365119D01*
X148372888Y-136385541D01*
X148374041Y-136387114D01*
X148391096Y-136389721D01*
X148431298Y-136396863D01*
X148489302Y-136407523D01*
X148559763Y-136420685D01*
X148637335Y-136435333D01*
X148716672Y-136450449D01*
X148792431Y-136465018D01*
X148859264Y-136478022D01*
X148911828Y-136488445D01*
X148944776Y-136495270D01*
X148952857Y-136497199D01*
X148961205Y-136501962D01*
X148967506Y-136512718D01*
X148972045Y-136533098D01*
X148975104Y-136566734D01*
X148976967Y-136617255D01*
X148977918Y-136688292D01*
X148978240Y-136783476D01*
X148978257Y-136822492D01*
X148978257Y-137139799D01*
X148902057Y-137154839D01*
X148859663Y-137162995D01*
X148796400Y-137174899D01*
X148719962Y-137189116D01*
X148638043Y-137204210D01*
X148615400Y-137208355D01*
X148539806Y-137223053D01*
X148473953Y-137237505D01*
X148423366Y-137250375D01*
X148393574Y-137260322D01*
X148388612Y-137263287D01*
X148376426Y-137284283D01*
X148358953Y-137324967D01*
X148339577Y-137377322D01*
X148335734Y-137388600D01*
X148310339Y-137458523D01*
X148278817Y-137537418D01*
X148247969Y-137608266D01*
X148247817Y-137608595D01*
X148196447Y-137719733D01*
X148365399Y-137968253D01*
X148534352Y-138216772D01*
X148317429Y-138434058D01*
X148251819Y-138498726D01*
X148191979Y-138555733D01*
X148141267Y-138602033D01*
X148103046Y-138634584D01*
X148080675Y-138650343D01*
X148077466Y-138651343D01*
X148058626Y-138643469D01*
X148020180Y-138621578D01*
X147966330Y-138588267D01*
X147901276Y-138546131D01*
X147830940Y-138498943D01*
X147759555Y-138450810D01*
X147695908Y-138408928D01*
X147644041Y-138375871D01*
X147607995Y-138354218D01*
X147591867Y-138346543D01*
X147572189Y-138353037D01*
X147534875Y-138370150D01*
X147487621Y-138394326D01*
X147482612Y-138397013D01*
X147418977Y-138428927D01*
X147375341Y-138444579D01*
X147348202Y-138444745D01*
X147334057Y-138430204D01*
X147333975Y-138430000D01*
X147326905Y-138412779D01*
X147310042Y-138371899D01*
X147284695Y-138310525D01*
X147252171Y-138231819D01*
X147213778Y-138138947D01*
X147170822Y-138035072D01*
X147129222Y-137934502D01*
X147083504Y-137823516D01*
X147041526Y-137720703D01*
X147004548Y-137629215D01*
X146973827Y-137552201D01*
X146950622Y-137492815D01*
X146936190Y-137454209D01*
X146931743Y-137439800D01*
X146942896Y-137423272D01*
X146972069Y-137396930D01*
X147010971Y-137367887D01*
X147121757Y-137276039D01*
X147208351Y-137170759D01*
X147269716Y-137054266D01*
X147304815Y-136928776D01*
X147312608Y-136796507D01*
X147306943Y-136735457D01*
X147276078Y-136608795D01*
X147222920Y-136496941D01*
X147150767Y-136401001D01*
X147062917Y-136322076D01*
X146962665Y-136261270D01*
X146853310Y-136219687D01*
X146738147Y-136198428D01*
X146620475Y-136198599D01*
X146503590Y-136221301D01*
X146390789Y-136267638D01*
X146285369Y-136338713D01*
X146241368Y-136378911D01*
X146156979Y-136482129D01*
X146098222Y-136594925D01*
X146064704Y-136714010D01*
X146056035Y-136836095D01*
X146071823Y-136957893D01*
X146111678Y-137076116D01*
X146175207Y-137187475D01*
X146262021Y-137288684D01*
X146359029Y-137367887D01*
X146399437Y-137398162D01*
X146427982Y-137424219D01*
X146438257Y-137439825D01*
X146432877Y-137456843D01*
X146417575Y-137497500D01*
X146393612Y-137558642D01*
X146362244Y-137637119D01*
X146324732Y-137729780D01*
X146282333Y-137833472D01*
X146240663Y-137934526D01*
X146194690Y-138045607D01*
X146152107Y-138148541D01*
X146114221Y-138240165D01*
X146082340Y-138317316D01*
X146057771Y-138376831D01*
X146041820Y-138415544D01*
X146035910Y-138430000D01*
X146021948Y-138444685D01*
X145994940Y-138444642D01*
X145951413Y-138429099D01*
X145887890Y-138397284D01*
X145887388Y-138397013D01*
X145839560Y-138372323D01*
X145800897Y-138354338D01*
X145779095Y-138346614D01*
X145778133Y-138346543D01*
X145761721Y-138354378D01*
X145725487Y-138376165D01*
X145673474Y-138409328D01*
X145609725Y-138451291D01*
X145539060Y-138498943D01*
X145467116Y-138547191D01*
X145402274Y-138589151D01*
X145348735Y-138622227D01*
X145310697Y-138643821D01*
X145292533Y-138651343D01*
X145275808Y-138641457D01*
X145242180Y-138613826D01*
X145195010Y-138571495D01*
X145137658Y-138517505D01*
X145073484Y-138454899D01*
X145052497Y-138433983D01*
X144835499Y-138216623D01*
X145000668Y-137974220D01*
X145050864Y-137899781D01*
X145094919Y-137832972D01*
X145130362Y-137777665D01*
X145154719Y-137737729D01*
X145165522Y-137717036D01*
X145165838Y-137715563D01*
X145160143Y-137696058D01*
X145144826Y-137656822D01*
X145122537Y-137604430D01*
X145106893Y-137569355D01*
X145077641Y-137502201D01*
X145050094Y-137434358D01*
X145028737Y-137377034D01*
X145022935Y-137359572D01*
X145006452Y-137312938D01*
X144990340Y-137276905D01*
X144981490Y-137263287D01*
X144961960Y-137254952D01*
X144919334Y-137243137D01*
X144859145Y-137229181D01*
X144786922Y-137214422D01*
X144754600Y-137208355D01*
X144672522Y-137193273D01*
X144593795Y-137178669D01*
X144526109Y-137165980D01*
X144477160Y-137156642D01*
X144467943Y-137154839D01*
X144391743Y-137139799D01*
X144391743Y-136822492D01*
X144391914Y-136718154D01*
X144392616Y-136639213D01*
X144394134Y-136582038D01*
X144396749Y-136542999D01*
X144400746Y-136518465D01*
X144406409Y-136504805D01*
X144414020Y-136498389D01*
X144417143Y-136497199D01*
X144435978Y-136492980D01*
X144477588Y-136484562D01*
X144536630Y-136472961D01*
X144607757Y-136459195D01*
X144685625Y-136444280D01*
X144764887Y-136429232D01*
X144840198Y-136415069D01*
X144906213Y-136402806D01*
X144957587Y-136393461D01*
X144988975Y-136388050D01*
X144995959Y-136387114D01*
X145002285Y-136374596D01*
X145016290Y-136341246D01*
X145035355Y-136293377D01*
X145042634Y-136274629D01*
X145071996Y-136202195D01*
X145106571Y-136122170D01*
X145137537Y-136054728D01*
X145160323Y-136003159D01*
X145175482Y-135960785D01*
X145180542Y-135934834D01*
X145179736Y-135931356D01*
X145169041Y-135914936D01*
X145144620Y-135878417D01*
X145109095Y-135825687D01*
X145065087Y-135760635D01*
X145015217Y-135687151D01*
X145005356Y-135672645D01*
X144947492Y-135586704D01*
X144904956Y-135521261D01*
X144876054Y-135473304D01*
X144859090Y-135439820D01*
X144852367Y-135417795D01*
X144854190Y-135404217D01*
X144854236Y-135404131D01*
X144868586Y-135386297D01*
X144900323Y-135351817D01*
X144946010Y-135304268D01*
X145002204Y-135247222D01*
X145065468Y-135184255D01*
X145072602Y-135177227D01*
X145152330Y-135100020D01*
X145213857Y-135043330D01*
X145258421Y-135006110D01*
X145287257Y-134987315D01*
X145299958Y-134984889D01*
X145318494Y-134995471D01*
X145356961Y-135019916D01*
X145411386Y-135055612D01*
X145477798Y-135099947D01*
X145552225Y-135150311D01*
X145569601Y-135162160D01*
X145816297Y-135330626D01*
X145927706Y-135280062D01*
X145995457Y-135250595D01*
X146068183Y-135220959D01*
X146130703Y-135197330D01*
X146133457Y-135196358D01*
X146182360Y-135178457D01*
X146220057Y-135163320D01*
X146238425Y-135154210D01*
X146238456Y-135154184D01*
X146244285Y-135137717D01*
X146254192Y-135097219D01*
X146267195Y-135037242D01*
X146282309Y-134962340D01*
X146298552Y-134877064D01*
X146299881Y-134869875D01*
X146316175Y-134782014D01*
X146331133Y-134702260D01*
X146343791Y-134635681D01*
X146353186Y-134587347D01*
X146358354Y-134562325D01*
X146358444Y-134561943D01*
X146361589Y-134551299D01*
X146367704Y-134543262D01*
X146380453Y-134537467D01*
X146403500Y-134533547D01*
X146440509Y-134531135D01*
X146495144Y-134529865D01*
X146571067Y-134529371D01*
X146671944Y-134529286D01*
X146685000Y-134529286D01*
X146788910Y-134529348D01*
X146788910Y-134529348D01*
G37*
X146788910Y-134529348D02*
X146867454Y-134529778D01*
X146924298Y-134530942D01*
X146963105Y-134533207D01*
X146987538Y-134536940D01*
X147001262Y-134542506D01*
X147007940Y-134550273D01*
X147011236Y-134560605D01*
X147011556Y-134561943D01*
X147016562Y-134586079D01*
X147025829Y-134633701D01*
X147038392Y-134699741D01*
X147053287Y-134779128D01*
X147069551Y-134866796D01*
X147070119Y-134869875D01*
X147086410Y-134955789D01*
X147101652Y-135031696D01*
X147114861Y-135093045D01*
X147125054Y-135135282D01*
X147131248Y-135153855D01*
X147131543Y-135154184D01*
X147149788Y-135163253D01*
X147187405Y-135178367D01*
X147236271Y-135196262D01*
X147236543Y-135196358D01*
X147298093Y-135219493D01*
X147370657Y-135248965D01*
X147439057Y-135278597D01*
X147442294Y-135280062D01*
X147553702Y-135330626D01*
X147800399Y-135162160D01*
X147876077Y-135110803D01*
X147944631Y-135064889D01*
X148002088Y-135027030D01*
X148044476Y-134999837D01*
X148067825Y-134985921D01*
X148070042Y-134984889D01*
X148087010Y-134989484D01*
X148118701Y-135011655D01*
X148166352Y-135052447D01*
X148231198Y-135112905D01*
X148297397Y-135177227D01*
X148361214Y-135240612D01*
X148418329Y-135298451D01*
X148465305Y-135347175D01*
X148498703Y-135383210D01*
X148515085Y-135402984D01*
X148515694Y-135404002D01*
X148517505Y-135417572D01*
X148510683Y-135439733D01*
X148493540Y-135473478D01*
X148464393Y-135521800D01*
X148421555Y-135587692D01*
X148364448Y-135672517D01*
X148313766Y-135747177D01*
X148268461Y-135814140D01*
X148231150Y-135869516D01*
X148204452Y-135909420D01*
X148190985Y-135929962D01*
X148190137Y-135931356D01*
X148191781Y-135951038D01*
X148204245Y-135989293D01*
X148225048Y-136038889D01*
X148232462Y-136054728D01*
X148264814Y-136125290D01*
X148299328Y-136205353D01*
X148327365Y-136274629D01*
X148347568Y-136326045D01*
X148363615Y-136365119D01*
X148372888Y-136385541D01*
X148374041Y-136387114D01*
X148391096Y-136389721D01*
X148431298Y-136396863D01*
X148489302Y-136407523D01*
X148559763Y-136420685D01*
X148637335Y-136435333D01*
X148716672Y-136450449D01*
X148792431Y-136465018D01*
X148859264Y-136478022D01*
X148911828Y-136488445D01*
X148944776Y-136495270D01*
X148952857Y-136497199D01*
X148961205Y-136501962D01*
X148967506Y-136512718D01*
X148972045Y-136533098D01*
X148975104Y-136566734D01*
X148976967Y-136617255D01*
X148977918Y-136688292D01*
X148978240Y-136783476D01*
X148978257Y-136822492D01*
X148978257Y-137139799D01*
X148902057Y-137154839D01*
X148859663Y-137162995D01*
X148796400Y-137174899D01*
X148719962Y-137189116D01*
X148638043Y-137204210D01*
X148615400Y-137208355D01*
X148539806Y-137223053D01*
X148473953Y-137237505D01*
X148423366Y-137250375D01*
X148393574Y-137260322D01*
X148388612Y-137263287D01*
X148376426Y-137284283D01*
X148358953Y-137324967D01*
X148339577Y-137377322D01*
X148335734Y-137388600D01*
X148310339Y-137458523D01*
X148278817Y-137537418D01*
X148247969Y-137608266D01*
X148247817Y-137608595D01*
X148196447Y-137719733D01*
X148365399Y-137968253D01*
X148534352Y-138216772D01*
X148317429Y-138434058D01*
X148251819Y-138498726D01*
X148191979Y-138555733D01*
X148141267Y-138602033D01*
X148103046Y-138634584D01*
X148080675Y-138650343D01*
X148077466Y-138651343D01*
X148058626Y-138643469D01*
X148020180Y-138621578D01*
X147966330Y-138588267D01*
X147901276Y-138546131D01*
X147830940Y-138498943D01*
X147759555Y-138450810D01*
X147695908Y-138408928D01*
X147644041Y-138375871D01*
X147607995Y-138354218D01*
X147591867Y-138346543D01*
X147572189Y-138353037D01*
X147534875Y-138370150D01*
X147487621Y-138394326D01*
X147482612Y-138397013D01*
X147418977Y-138428927D01*
X147375341Y-138444579D01*
X147348202Y-138444745D01*
X147334057Y-138430204D01*
X147333975Y-138430000D01*
X147326905Y-138412779D01*
X147310042Y-138371899D01*
X147284695Y-138310525D01*
X147252171Y-138231819D01*
X147213778Y-138138947D01*
X147170822Y-138035072D01*
X147129222Y-137934502D01*
X147083504Y-137823516D01*
X147041526Y-137720703D01*
X147004548Y-137629215D01*
X146973827Y-137552201D01*
X146950622Y-137492815D01*
X146936190Y-137454209D01*
X146931743Y-137439800D01*
X146942896Y-137423272D01*
X146972069Y-137396930D01*
X147010971Y-137367887D01*
X147121757Y-137276039D01*
X147208351Y-137170759D01*
X147269716Y-137054266D01*
X147304815Y-136928776D01*
X147312608Y-136796507D01*
X147306943Y-136735457D01*
X147276078Y-136608795D01*
X147222920Y-136496941D01*
X147150767Y-136401001D01*
X147062917Y-136322076D01*
X146962665Y-136261270D01*
X146853310Y-136219687D01*
X146738147Y-136198428D01*
X146620475Y-136198599D01*
X146503590Y-136221301D01*
X146390789Y-136267638D01*
X146285369Y-136338713D01*
X146241368Y-136378911D01*
X146156979Y-136482129D01*
X146098222Y-136594925D01*
X146064704Y-136714010D01*
X146056035Y-136836095D01*
X146071823Y-136957893D01*
X146111678Y-137076116D01*
X146175207Y-137187475D01*
X146262021Y-137288684D01*
X146359029Y-137367887D01*
X146399437Y-137398162D01*
X146427982Y-137424219D01*
X146438257Y-137439825D01*
X146432877Y-137456843D01*
X146417575Y-137497500D01*
X146393612Y-137558642D01*
X146362244Y-137637119D01*
X146324732Y-137729780D01*
X146282333Y-137833472D01*
X146240663Y-137934526D01*
X146194690Y-138045607D01*
X146152107Y-138148541D01*
X146114221Y-138240165D01*
X146082340Y-138317316D01*
X146057771Y-138376831D01*
X146041820Y-138415544D01*
X146035910Y-138430000D01*
X146021948Y-138444685D01*
X145994940Y-138444642D01*
X145951413Y-138429099D01*
X145887890Y-138397284D01*
X145887388Y-138397013D01*
X145839560Y-138372323D01*
X145800897Y-138354338D01*
X145779095Y-138346614D01*
X145778133Y-138346543D01*
X145761721Y-138354378D01*
X145725487Y-138376165D01*
X145673474Y-138409328D01*
X145609725Y-138451291D01*
X145539060Y-138498943D01*
X145467116Y-138547191D01*
X145402274Y-138589151D01*
X145348735Y-138622227D01*
X145310697Y-138643821D01*
X145292533Y-138651343D01*
X145275808Y-138641457D01*
X145242180Y-138613826D01*
X145195010Y-138571495D01*
X145137658Y-138517505D01*
X145073484Y-138454899D01*
X145052497Y-138433983D01*
X144835499Y-138216623D01*
X145000668Y-137974220D01*
X145050864Y-137899781D01*
X145094919Y-137832972D01*
X145130362Y-137777665D01*
X145154719Y-137737729D01*
X145165522Y-137717036D01*
X145165838Y-137715563D01*
X145160143Y-137696058D01*
X145144826Y-137656822D01*
X145122537Y-137604430D01*
X145106893Y-137569355D01*
X145077641Y-137502201D01*
X145050094Y-137434358D01*
X145028737Y-137377034D01*
X145022935Y-137359572D01*
X145006452Y-137312938D01*
X144990340Y-137276905D01*
X144981490Y-137263287D01*
X144961960Y-137254952D01*
X144919334Y-137243137D01*
X144859145Y-137229181D01*
X144786922Y-137214422D01*
X144754600Y-137208355D01*
X144672522Y-137193273D01*
X144593795Y-137178669D01*
X144526109Y-137165980D01*
X144477160Y-137156642D01*
X144467943Y-137154839D01*
X144391743Y-137139799D01*
X144391743Y-136822492D01*
X144391914Y-136718154D01*
X144392616Y-136639213D01*
X144394134Y-136582038D01*
X144396749Y-136542999D01*
X144400746Y-136518465D01*
X144406409Y-136504805D01*
X144414020Y-136498389D01*
X144417143Y-136497199D01*
X144435978Y-136492980D01*
X144477588Y-136484562D01*
X144536630Y-136472961D01*
X144607757Y-136459195D01*
X144685625Y-136444280D01*
X144764887Y-136429232D01*
X144840198Y-136415069D01*
X144906213Y-136402806D01*
X144957587Y-136393461D01*
X144988975Y-136388050D01*
X144995959Y-136387114D01*
X145002285Y-136374596D01*
X145016290Y-136341246D01*
X145035355Y-136293377D01*
X145042634Y-136274629D01*
X145071996Y-136202195D01*
X145106571Y-136122170D01*
X145137537Y-136054728D01*
X145160323Y-136003159D01*
X145175482Y-135960785D01*
X145180542Y-135934834D01*
X145179736Y-135931356D01*
X145169041Y-135914936D01*
X145144620Y-135878417D01*
X145109095Y-135825687D01*
X145065087Y-135760635D01*
X145015217Y-135687151D01*
X145005356Y-135672645D01*
X144947492Y-135586704D01*
X144904956Y-135521261D01*
X144876054Y-135473304D01*
X144859090Y-135439820D01*
X144852367Y-135417795D01*
X144854190Y-135404217D01*
X144854236Y-135404131D01*
X144868586Y-135386297D01*
X144900323Y-135351817D01*
X144946010Y-135304268D01*
X145002204Y-135247222D01*
X145065468Y-135184255D01*
X145072602Y-135177227D01*
X145152330Y-135100020D01*
X145213857Y-135043330D01*
X145258421Y-135006110D01*
X145287257Y-134987315D01*
X145299958Y-134984889D01*
X145318494Y-134995471D01*
X145356961Y-135019916D01*
X145411386Y-135055612D01*
X145477798Y-135099947D01*
X145552225Y-135150311D01*
X145569601Y-135162160D01*
X145816297Y-135330626D01*
X145927706Y-135280062D01*
X145995457Y-135250595D01*
X146068183Y-135220959D01*
X146130703Y-135197330D01*
X146133457Y-135196358D01*
X146182360Y-135178457D01*
X146220057Y-135163320D01*
X146238425Y-135154210D01*
X146238456Y-135154184D01*
X146244285Y-135137717D01*
X146254192Y-135097219D01*
X146267195Y-135037242D01*
X146282309Y-134962340D01*
X146298552Y-134877064D01*
X146299881Y-134869875D01*
X146316175Y-134782014D01*
X146331133Y-134702260D01*
X146343791Y-134635681D01*
X146353186Y-134587347D01*
X146358354Y-134562325D01*
X146358444Y-134561943D01*
X146361589Y-134551299D01*
X146367704Y-134543262D01*
X146380453Y-134537467D01*
X146403500Y-134533547D01*
X146440509Y-134531135D01*
X146495144Y-134529865D01*
X146571067Y-134529371D01*
X146671944Y-134529286D01*
X146685000Y-134529286D01*
X146788910Y-134529348D01*
G36*
X149838595Y-139253966D02*
G01*
X149896021Y-139291497D01*
X149923719Y-139325096D01*
X149945662Y-139386064D01*
X149947405Y-139434308D01*
X149943457Y-139498816D01*
X149794686Y-139563934D01*
X149722349Y-139597202D01*
X149675084Y-139623964D01*
X149650507Y-139647144D01*
X149646237Y-139669667D01*
X149659889Y-139694455D01*
X149674943Y-139710886D01*
X149718746Y-139737235D01*
X149766389Y-139739081D01*
X149810145Y-139718546D01*
X149842289Y-139677752D01*
X149848038Y-139663347D01*
X149875576Y-139618356D01*
X149907258Y-139599182D01*
X149950714Y-139582779D01*
X149950714Y-139644966D01*
X149946872Y-139687283D01*
X149931823Y-139722969D01*
X149900280Y-139763943D01*
X149895592Y-139769267D01*
X149860506Y-139805720D01*
X149830347Y-139825283D01*
X149792615Y-139834283D01*
X149761335Y-139837230D01*
X149705385Y-139837965D01*
X149665555Y-139828660D01*
X149640708Y-139814846D01*
X149601656Y-139784467D01*
X149574625Y-139751613D01*
X149557517Y-139710294D01*
X149548238Y-139654521D01*
X149544693Y-139578305D01*
X149544410Y-139539622D01*
X149545372Y-139493247D01*
X149633007Y-139493247D01*
X149634023Y-139518126D01*
X149636556Y-139522200D01*
X149653274Y-139516665D01*
X149689249Y-139502017D01*
X149737331Y-139481190D01*
X149747386Y-139476714D01*
X149808152Y-139445814D01*
X149841632Y-139418657D01*
X149848990Y-139393220D01*
X149831391Y-139367481D01*
X149816856Y-139356109D01*
X149764410Y-139333364D01*
X149715322Y-139337122D01*
X149674227Y-139364884D01*
X149645758Y-139414152D01*
X149636631Y-139453257D01*
X149633007Y-139493247D01*
X149545372Y-139493247D01*
X149546285Y-139449249D01*
X149553196Y-139382384D01*
X149566884Y-139333695D01*
X149589096Y-139297849D01*
X149621574Y-139269513D01*
X149635733Y-139260355D01*
X149700053Y-139236507D01*
X149770473Y-139235006D01*
X149838595Y-139253966D01*
X149838595Y-139253966D01*
G37*
X149838595Y-139253966D02*
X149896021Y-139291497D01*
X149923719Y-139325096D01*
X149945662Y-139386064D01*
X149947405Y-139434308D01*
X149943457Y-139498816D01*
X149794686Y-139563934D01*
X149722349Y-139597202D01*
X149675084Y-139623964D01*
X149650507Y-139647144D01*
X149646237Y-139669667D01*
X149659889Y-139694455D01*
X149674943Y-139710886D01*
X149718746Y-139737235D01*
X149766389Y-139739081D01*
X149810145Y-139718546D01*
X149842289Y-139677752D01*
X149848038Y-139663347D01*
X149875576Y-139618356D01*
X149907258Y-139599182D01*
X149950714Y-139582779D01*
X149950714Y-139644966D01*
X149946872Y-139687283D01*
X149931823Y-139722969D01*
X149900280Y-139763943D01*
X149895592Y-139769267D01*
X149860506Y-139805720D01*
X149830347Y-139825283D01*
X149792615Y-139834283D01*
X149761335Y-139837230D01*
X149705385Y-139837965D01*
X149665555Y-139828660D01*
X149640708Y-139814846D01*
X149601656Y-139784467D01*
X149574625Y-139751613D01*
X149557517Y-139710294D01*
X149548238Y-139654521D01*
X149544693Y-139578305D01*
X149544410Y-139539622D01*
X149545372Y-139493247D01*
X149633007Y-139493247D01*
X149634023Y-139518126D01*
X149636556Y-139522200D01*
X149653274Y-139516665D01*
X149689249Y-139502017D01*
X149737331Y-139481190D01*
X149747386Y-139476714D01*
X149808152Y-139445814D01*
X149841632Y-139418657D01*
X149848990Y-139393220D01*
X149831391Y-139367481D01*
X149816856Y-139356109D01*
X149764410Y-139333364D01*
X149715322Y-139337122D01*
X149674227Y-139364884D01*
X149645758Y-139414152D01*
X149636631Y-139453257D01*
X149633007Y-139493247D01*
X149545372Y-139493247D01*
X149546285Y-139449249D01*
X149553196Y-139382384D01*
X149566884Y-139333695D01*
X149589096Y-139297849D01*
X149621574Y-139269513D01*
X149635733Y-139260355D01*
X149700053Y-139236507D01*
X149770473Y-139235006D01*
X149838595Y-139253966D01*
G36*
X149337600Y-139245752D02*
G01*
X149354948Y-139253334D01*
X149396356Y-139286128D01*
X149431765Y-139333547D01*
X149453664Y-139384151D01*
X149457229Y-139409098D01*
X149445279Y-139443927D01*
X149419067Y-139462357D01*
X149390964Y-139473516D01*
X149378095Y-139475572D01*
X149371829Y-139460649D01*
X149359456Y-139428175D01*
X149354028Y-139413502D01*
X149323590Y-139362744D01*
X149279520Y-139337427D01*
X149223010Y-139338206D01*
X149218825Y-139339203D01*
X149188655Y-139353507D01*
X149166476Y-139381393D01*
X149151327Y-139426287D01*
X149142250Y-139491615D01*
X149138286Y-139580804D01*
X149137914Y-139628261D01*
X149137730Y-139703071D01*
X149136522Y-139754069D01*
X149133309Y-139786471D01*
X149127109Y-139805495D01*
X149116940Y-139816356D01*
X149101819Y-139824272D01*
X149100946Y-139824670D01*
X149071828Y-139836981D01*
X149057403Y-139841514D01*
X149055186Y-139827809D01*
X149053289Y-139789925D01*
X149051847Y-139732715D01*
X149050998Y-139661027D01*
X149050829Y-139608565D01*
X149051692Y-139507047D01*
X149055070Y-139430032D01*
X149062142Y-139373023D01*
X149074088Y-139331526D01*
X149092090Y-139301043D01*
X149117327Y-139277080D01*
X149142247Y-139260355D01*
X149202171Y-139238097D01*
X149271911Y-139233076D01*
X149337600Y-139245752D01*
X149337600Y-139245752D01*
G37*
X149337600Y-139245752D02*
X149354948Y-139253334D01*
X149396356Y-139286128D01*
X149431765Y-139333547D01*
X149453664Y-139384151D01*
X149457229Y-139409098D01*
X149445279Y-139443927D01*
X149419067Y-139462357D01*
X149390964Y-139473516D01*
X149378095Y-139475572D01*
X149371829Y-139460649D01*
X149359456Y-139428175D01*
X149354028Y-139413502D01*
X149323590Y-139362744D01*
X149279520Y-139337427D01*
X149223010Y-139338206D01*
X149218825Y-139339203D01*
X149188655Y-139353507D01*
X149166476Y-139381393D01*
X149151327Y-139426287D01*
X149142250Y-139491615D01*
X149138286Y-139580804D01*
X149137914Y-139628261D01*
X149137730Y-139703071D01*
X149136522Y-139754069D01*
X149133309Y-139786471D01*
X149127109Y-139805495D01*
X149116940Y-139816356D01*
X149101819Y-139824272D01*
X149100946Y-139824670D01*
X149071828Y-139836981D01*
X149057403Y-139841514D01*
X149055186Y-139827809D01*
X149053289Y-139789925D01*
X149051847Y-139732715D01*
X149050998Y-139661027D01*
X149050829Y-139608565D01*
X149051692Y-139507047D01*
X149055070Y-139430032D01*
X149062142Y-139373023D01*
X149074088Y-139331526D01*
X149092090Y-139301043D01*
X149117327Y-139277080D01*
X149142247Y-139260355D01*
X149202171Y-139238097D01*
X149271911Y-139233076D01*
X149337600Y-139245752D01*
G36*
X148829876Y-139243335D02*
G01*
X148871667Y-139262344D01*
X148904469Y-139285378D01*
X148928503Y-139311133D01*
X148945097Y-139344358D01*
X148955577Y-139389800D01*
X148961271Y-139452207D01*
X148963507Y-139536327D01*
X148963743Y-139591721D01*
X148963743Y-139807826D01*
X148926774Y-139824670D01*
X148897656Y-139836981D01*
X148883231Y-139841514D01*
X148880472Y-139828025D01*
X148878282Y-139791653D01*
X148876942Y-139738542D01*
X148876657Y-139696372D01*
X148875434Y-139635447D01*
X148872136Y-139587115D01*
X148867321Y-139557518D01*
X148863496Y-139551229D01*
X148837783Y-139557652D01*
X148797418Y-139574125D01*
X148750679Y-139596458D01*
X148705845Y-139620457D01*
X148671193Y-139641930D01*
X148655002Y-139656685D01*
X148654938Y-139656845D01*
X148656330Y-139684152D01*
X148668818Y-139710219D01*
X148690743Y-139731392D01*
X148722743Y-139738474D01*
X148750092Y-139737649D01*
X148788826Y-139737042D01*
X148809158Y-139746116D01*
X148821369Y-139770092D01*
X148822909Y-139774613D01*
X148828203Y-139808806D01*
X148814047Y-139829568D01*
X148777148Y-139839462D01*
X148737289Y-139841292D01*
X148665562Y-139827727D01*
X148628432Y-139808355D01*
X148582576Y-139762845D01*
X148558256Y-139706983D01*
X148556073Y-139647957D01*
X148576629Y-139592953D01*
X148607549Y-139558486D01*
X148638420Y-139539189D01*
X148686942Y-139514759D01*
X148743485Y-139489985D01*
X148752910Y-139486199D01*
X148815019Y-139458791D01*
X148850822Y-139434634D01*
X148862337Y-139410619D01*
X148851580Y-139383635D01*
X148833114Y-139362543D01*
X148789469Y-139336572D01*
X148741446Y-139334624D01*
X148697406Y-139354637D01*
X148665709Y-139394551D01*
X148661549Y-139404848D01*
X148637327Y-139442724D01*
X148601965Y-139470842D01*
X148557343Y-139493917D01*
X148557343Y-139428485D01*
X148559969Y-139388506D01*
X148571230Y-139356997D01*
X148596199Y-139323378D01*
X148620169Y-139297484D01*
X148657441Y-139260817D01*
X148686401Y-139241121D01*
X148717505Y-139233220D01*
X148752713Y-139231914D01*
X148829876Y-139243335D01*
X148829876Y-139243335D01*
G37*
X148829876Y-139243335D02*
X148871667Y-139262344D01*
X148904469Y-139285378D01*
X148928503Y-139311133D01*
X148945097Y-139344358D01*
X148955577Y-139389800D01*
X148961271Y-139452207D01*
X148963507Y-139536327D01*
X148963743Y-139591721D01*
X148963743Y-139807826D01*
X148926774Y-139824670D01*
X148897656Y-139836981D01*
X148883231Y-139841514D01*
X148880472Y-139828025D01*
X148878282Y-139791653D01*
X148876942Y-139738542D01*
X148876657Y-139696372D01*
X148875434Y-139635447D01*
X148872136Y-139587115D01*
X148867321Y-139557518D01*
X148863496Y-139551229D01*
X148837783Y-139557652D01*
X148797418Y-139574125D01*
X148750679Y-139596458D01*
X148705845Y-139620457D01*
X148671193Y-139641930D01*
X148655002Y-139656685D01*
X148654938Y-139656845D01*
X148656330Y-139684152D01*
X148668818Y-139710219D01*
X148690743Y-139731392D01*
X148722743Y-139738474D01*
X148750092Y-139737649D01*
X148788826Y-139737042D01*
X148809158Y-139746116D01*
X148821369Y-139770092D01*
X148822909Y-139774613D01*
X148828203Y-139808806D01*
X148814047Y-139829568D01*
X148777148Y-139839462D01*
X148737289Y-139841292D01*
X148665562Y-139827727D01*
X148628432Y-139808355D01*
X148582576Y-139762845D01*
X148558256Y-139706983D01*
X148556073Y-139647957D01*
X148576629Y-139592953D01*
X148607549Y-139558486D01*
X148638420Y-139539189D01*
X148686942Y-139514759D01*
X148743485Y-139489985D01*
X148752910Y-139486199D01*
X148815019Y-139458791D01*
X148850822Y-139434634D01*
X148862337Y-139410619D01*
X148851580Y-139383635D01*
X148833114Y-139362543D01*
X148789469Y-139336572D01*
X148741446Y-139334624D01*
X148697406Y-139354637D01*
X148665709Y-139394551D01*
X148661549Y-139404848D01*
X148637327Y-139442724D01*
X148601965Y-139470842D01*
X148557343Y-139493917D01*
X148557343Y-139428485D01*
X148559969Y-139388506D01*
X148571230Y-139356997D01*
X148596199Y-139323378D01*
X148620169Y-139297484D01*
X148657441Y-139260817D01*
X148686401Y-139241121D01*
X148717505Y-139233220D01*
X148752713Y-139231914D01*
X148829876Y-139243335D01*
G36*
X148464833Y-139245663D02*
G01*
X148467048Y-139283850D01*
X148468784Y-139341886D01*
X148469899Y-139415180D01*
X148470257Y-139492055D01*
X148470257Y-139752196D01*
X148424326Y-139798127D01*
X148392675Y-139826429D01*
X148364890Y-139837893D01*
X148326915Y-139837168D01*
X148311840Y-139835321D01*
X148264726Y-139829948D01*
X148225756Y-139826869D01*
X148216257Y-139826585D01*
X148184233Y-139828445D01*
X148138432Y-139833114D01*
X148120674Y-139835321D01*
X148077057Y-139838735D01*
X148047745Y-139831320D01*
X148018680Y-139808427D01*
X148008188Y-139798127D01*
X147962257Y-139752196D01*
X147962257Y-139265602D01*
X147999226Y-139248758D01*
X148031059Y-139236282D01*
X148049683Y-139231914D01*
X148054458Y-139245718D01*
X148058921Y-139284286D01*
X148062775Y-139343356D01*
X148065722Y-139418663D01*
X148067143Y-139482286D01*
X148071114Y-139732657D01*
X148105759Y-139737556D01*
X148137268Y-139734131D01*
X148152708Y-139723041D01*
X148157023Y-139702308D01*
X148160708Y-139658145D01*
X148163469Y-139596146D01*
X148165012Y-139521909D01*
X148165235Y-139483706D01*
X148165457Y-139263783D01*
X148211166Y-139247849D01*
X148243518Y-139237015D01*
X148261115Y-139231962D01*
X148261623Y-139231914D01*
X148263388Y-139245648D01*
X148265329Y-139283730D01*
X148267282Y-139341482D01*
X148269084Y-139414227D01*
X148270343Y-139482286D01*
X148274314Y-139732657D01*
X148361400Y-139732657D01*
X148365396Y-139504240D01*
X148369392Y-139275822D01*
X148411847Y-139253868D01*
X148443192Y-139238793D01*
X148461744Y-139231951D01*
X148462279Y-139231914D01*
X148464833Y-139245663D01*
X148464833Y-139245663D01*
G37*
X148464833Y-139245663D02*
X148467048Y-139283850D01*
X148468784Y-139341886D01*
X148469899Y-139415180D01*
X148470257Y-139492055D01*
X148470257Y-139752196D01*
X148424326Y-139798127D01*
X148392675Y-139826429D01*
X148364890Y-139837893D01*
X148326915Y-139837168D01*
X148311840Y-139835321D01*
X148264726Y-139829948D01*
X148225756Y-139826869D01*
X148216257Y-139826585D01*
X148184233Y-139828445D01*
X148138432Y-139833114D01*
X148120674Y-139835321D01*
X148077057Y-139838735D01*
X148047745Y-139831320D01*
X148018680Y-139808427D01*
X148008188Y-139798127D01*
X147962257Y-139752196D01*
X147962257Y-139265602D01*
X147999226Y-139248758D01*
X148031059Y-139236282D01*
X148049683Y-139231914D01*
X148054458Y-139245718D01*
X148058921Y-139284286D01*
X148062775Y-139343356D01*
X148065722Y-139418663D01*
X148067143Y-139482286D01*
X148071114Y-139732657D01*
X148105759Y-139737556D01*
X148137268Y-139734131D01*
X148152708Y-139723041D01*
X148157023Y-139702308D01*
X148160708Y-139658145D01*
X148163469Y-139596146D01*
X148165012Y-139521909D01*
X148165235Y-139483706D01*
X148165457Y-139263783D01*
X148211166Y-139247849D01*
X148243518Y-139237015D01*
X148261115Y-139231962D01*
X148261623Y-139231914D01*
X148263388Y-139245648D01*
X148265329Y-139283730D01*
X148267282Y-139341482D01*
X148269084Y-139414227D01*
X148270343Y-139482286D01*
X148274314Y-139732657D01*
X148361400Y-139732657D01*
X148365396Y-139504240D01*
X148369392Y-139275822D01*
X148411847Y-139253868D01*
X148443192Y-139238793D01*
X148461744Y-139231951D01*
X148462279Y-139231914D01*
X148464833Y-139245663D01*
G36*
X147875117Y-139352358D02*
G01*
X147874933Y-139460837D01*
X147874219Y-139544287D01*
X147872675Y-139606704D01*
X147870001Y-139652085D01*
X147865894Y-139684429D01*
X147860055Y-139707733D01*
X147852182Y-139725995D01*
X147846221Y-139736418D01*
X147796855Y-139792945D01*
X147734264Y-139828377D01*
X147665013Y-139841090D01*
X147595668Y-139829463D01*
X147554375Y-139808568D01*
X147511025Y-139772422D01*
X147481481Y-139728276D01*
X147463655Y-139670462D01*
X147455463Y-139593313D01*
X147454302Y-139536714D01*
X147454458Y-139532647D01*
X147555857Y-139532647D01*
X147556476Y-139597550D01*
X147559314Y-139640514D01*
X147565840Y-139668622D01*
X147577523Y-139688953D01*
X147591483Y-139704288D01*
X147638365Y-139733890D01*
X147688701Y-139736419D01*
X147736276Y-139711705D01*
X147739979Y-139708356D01*
X147755783Y-139690935D01*
X147765693Y-139670209D01*
X147771058Y-139639362D01*
X147773228Y-139591577D01*
X147773571Y-139538748D01*
X147772827Y-139472381D01*
X147769748Y-139428106D01*
X147763061Y-139399009D01*
X147751496Y-139378173D01*
X147742013Y-139367107D01*
X147697960Y-139339198D01*
X147647224Y-139335843D01*
X147598796Y-139357159D01*
X147589450Y-139365073D01*
X147573540Y-139382647D01*
X147563610Y-139403587D01*
X147558278Y-139434782D01*
X147556163Y-139483122D01*
X147555857Y-139532647D01*
X147454458Y-139532647D01*
X147457810Y-139445568D01*
X147469726Y-139377086D01*
X147492135Y-139325600D01*
X147527124Y-139285443D01*
X147554375Y-139264861D01*
X147603907Y-139242625D01*
X147661316Y-139232304D01*
X147714682Y-139235067D01*
X147744543Y-139246212D01*
X147756261Y-139249383D01*
X147764037Y-139237557D01*
X147769465Y-139205866D01*
X147773571Y-139157593D01*
X147778067Y-139103829D01*
X147784313Y-139071482D01*
X147795676Y-139052985D01*
X147815528Y-139040770D01*
X147828000Y-139035362D01*
X147875171Y-139015601D01*
X147875117Y-139352358D01*
X147875117Y-139352358D01*
G37*
X147875117Y-139352358D02*
X147874933Y-139460837D01*
X147874219Y-139544287D01*
X147872675Y-139606704D01*
X147870001Y-139652085D01*
X147865894Y-139684429D01*
X147860055Y-139707733D01*
X147852182Y-139725995D01*
X147846221Y-139736418D01*
X147796855Y-139792945D01*
X147734264Y-139828377D01*
X147665013Y-139841090D01*
X147595668Y-139829463D01*
X147554375Y-139808568D01*
X147511025Y-139772422D01*
X147481481Y-139728276D01*
X147463655Y-139670462D01*
X147455463Y-139593313D01*
X147454302Y-139536714D01*
X147454458Y-139532647D01*
X147555857Y-139532647D01*
X147556476Y-139597550D01*
X147559314Y-139640514D01*
X147565840Y-139668622D01*
X147577523Y-139688953D01*
X147591483Y-139704288D01*
X147638365Y-139733890D01*
X147688701Y-139736419D01*
X147736276Y-139711705D01*
X147739979Y-139708356D01*
X147755783Y-139690935D01*
X147765693Y-139670209D01*
X147771058Y-139639362D01*
X147773228Y-139591577D01*
X147773571Y-139538748D01*
X147772827Y-139472381D01*
X147769748Y-139428106D01*
X147763061Y-139399009D01*
X147751496Y-139378173D01*
X147742013Y-139367107D01*
X147697960Y-139339198D01*
X147647224Y-139335843D01*
X147598796Y-139357159D01*
X147589450Y-139365073D01*
X147573540Y-139382647D01*
X147563610Y-139403587D01*
X147558278Y-139434782D01*
X147556163Y-139483122D01*
X147555857Y-139532647D01*
X147454458Y-139532647D01*
X147457810Y-139445568D01*
X147469726Y-139377086D01*
X147492135Y-139325600D01*
X147527124Y-139285443D01*
X147554375Y-139264861D01*
X147603907Y-139242625D01*
X147661316Y-139232304D01*
X147714682Y-139235067D01*
X147744543Y-139246212D01*
X147756261Y-139249383D01*
X147764037Y-139237557D01*
X147769465Y-139205866D01*
X147773571Y-139157593D01*
X147778067Y-139103829D01*
X147784313Y-139071482D01*
X147795676Y-139052985D01*
X147815528Y-139040770D01*
X147828000Y-139035362D01*
X147875171Y-139015601D01*
X147875117Y-139352358D01*
G36*
X147214926Y-139236755D02*
G01*
X147280858Y-139261084D01*
X147334273Y-139304117D01*
X147355164Y-139334409D01*
X147377939Y-139389994D01*
X147377466Y-139430186D01*
X147353562Y-139457217D01*
X147344717Y-139461813D01*
X147306530Y-139476144D01*
X147287028Y-139472472D01*
X147280422Y-139448407D01*
X147280086Y-139435114D01*
X147267992Y-139386210D01*
X147236471Y-139351999D01*
X147192659Y-139335476D01*
X147143695Y-139339634D01*
X147103894Y-139361227D01*
X147090450Y-139373544D01*
X147080921Y-139388487D01*
X147074485Y-139411075D01*
X147070317Y-139446328D01*
X147067597Y-139499266D01*
X147065502Y-139574907D01*
X147064960Y-139598857D01*
X147062981Y-139680790D01*
X147060731Y-139738455D01*
X147057357Y-139776608D01*
X147052006Y-139800004D01*
X147043824Y-139813398D01*
X147031959Y-139821545D01*
X147024362Y-139825144D01*
X146992102Y-139837452D01*
X146973111Y-139841514D01*
X146966836Y-139827948D01*
X146963006Y-139786934D01*
X146961600Y-139717999D01*
X146962598Y-139620669D01*
X146962908Y-139605657D01*
X146965101Y-139516859D01*
X146967693Y-139452019D01*
X146971382Y-139406067D01*
X146976864Y-139373935D01*
X146984835Y-139350553D01*
X146995993Y-139330852D01*
X147001830Y-139322410D01*
X147035296Y-139285057D01*
X147072727Y-139256003D01*
X147077309Y-139253467D01*
X147144426Y-139233443D01*
X147214926Y-139236755D01*
X147214926Y-139236755D01*
G37*
X147214926Y-139236755D02*
X147280858Y-139261084D01*
X147334273Y-139304117D01*
X147355164Y-139334409D01*
X147377939Y-139389994D01*
X147377466Y-139430186D01*
X147353562Y-139457217D01*
X147344717Y-139461813D01*
X147306530Y-139476144D01*
X147287028Y-139472472D01*
X147280422Y-139448407D01*
X147280086Y-139435114D01*
X147267992Y-139386210D01*
X147236471Y-139351999D01*
X147192659Y-139335476D01*
X147143695Y-139339634D01*
X147103894Y-139361227D01*
X147090450Y-139373544D01*
X147080921Y-139388487D01*
X147074485Y-139411075D01*
X147070317Y-139446328D01*
X147067597Y-139499266D01*
X147065502Y-139574907D01*
X147064960Y-139598857D01*
X147062981Y-139680790D01*
X147060731Y-139738455D01*
X147057357Y-139776608D01*
X147052006Y-139800004D01*
X147043824Y-139813398D01*
X147031959Y-139821545D01*
X147024362Y-139825144D01*
X146992102Y-139837452D01*
X146973111Y-139841514D01*
X146966836Y-139827948D01*
X146963006Y-139786934D01*
X146961600Y-139717999D01*
X146962598Y-139620669D01*
X146962908Y-139605657D01*
X146965101Y-139516859D01*
X146967693Y-139452019D01*
X146971382Y-139406067D01*
X146976864Y-139373935D01*
X146984835Y-139350553D01*
X146995993Y-139330852D01*
X147001830Y-139322410D01*
X147035296Y-139285057D01*
X147072727Y-139256003D01*
X147077309Y-139253467D01*
X147144426Y-139233443D01*
X147214926Y-139236755D01*
G36*
X146724744Y-139237968D02*
G01*
X146781616Y-139259087D01*
X146782267Y-139259493D01*
X146817440Y-139285380D01*
X146843407Y-139315633D01*
X146861670Y-139355058D01*
X146873732Y-139408462D01*
X146881096Y-139480651D01*
X146885264Y-139576432D01*
X146885629Y-139590078D01*
X146890876Y-139795842D01*
X146846716Y-139818678D01*
X146814763Y-139834110D01*
X146795470Y-139841423D01*
X146794578Y-139841514D01*
X146791239Y-139828022D01*
X146788587Y-139791626D01*
X146786956Y-139738452D01*
X146786600Y-139695393D01*
X146786592Y-139625641D01*
X146783403Y-139581837D01*
X146772288Y-139560944D01*
X146748501Y-139559925D01*
X146707296Y-139575741D01*
X146645086Y-139604815D01*
X146599341Y-139628963D01*
X146575813Y-139649913D01*
X146568896Y-139672747D01*
X146568886Y-139673877D01*
X146580299Y-139713212D01*
X146614092Y-139734462D01*
X146665809Y-139737539D01*
X146703061Y-139737006D01*
X146722703Y-139747735D01*
X146734952Y-139773505D01*
X146742002Y-139806337D01*
X146731842Y-139824966D01*
X146728017Y-139827632D01*
X146692001Y-139838340D01*
X146641566Y-139839856D01*
X146589626Y-139832759D01*
X146552822Y-139819788D01*
X146501938Y-139776585D01*
X146473014Y-139716446D01*
X146467286Y-139669462D01*
X146471657Y-139627082D01*
X146487475Y-139592488D01*
X146518797Y-139561763D01*
X146569678Y-139530990D01*
X146644176Y-139496252D01*
X146648714Y-139494288D01*
X146715821Y-139463287D01*
X146757232Y-139437862D01*
X146774981Y-139415014D01*
X146771107Y-139391745D01*
X146747643Y-139365056D01*
X146740627Y-139358914D01*
X146693630Y-139335100D01*
X146644933Y-139336103D01*
X146602522Y-139359451D01*
X146574384Y-139402675D01*
X146571769Y-139411160D01*
X146546308Y-139452308D01*
X146514001Y-139472128D01*
X146467286Y-139491770D01*
X146467286Y-139440950D01*
X146481496Y-139367082D01*
X146523675Y-139299327D01*
X146545624Y-139276661D01*
X146595517Y-139247569D01*
X146658967Y-139234400D01*
X146724744Y-139237968D01*
X146724744Y-139237968D01*
G37*
X146724744Y-139237968D02*
X146781616Y-139259087D01*
X146782267Y-139259493D01*
X146817440Y-139285380D01*
X146843407Y-139315633D01*
X146861670Y-139355058D01*
X146873732Y-139408462D01*
X146881096Y-139480651D01*
X146885264Y-139576432D01*
X146885629Y-139590078D01*
X146890876Y-139795842D01*
X146846716Y-139818678D01*
X146814763Y-139834110D01*
X146795470Y-139841423D01*
X146794578Y-139841514D01*
X146791239Y-139828022D01*
X146788587Y-139791626D01*
X146786956Y-139738452D01*
X146786600Y-139695393D01*
X146786592Y-139625641D01*
X146783403Y-139581837D01*
X146772288Y-139560944D01*
X146748501Y-139559925D01*
X146707296Y-139575741D01*
X146645086Y-139604815D01*
X146599341Y-139628963D01*
X146575813Y-139649913D01*
X146568896Y-139672747D01*
X146568886Y-139673877D01*
X146580299Y-139713212D01*
X146614092Y-139734462D01*
X146665809Y-139737539D01*
X146703061Y-139737006D01*
X146722703Y-139747735D01*
X146734952Y-139773505D01*
X146742002Y-139806337D01*
X146731842Y-139824966D01*
X146728017Y-139827632D01*
X146692001Y-139838340D01*
X146641566Y-139839856D01*
X146589626Y-139832759D01*
X146552822Y-139819788D01*
X146501938Y-139776585D01*
X146473014Y-139716446D01*
X146467286Y-139669462D01*
X146471657Y-139627082D01*
X146487475Y-139592488D01*
X146518797Y-139561763D01*
X146569678Y-139530990D01*
X146644176Y-139496252D01*
X146648714Y-139494288D01*
X146715821Y-139463287D01*
X146757232Y-139437862D01*
X146774981Y-139415014D01*
X146771107Y-139391745D01*
X146747643Y-139365056D01*
X146740627Y-139358914D01*
X146693630Y-139335100D01*
X146644933Y-139336103D01*
X146602522Y-139359451D01*
X146574384Y-139402675D01*
X146571769Y-139411160D01*
X146546308Y-139452308D01*
X146514001Y-139472128D01*
X146467286Y-139491770D01*
X146467286Y-139440950D01*
X146481496Y-139367082D01*
X146523675Y-139299327D01*
X146545624Y-139276661D01*
X146595517Y-139247569D01*
X146658967Y-139234400D01*
X146724744Y-139237968D01*
G36*
X146060886Y-139138289D02*
G01*
X146065139Y-139197613D01*
X146070025Y-139232572D01*
X146076795Y-139247820D01*
X146086702Y-139248015D01*
X146089914Y-139246195D01*
X146132644Y-139233015D01*
X146188227Y-139233785D01*
X146244737Y-139247333D01*
X146280082Y-139264861D01*
X146316321Y-139292861D01*
X146342813Y-139324549D01*
X146360999Y-139364813D01*
X146372322Y-139418543D01*
X146378222Y-139490626D01*
X146380143Y-139585951D01*
X146380177Y-139604237D01*
X146380200Y-139809646D01*
X146334491Y-139825580D01*
X146302027Y-139836420D01*
X146284215Y-139841468D01*
X146283691Y-139841514D01*
X146281937Y-139827828D01*
X146280444Y-139790076D01*
X146279326Y-139733224D01*
X146278697Y-139662234D01*
X146278600Y-139619073D01*
X146278398Y-139533973D01*
X146277358Y-139472981D01*
X146274831Y-139431177D01*
X146270164Y-139403642D01*
X146262707Y-139385456D01*
X146251811Y-139371698D01*
X146245007Y-139365073D01*
X146198272Y-139338375D01*
X146147272Y-139336375D01*
X146101001Y-139358955D01*
X146092444Y-139367107D01*
X146079893Y-139382436D01*
X146071188Y-139400618D01*
X146065631Y-139426909D01*
X146062526Y-139466562D01*
X146061176Y-139524832D01*
X146060886Y-139605173D01*
X146060886Y-139809646D01*
X146015177Y-139825580D01*
X145982713Y-139836420D01*
X145964901Y-139841468D01*
X145964377Y-139841514D01*
X145963037Y-139827623D01*
X145961828Y-139788439D01*
X145960801Y-139727700D01*
X145960002Y-139649141D01*
X145959481Y-139556498D01*
X145959286Y-139453509D01*
X145959286Y-139056342D01*
X146006457Y-139036444D01*
X146053629Y-139016547D01*
X146060886Y-139138289D01*
X146060886Y-139138289D01*
G37*
X146060886Y-139138289D02*
X146065139Y-139197613D01*
X146070025Y-139232572D01*
X146076795Y-139247820D01*
X146086702Y-139248015D01*
X146089914Y-139246195D01*
X146132644Y-139233015D01*
X146188227Y-139233785D01*
X146244737Y-139247333D01*
X146280082Y-139264861D01*
X146316321Y-139292861D01*
X146342813Y-139324549D01*
X146360999Y-139364813D01*
X146372322Y-139418543D01*
X146378222Y-139490626D01*
X146380143Y-139585951D01*
X146380177Y-139604237D01*
X146380200Y-139809646D01*
X146334491Y-139825580D01*
X146302027Y-139836420D01*
X146284215Y-139841468D01*
X146283691Y-139841514D01*
X146281937Y-139827828D01*
X146280444Y-139790076D01*
X146279326Y-139733224D01*
X146278697Y-139662234D01*
X146278600Y-139619073D01*
X146278398Y-139533973D01*
X146277358Y-139472981D01*
X146274831Y-139431177D01*
X146270164Y-139403642D01*
X146262707Y-139385456D01*
X146251811Y-139371698D01*
X146245007Y-139365073D01*
X146198272Y-139338375D01*
X146147272Y-139336375D01*
X146101001Y-139358955D01*
X146092444Y-139367107D01*
X146079893Y-139382436D01*
X146071188Y-139400618D01*
X146065631Y-139426909D01*
X146062526Y-139466562D01*
X146061176Y-139524832D01*
X146060886Y-139605173D01*
X146060886Y-139809646D01*
X146015177Y-139825580D01*
X145982713Y-139836420D01*
X145964901Y-139841468D01*
X145964377Y-139841514D01*
X145963037Y-139827623D01*
X145961828Y-139788439D01*
X145960801Y-139727700D01*
X145960002Y-139649141D01*
X145959481Y-139556498D01*
X145959286Y-139453509D01*
X145959286Y-139056342D01*
X146006457Y-139036444D01*
X146053629Y-139016547D01*
X146060886Y-139138289D01*
G36*
X144853303Y-139218239D02*
G01*
X144910527Y-139256735D01*
X144954749Y-139312335D01*
X144981167Y-139383086D01*
X144986510Y-139435162D01*
X144985903Y-139456893D01*
X144980822Y-139473531D01*
X144966855Y-139488437D01*
X144939589Y-139504973D01*
X144894612Y-139526498D01*
X144827511Y-139556374D01*
X144827171Y-139556524D01*
X144765407Y-139584813D01*
X144714759Y-139609933D01*
X144680404Y-139629179D01*
X144667518Y-139639848D01*
X144667514Y-139639934D01*
X144678872Y-139663166D01*
X144705431Y-139688774D01*
X144735923Y-139707221D01*
X144751370Y-139710886D01*
X144793515Y-139698212D01*
X144829808Y-139666471D01*
X144847517Y-139631572D01*
X144864552Y-139605845D01*
X144897922Y-139576546D01*
X144937149Y-139551235D01*
X144971756Y-139537471D01*
X144978993Y-139536714D01*
X144987139Y-139549160D01*
X144987630Y-139580972D01*
X144981643Y-139623866D01*
X144970357Y-139669558D01*
X144954950Y-139709761D01*
X144954171Y-139711322D01*
X144907804Y-139776062D01*
X144847711Y-139820097D01*
X144779465Y-139841711D01*
X144708638Y-139839185D01*
X144640804Y-139810804D01*
X144637788Y-139808808D01*
X144584427Y-139760448D01*
X144549340Y-139697352D01*
X144529922Y-139614387D01*
X144527316Y-139591078D01*
X144522701Y-139481055D01*
X144528233Y-139429748D01*
X144667514Y-139429748D01*
X144669324Y-139461753D01*
X144679222Y-139471093D01*
X144703898Y-139464105D01*
X144742795Y-139447587D01*
X144786275Y-139426881D01*
X144787356Y-139426333D01*
X144824209Y-139406949D01*
X144839000Y-139394013D01*
X144835353Y-139380451D01*
X144819995Y-139362632D01*
X144780923Y-139336845D01*
X144738846Y-139334950D01*
X144701103Y-139353717D01*
X144675034Y-139389915D01*
X144667514Y-139429748D01*
X144528233Y-139429748D01*
X144532194Y-139393027D01*
X144556550Y-139323212D01*
X144590456Y-139274302D01*
X144651653Y-139224878D01*
X144719063Y-139200359D01*
X144787880Y-139198797D01*
X144853303Y-139218239D01*
X144853303Y-139218239D01*
G37*
X144853303Y-139218239D02*
X144910527Y-139256735D01*
X144954749Y-139312335D01*
X144981167Y-139383086D01*
X144986510Y-139435162D01*
X144985903Y-139456893D01*
X144980822Y-139473531D01*
X144966855Y-139488437D01*
X144939589Y-139504973D01*
X144894612Y-139526498D01*
X144827511Y-139556374D01*
X144827171Y-139556524D01*
X144765407Y-139584813D01*
X144714759Y-139609933D01*
X144680404Y-139629179D01*
X144667518Y-139639848D01*
X144667514Y-139639934D01*
X144678872Y-139663166D01*
X144705431Y-139688774D01*
X144735923Y-139707221D01*
X144751370Y-139710886D01*
X144793515Y-139698212D01*
X144829808Y-139666471D01*
X144847517Y-139631572D01*
X144864552Y-139605845D01*
X144897922Y-139576546D01*
X144937149Y-139551235D01*
X144971756Y-139537471D01*
X144978993Y-139536714D01*
X144987139Y-139549160D01*
X144987630Y-139580972D01*
X144981643Y-139623866D01*
X144970357Y-139669558D01*
X144954950Y-139709761D01*
X144954171Y-139711322D01*
X144907804Y-139776062D01*
X144847711Y-139820097D01*
X144779465Y-139841711D01*
X144708638Y-139839185D01*
X144640804Y-139810804D01*
X144637788Y-139808808D01*
X144584427Y-139760448D01*
X144549340Y-139697352D01*
X144529922Y-139614387D01*
X144527316Y-139591078D01*
X144522701Y-139481055D01*
X144528233Y-139429748D01*
X144667514Y-139429748D01*
X144669324Y-139461753D01*
X144679222Y-139471093D01*
X144703898Y-139464105D01*
X144742795Y-139447587D01*
X144786275Y-139426881D01*
X144787356Y-139426333D01*
X144824209Y-139406949D01*
X144839000Y-139394013D01*
X144835353Y-139380451D01*
X144819995Y-139362632D01*
X144780923Y-139336845D01*
X144738846Y-139334950D01*
X144701103Y-139353717D01*
X144675034Y-139389915D01*
X144667514Y-139429748D01*
X144528233Y-139429748D01*
X144532194Y-139393027D01*
X144556550Y-139323212D01*
X144590456Y-139274302D01*
X144651653Y-139224878D01*
X144719063Y-139200359D01*
X144787880Y-139198797D01*
X144853303Y-139218239D01*
G36*
X143726115Y-139208962D02*
G01*
X143794145Y-139244733D01*
X143844351Y-139302301D01*
X143862185Y-139339312D01*
X143876063Y-139394882D01*
X143883167Y-139465096D01*
X143883840Y-139541727D01*
X143878427Y-139616552D01*
X143867270Y-139681342D01*
X143850714Y-139727873D01*
X143845626Y-139735887D01*
X143785355Y-139795707D01*
X143713769Y-139831535D01*
X143636092Y-139842020D01*
X143557548Y-139825810D01*
X143535689Y-139816092D01*
X143493122Y-139786143D01*
X143455763Y-139746433D01*
X143452232Y-139741397D01*
X143437881Y-139717124D01*
X143428394Y-139691178D01*
X143422790Y-139657022D01*
X143420086Y-139608119D01*
X143419299Y-139537935D01*
X143419286Y-139522200D01*
X143419322Y-139517192D01*
X143564429Y-139517192D01*
X143565273Y-139583430D01*
X143568596Y-139627386D01*
X143575583Y-139655779D01*
X143587416Y-139675325D01*
X143593457Y-139681857D01*
X143628186Y-139706680D01*
X143661903Y-139705548D01*
X143695995Y-139684016D01*
X143716329Y-139661029D01*
X143728371Y-139627478D01*
X143735134Y-139574569D01*
X143735598Y-139568399D01*
X143736752Y-139472513D01*
X143724688Y-139401299D01*
X143699570Y-139355194D01*
X143661560Y-139334635D01*
X143647992Y-139333514D01*
X143612364Y-139339152D01*
X143587994Y-139358686D01*
X143573093Y-139396042D01*
X143565875Y-139455150D01*
X143564429Y-139517192D01*
X143419322Y-139517192D01*
X143419826Y-139447413D01*
X143422096Y-139395159D01*
X143427068Y-139358949D01*
X143435713Y-139332299D01*
X143449005Y-139308722D01*
X143451943Y-139304338D01*
X143501313Y-139245249D01*
X143555109Y-139210947D01*
X143620602Y-139197331D01*
X143642842Y-139196665D01*
X143726115Y-139208962D01*
X143726115Y-139208962D01*
G37*
X143726115Y-139208962D02*
X143794145Y-139244733D01*
X143844351Y-139302301D01*
X143862185Y-139339312D01*
X143876063Y-139394882D01*
X143883167Y-139465096D01*
X143883840Y-139541727D01*
X143878427Y-139616552D01*
X143867270Y-139681342D01*
X143850714Y-139727873D01*
X143845626Y-139735887D01*
X143785355Y-139795707D01*
X143713769Y-139831535D01*
X143636092Y-139842020D01*
X143557548Y-139825810D01*
X143535689Y-139816092D01*
X143493122Y-139786143D01*
X143455763Y-139746433D01*
X143452232Y-139741397D01*
X143437881Y-139717124D01*
X143428394Y-139691178D01*
X143422790Y-139657022D01*
X143420086Y-139608119D01*
X143419299Y-139537935D01*
X143419286Y-139522200D01*
X143419322Y-139517192D01*
X143564429Y-139517192D01*
X143565273Y-139583430D01*
X143568596Y-139627386D01*
X143575583Y-139655779D01*
X143587416Y-139675325D01*
X143593457Y-139681857D01*
X143628186Y-139706680D01*
X143661903Y-139705548D01*
X143695995Y-139684016D01*
X143716329Y-139661029D01*
X143728371Y-139627478D01*
X143735134Y-139574569D01*
X143735598Y-139568399D01*
X143736752Y-139472513D01*
X143724688Y-139401299D01*
X143699570Y-139355194D01*
X143661560Y-139334635D01*
X143647992Y-139333514D01*
X143612364Y-139339152D01*
X143587994Y-139358686D01*
X143573093Y-139396042D01*
X143565875Y-139455150D01*
X143564429Y-139517192D01*
X143419322Y-139517192D01*
X143419826Y-139447413D01*
X143422096Y-139395159D01*
X143427068Y-139358949D01*
X143435713Y-139332299D01*
X143449005Y-139308722D01*
X143451943Y-139304338D01*
X143501313Y-139245249D01*
X143555109Y-139210947D01*
X143620602Y-139197331D01*
X143642842Y-139196665D01*
X143726115Y-139208962D01*
G36*
X145401093Y-139214780D02*
G01*
X145447672Y-139241723D01*
X145480057Y-139268466D01*
X145503742Y-139296484D01*
X145520059Y-139330748D01*
X145530339Y-139376227D01*
X145535914Y-139437892D01*
X145538116Y-139520711D01*
X145538371Y-139580246D01*
X145538371Y-139799391D01*
X145476686Y-139827044D01*
X145415000Y-139854697D01*
X145407743Y-139614670D01*
X145404744Y-139525028D01*
X145401598Y-139459962D01*
X145397701Y-139415026D01*
X145392447Y-139385770D01*
X145385231Y-139367748D01*
X145375450Y-139356511D01*
X145372312Y-139354079D01*
X145324761Y-139335083D01*
X145276697Y-139342600D01*
X145248086Y-139362543D01*
X145236447Y-139376675D01*
X145228391Y-139395220D01*
X145223271Y-139423334D01*
X145220441Y-139466173D01*
X145219256Y-139528895D01*
X145219057Y-139594261D01*
X145219018Y-139676268D01*
X145217614Y-139734316D01*
X145212914Y-139773465D01*
X145202987Y-139798780D01*
X145185903Y-139815323D01*
X145159732Y-139828156D01*
X145124775Y-139841491D01*
X145086596Y-139856007D01*
X145091141Y-139598389D01*
X145092971Y-139505519D01*
X145095112Y-139436889D01*
X145098181Y-139387711D01*
X145102794Y-139353198D01*
X145109568Y-139328562D01*
X145119119Y-139309016D01*
X145130634Y-139291770D01*
X145186190Y-139236680D01*
X145253980Y-139204822D01*
X145327713Y-139197191D01*
X145401093Y-139214780D01*
X145401093Y-139214780D01*
G37*
X145401093Y-139214780D02*
X145447672Y-139241723D01*
X145480057Y-139268466D01*
X145503742Y-139296484D01*
X145520059Y-139330748D01*
X145530339Y-139376227D01*
X145535914Y-139437892D01*
X145538116Y-139520711D01*
X145538371Y-139580246D01*
X145538371Y-139799391D01*
X145476686Y-139827044D01*
X145415000Y-139854697D01*
X145407743Y-139614670D01*
X145404744Y-139525028D01*
X145401598Y-139459962D01*
X145397701Y-139415026D01*
X145392447Y-139385770D01*
X145385231Y-139367748D01*
X145375450Y-139356511D01*
X145372312Y-139354079D01*
X145324761Y-139335083D01*
X145276697Y-139342600D01*
X145248086Y-139362543D01*
X145236447Y-139376675D01*
X145228391Y-139395220D01*
X145223271Y-139423334D01*
X145220441Y-139466173D01*
X145219256Y-139528895D01*
X145219057Y-139594261D01*
X145219018Y-139676268D01*
X145217614Y-139734316D01*
X145212914Y-139773465D01*
X145202987Y-139798780D01*
X145185903Y-139815323D01*
X145159732Y-139828156D01*
X145124775Y-139841491D01*
X145086596Y-139856007D01*
X145091141Y-139598389D01*
X145092971Y-139505519D01*
X145095112Y-139436889D01*
X145098181Y-139387711D01*
X145102794Y-139353198D01*
X145109568Y-139328562D01*
X145119119Y-139309016D01*
X145130634Y-139291770D01*
X145186190Y-139236680D01*
X145253980Y-139204822D01*
X145327713Y-139197191D01*
X145401093Y-139214780D01*
G36*
X144284744Y-139206918D02*
G01*
X144340201Y-139234568D01*
X144389148Y-139285480D01*
X144402629Y-139304338D01*
X144417314Y-139329015D01*
X144426842Y-139355816D01*
X144432293Y-139391587D01*
X144434747Y-139443169D01*
X144435286Y-139511267D01*
X144432852Y-139604588D01*
X144424394Y-139674657D01*
X144408174Y-139726931D01*
X144382454Y-139766869D01*
X144345497Y-139799929D01*
X144342782Y-139801886D01*
X144306360Y-139821908D01*
X144262502Y-139831815D01*
X144206724Y-139834257D01*
X144116048Y-139834257D01*
X144116010Y-139922283D01*
X144115166Y-139971308D01*
X144110024Y-140000065D01*
X144096587Y-140017311D01*
X144070858Y-140031808D01*
X144064679Y-140034769D01*
X144035764Y-140048648D01*
X144013376Y-140057414D01*
X143996729Y-140058171D01*
X143985036Y-140048023D01*
X143977510Y-140024073D01*
X143973366Y-139983426D01*
X143971815Y-139923186D01*
X143972071Y-139840455D01*
X143973349Y-139732339D01*
X143973748Y-139700000D01*
X143975185Y-139588524D01*
X143976472Y-139515603D01*
X144115971Y-139515603D01*
X144116755Y-139577499D01*
X144120240Y-139617997D01*
X144128124Y-139644708D01*
X144142105Y-139665244D01*
X144151597Y-139675260D01*
X144190404Y-139704567D01*
X144224763Y-139706952D01*
X144260216Y-139682750D01*
X144261114Y-139681857D01*
X144275539Y-139663153D01*
X144284313Y-139637732D01*
X144288739Y-139598584D01*
X144290118Y-139538697D01*
X144290143Y-139525430D01*
X144286812Y-139442901D01*
X144275969Y-139385691D01*
X144256340Y-139350766D01*
X144226650Y-139335094D01*
X144209491Y-139333514D01*
X144168766Y-139340926D01*
X144140832Y-139365330D01*
X144124017Y-139409980D01*
X144116650Y-139478130D01*
X144115971Y-139515603D01*
X143976472Y-139515603D01*
X143976708Y-139502245D01*
X143978677Y-139437333D01*
X143981450Y-139389958D01*
X143985388Y-139356290D01*
X143990849Y-139332498D01*
X143998192Y-139314753D01*
X144007777Y-139299224D01*
X144011887Y-139293381D01*
X144066405Y-139238185D01*
X144135336Y-139206890D01*
X144215072Y-139198165D01*
X144284744Y-139206918D01*
X144284744Y-139206918D01*
G37*
X144284744Y-139206918D02*
X144340201Y-139234568D01*
X144389148Y-139285480D01*
X144402629Y-139304338D01*
X144417314Y-139329015D01*
X144426842Y-139355816D01*
X144432293Y-139391587D01*
X144434747Y-139443169D01*
X144435286Y-139511267D01*
X144432852Y-139604588D01*
X144424394Y-139674657D01*
X144408174Y-139726931D01*
X144382454Y-139766869D01*
X144345497Y-139799929D01*
X144342782Y-139801886D01*
X144306360Y-139821908D01*
X144262502Y-139831815D01*
X144206724Y-139834257D01*
X144116048Y-139834257D01*
X144116010Y-139922283D01*
X144115166Y-139971308D01*
X144110024Y-140000065D01*
X144096587Y-140017311D01*
X144070858Y-140031808D01*
X144064679Y-140034769D01*
X144035764Y-140048648D01*
X144013376Y-140057414D01*
X143996729Y-140058171D01*
X143985036Y-140048023D01*
X143977510Y-140024073D01*
X143973366Y-139983426D01*
X143971815Y-139923186D01*
X143972071Y-139840455D01*
X143973349Y-139732339D01*
X143973748Y-139700000D01*
X143975185Y-139588524D01*
X143976472Y-139515603D01*
X144115971Y-139515603D01*
X144116755Y-139577499D01*
X144120240Y-139617997D01*
X144128124Y-139644708D01*
X144142105Y-139665244D01*
X144151597Y-139675260D01*
X144190404Y-139704567D01*
X144224763Y-139706952D01*
X144260216Y-139682750D01*
X144261114Y-139681857D01*
X144275539Y-139663153D01*
X144284313Y-139637732D01*
X144288739Y-139598584D01*
X144290118Y-139538697D01*
X144290143Y-139525430D01*
X144286812Y-139442901D01*
X144275969Y-139385691D01*
X144256340Y-139350766D01*
X144226650Y-139335094D01*
X144209491Y-139333514D01*
X144168766Y-139340926D01*
X144140832Y-139365330D01*
X144124017Y-139409980D01*
X144116650Y-139478130D01*
X144115971Y-139515603D01*
X143976472Y-139515603D01*
X143976708Y-139502245D01*
X143978677Y-139437333D01*
X143981450Y-139389958D01*
X143985388Y-139356290D01*
X143990849Y-139332498D01*
X143998192Y-139314753D01*
X144007777Y-139299224D01*
X144011887Y-139293381D01*
X144066405Y-139238185D01*
X144135336Y-139206890D01*
X144215072Y-139198165D01*
X144284744Y-139206918D01*
D10*
X144880000Y-114105000D02*
X144880000Y-116055000D01*
X144880000Y-118275000D02*
X144880000Y-121505000D01*
X144160000Y-123425000D02*
X143080000Y-123425000D01*
X138860000Y-123425000D02*
X137780000Y-123425000D01*
X137060000Y-118275000D02*
X137060000Y-121505000D01*
X137060000Y-114105000D02*
X137060000Y-116055000D01*
X143080000Y-123425000D02*
X143080000Y-123855000D01*
X137060000Y-114105000D02*
X144880000Y-114105000D01*
X144790000Y-128540000D02*
X140490000Y-128540000D01*
X144790000Y-130540000D02*
X144790000Y-128540000D01*
X140490000Y-130540000D02*
X144790000Y-130540000D01*
X144790000Y-131715000D02*
X140490000Y-131715000D01*
X144790000Y-133715000D02*
X144790000Y-131715000D01*
X140490000Y-133715000D02*
X144790000Y-133715000D01*
X128491064Y-122788000D02*
X127286936Y-122788000D01*
X128491064Y-124608000D02*
X127286936Y-124608000D01*
D11*
X161915000Y-123815000D02*
X161915000Y-122390000D01*
X162140000Y-131065000D02*
X162140000Y-130740000D01*
X154890000Y-131065000D02*
X154890000Y-130740000D01*
X154890000Y-123815000D02*
X154890000Y-124140000D01*
X162140000Y-123815000D02*
X162140000Y-124140000D01*
X154890000Y-123815000D02*
X155215000Y-123815000D01*
X154890000Y-131065000D02*
X155215000Y-131065000D01*
X162140000Y-131065000D02*
X161815000Y-131065000D01*
X162140000Y-123815000D02*
X161915000Y-123815000D01*
D10*
X138030000Y-126710000D02*
X138030000Y-132720000D01*
X131210000Y-128960000D02*
X131210000Y-132720000D01*
X138030000Y-132720000D02*
X136770000Y-132720000D01*
X131210000Y-132720000D02*
X132470000Y-132720000D01*
X167006748Y-129488000D02*
X167529252Y-129488000D01*
X167006748Y-128068000D02*
X167529252Y-128068000D01*
X132326748Y-124408000D02*
X132849252Y-124408000D01*
X132326748Y-122988000D02*
X132849252Y-122988000D01*
X166988748Y-134695000D02*
X167511252Y-134695000D01*
X166988748Y-133275000D02*
X167511252Y-133275000D01*
X166988748Y-132028000D02*
X167511252Y-132028000D01*
X166988748Y-130608000D02*
X167511252Y-130608000D01*
X147826252Y-126290000D02*
X147303748Y-126290000D01*
X147826252Y-127710000D02*
X147303748Y-127710000D01*
X147303748Y-133425000D02*
X147826252Y-133425000D01*
X147303748Y-132005000D02*
X147826252Y-132005000D01*
X147303748Y-130250000D02*
X147826252Y-130250000D01*
X147303748Y-128830000D02*
X147826252Y-128830000D01*
X156135000Y-137778748D02*
X156135000Y-138301252D01*
X157555000Y-137778748D02*
X157555000Y-138301252D01*
X158675000Y-137778748D02*
X158675000Y-138301252D01*
X160095000Y-137778748D02*
X160095000Y-138301252D01*
X151055000Y-137778748D02*
X151055000Y-138301252D01*
X152475000Y-137778748D02*
X152475000Y-138301252D01*
X153595000Y-137778748D02*
X153595000Y-138301252D01*
X155015000Y-137778748D02*
X155015000Y-138301252D01*
X164076748Y-121868000D02*
X164599252Y-121868000D01*
X164076748Y-120448000D02*
X164599252Y-120448000D01*
X153810000Y-114950000D02*
G75*
G03X153810000Y-120000000I0J-2525000D01*
G01*
X160060000Y-114950000D02*
G75*
G02X160060000Y-120000000I0J-2525000D01*
G01*
X160060000Y-114950000D02*
X153810000Y-114950000D01*
X160060000Y-120000000D02*
X153810000Y-120000000D01*
X162500000Y-135830000D02*
X163830000Y-135830000D01*
X162500000Y-137160000D02*
X162500000Y-135830000D01*
X162500000Y-138430000D02*
X165160000Y-138430000D01*
X165160000Y-138430000D02*
X165160000Y-141030000D01*
X162500000Y-138430000D02*
X162500000Y-141030000D01*
X162500000Y-141030000D02*
X165160000Y-141030000D01*
X166945000Y-135830000D02*
X168275000Y-135830000D01*
X166945000Y-137160000D02*
X166945000Y-135830000D01*
X166945000Y-138430000D02*
X169605000Y-138430000D01*
X169605000Y-138430000D02*
X169605000Y-141030000D01*
X166945000Y-138430000D02*
X166945000Y-141030000D01*
X166945000Y-141030000D02*
X169605000Y-141030000D01*
X135195000Y-140275000D02*
X136525000Y-140275000D01*
X135195000Y-141605000D02*
X135195000Y-140275000D01*
X135195000Y-142875000D02*
X137855000Y-142875000D01*
X137855000Y-142875000D02*
X137855000Y-145475000D01*
X135195000Y-142875000D02*
X135195000Y-145475000D01*
X135195000Y-145475000D02*
X137855000Y-145475000D01*
X126940000Y-126940000D02*
X128270000Y-126940000D01*
X126940000Y-128270000D02*
X126940000Y-126940000D01*
X126940000Y-129540000D02*
X129600000Y-129540000D01*
X129600000Y-129540000D02*
X129600000Y-134680000D01*
X126940000Y-129540000D02*
X126940000Y-134680000D01*
X126940000Y-134680000D02*
X129600000Y-134680000D01*
X171390000Y-139760000D02*
X171390000Y-138430000D01*
X172720000Y-139760000D02*
X171390000Y-139760000D01*
X173990000Y-139760000D02*
X173990000Y-137100000D01*
X173990000Y-137100000D02*
X176590000Y-137100000D01*
X173990000Y-139760000D02*
X176590000Y-139760000D01*
X176590000Y-139760000D02*
X176590000Y-137100000D01*
X125670000Y-139760000D02*
X125670000Y-138430000D01*
X127000000Y-139760000D02*
X125670000Y-139760000D01*
X128270000Y-139760000D02*
X128270000Y-137100000D01*
X128270000Y-137100000D02*
X130870000Y-137100000D01*
X128270000Y-139760000D02*
X130870000Y-139760000D01*
X130870000Y-139760000D02*
X130870000Y-137100000D01*
X171390000Y-147380000D02*
X171390000Y-146050000D01*
X172720000Y-147380000D02*
X171390000Y-147380000D01*
X173990000Y-147380000D02*
X173990000Y-144720000D01*
X173990000Y-144720000D02*
X176590000Y-144720000D01*
X173990000Y-147380000D02*
X176590000Y-147380000D01*
X176590000Y-147380000D02*
X176590000Y-144720000D01*
X125670000Y-147380000D02*
X125670000Y-146050000D01*
X127000000Y-147380000D02*
X125670000Y-147380000D01*
X128270000Y-147380000D02*
X128270000Y-144720000D01*
X128270000Y-144720000D02*
X130870000Y-144720000D01*
X128270000Y-147380000D02*
X130870000Y-147380000D01*
X130870000Y-147380000D02*
X130870000Y-144720000D01*
X145355000Y-146050000D02*
X145355000Y-144720000D01*
X145355000Y-144720000D02*
X146685000Y-144720000D01*
X147955000Y-144720000D02*
X160715000Y-144720000D01*
X160715000Y-147380000D02*
X160715000Y-144720000D01*
X147955000Y-147380000D02*
X160715000Y-147380000D01*
X147955000Y-147380000D02*
X147955000Y-144720000D01*
X128770131Y-120320000D02*
X130364869Y-120320000D01*
X128770131Y-115900000D02*
X130364869Y-115900000D01*
X177111000Y-127818000D02*
X174251000Y-127818000D01*
X177111000Y-129738000D02*
X177111000Y-127818000D01*
X174251000Y-129738000D02*
X177111000Y-129738000D01*
X177111000Y-125278000D02*
X174251000Y-125278000D01*
X177111000Y-127198000D02*
X177111000Y-125278000D01*
X174251000Y-127198000D02*
X177111000Y-127198000D01*
X177111000Y-133025000D02*
X174251000Y-133025000D01*
X177111000Y-134945000D02*
X177111000Y-133025000D01*
X174251000Y-134945000D02*
X177111000Y-134945000D01*
X177120000Y-130358000D02*
X174260000Y-130358000D01*
X177120000Y-132278000D02*
X177120000Y-130358000D01*
X174260000Y-132278000D02*
X177120000Y-132278000D01*
X152602000Y-123324252D02*
X152602000Y-122801748D01*
X151182000Y-123324252D02*
X151182000Y-122801748D01*
X134240748Y-138251000D02*
X134763252Y-138251000D01*
X134240748Y-136831000D02*
X134763252Y-136831000D01*
X174753748Y-142950000D02*
X175276252Y-142950000D01*
X174753748Y-141530000D02*
X175276252Y-141530000D01*
X129033748Y-142950000D02*
X129556252Y-142950000D01*
X129033748Y-141530000D02*
X129556252Y-141530000D01*
X149935000Y-117491252D02*
X149935000Y-116968748D01*
X148515000Y-117491252D02*
X148515000Y-116968748D01*
X165175000Y-117346252D02*
X165175000Y-116823748D01*
X163755000Y-117346252D02*
X163755000Y-116823748D01*
D11*
X137080666Y-124293380D02*
X137080666Y-125007666D01*
X137033047Y-125150523D01*
X136937809Y-125245761D01*
X136794952Y-125293380D01*
X136699714Y-125293380D01*
X138080666Y-125293380D02*
X137509238Y-125293380D01*
X137794952Y-125293380D02*
X137794952Y-124293380D01*
X137699714Y-124436238D01*
X137604476Y-124531476D01*
X137509238Y-124579095D01*
X141628904Y-128214380D02*
X141628904Y-127214380D01*
X141867000Y-127214380D01*
X142009857Y-127262000D01*
X142105095Y-127357238D01*
X142152714Y-127452476D01*
X142200333Y-127642952D01*
X142200333Y-127785809D01*
X142152714Y-127976285D01*
X142105095Y-128071523D01*
X142009857Y-128166761D01*
X141867000Y-128214380D01*
X141628904Y-128214380D01*
X143105095Y-127214380D02*
X142628904Y-127214380D01*
X142581285Y-127690571D01*
X142628904Y-127642952D01*
X142724142Y-127595333D01*
X142962238Y-127595333D01*
X143057476Y-127642952D01*
X143105095Y-127690571D01*
X143152714Y-127785809D01*
X143152714Y-128023904D01*
X143105095Y-128119142D01*
X143057476Y-128166761D01*
X142962238Y-128214380D01*
X142724142Y-128214380D01*
X142628904Y-128166761D01*
X142581285Y-128119142D01*
X141501904Y-135167380D02*
X141501904Y-134167380D01*
X141740000Y-134167380D01*
X141882857Y-134215000D01*
X141978095Y-134310238D01*
X142025714Y-134405476D01*
X142073333Y-134595952D01*
X142073333Y-134738809D01*
X142025714Y-134929285D01*
X141978095Y-135024523D01*
X141882857Y-135119761D01*
X141740000Y-135167380D01*
X141501904Y-135167380D01*
X142930476Y-134167380D02*
X142740000Y-134167380D01*
X142644761Y-134215000D01*
X142597142Y-134262619D01*
X142501904Y-134405476D01*
X142454285Y-134595952D01*
X142454285Y-134976904D01*
X142501904Y-135072142D01*
X142549523Y-135119761D01*
X142644761Y-135167380D01*
X142835238Y-135167380D01*
X142930476Y-135119761D01*
X142978095Y-135072142D01*
X143025714Y-134976904D01*
X143025714Y-134738809D01*
X142978095Y-134643571D01*
X142930476Y-134595952D01*
X142835238Y-134548333D01*
X142644761Y-134548333D01*
X142549523Y-134595952D01*
X142501904Y-134643571D01*
X142454285Y-134738809D01*
X127722333Y-125875142D02*
X127674714Y-125922761D01*
X127531857Y-125970380D01*
X127436619Y-125970380D01*
X127293761Y-125922761D01*
X127198523Y-125827523D01*
X127150904Y-125732285D01*
X127103285Y-125541809D01*
X127103285Y-125398952D01*
X127150904Y-125208476D01*
X127198523Y-125113238D01*
X127293761Y-125018000D01*
X127436619Y-124970380D01*
X127531857Y-124970380D01*
X127674714Y-125018000D01*
X127722333Y-125065619D01*
X128627095Y-124970380D02*
X128150904Y-124970380D01*
X128103285Y-125446571D01*
X128150904Y-125398952D01*
X128246142Y-125351333D01*
X128484238Y-125351333D01*
X128579476Y-125398952D01*
X128627095Y-125446571D01*
X128674714Y-125541809D01*
X128674714Y-125779904D01*
X128627095Y-125875142D01*
X128579476Y-125922761D01*
X128484238Y-125970380D01*
X128246142Y-125970380D01*
X128150904Y-125922761D01*
X128103285Y-125875142D01*
X153416095Y-131405380D02*
X153416095Y-132214904D01*
X153463714Y-132310142D01*
X153511333Y-132357761D01*
X153606571Y-132405380D01*
X153797047Y-132405380D01*
X153892285Y-132357761D01*
X153939904Y-132310142D01*
X153987523Y-132214904D01*
X153987523Y-131405380D01*
X154416095Y-131500619D02*
X154463714Y-131453000D01*
X154558952Y-131405380D01*
X154797047Y-131405380D01*
X154892285Y-131453000D01*
X154939904Y-131500619D01*
X154987523Y-131595857D01*
X154987523Y-131691095D01*
X154939904Y-131833952D01*
X154368476Y-132405380D01*
X154987523Y-132405380D01*
X137160095Y-133564380D02*
X137160095Y-134373904D01*
X137207714Y-134469142D01*
X137255333Y-134516761D01*
X137350571Y-134564380D01*
X137541047Y-134564380D01*
X137636285Y-134516761D01*
X137683904Y-134469142D01*
X137731523Y-134373904D01*
X137731523Y-133564380D01*
X138731523Y-134564380D02*
X138160095Y-134564380D01*
X138445809Y-134564380D02*
X138445809Y-133564380D01*
X138350571Y-133707238D01*
X138255333Y-133802476D01*
X138160095Y-133850095D01*
X165171380Y-129039857D02*
X164695190Y-129373190D01*
X165171380Y-129611285D02*
X164171380Y-129611285D01*
X164171380Y-129230333D01*
X164219000Y-129135095D01*
X164266619Y-129087476D01*
X164361857Y-129039857D01*
X164504714Y-129039857D01*
X164599952Y-129087476D01*
X164647571Y-129135095D01*
X164695190Y-129230333D01*
X164695190Y-129611285D01*
X165171380Y-128087476D02*
X165171380Y-128658904D01*
X165171380Y-128373190D02*
X164171380Y-128373190D01*
X164314238Y-128468428D01*
X164409476Y-128563666D01*
X164457095Y-128658904D01*
X164266619Y-127706523D02*
X164219000Y-127658904D01*
X164171380Y-127563666D01*
X164171380Y-127325571D01*
X164219000Y-127230333D01*
X164266619Y-127182714D01*
X164361857Y-127135095D01*
X164457095Y-127135095D01*
X164599952Y-127182714D01*
X165171380Y-127754142D01*
X165171380Y-127135095D01*
X131945142Y-125928380D02*
X131611809Y-125452190D01*
X131373714Y-125928380D02*
X131373714Y-124928380D01*
X131754666Y-124928380D01*
X131849904Y-124976000D01*
X131897523Y-125023619D01*
X131945142Y-125118857D01*
X131945142Y-125261714D01*
X131897523Y-125356952D01*
X131849904Y-125404571D01*
X131754666Y-125452190D01*
X131373714Y-125452190D01*
X132897523Y-125928380D02*
X132326095Y-125928380D01*
X132611809Y-125928380D02*
X132611809Y-124928380D01*
X132516571Y-125071238D01*
X132421333Y-125166476D01*
X132326095Y-125214095D01*
X133849904Y-125928380D02*
X133278476Y-125928380D01*
X133564190Y-125928380D02*
X133564190Y-124928380D01*
X133468952Y-125071238D01*
X133373714Y-125166476D01*
X133278476Y-125214095D01*
X165171380Y-134754857D02*
X164695190Y-135088190D01*
X165171380Y-135326285D02*
X164171380Y-135326285D01*
X164171380Y-134945333D01*
X164219000Y-134850095D01*
X164266619Y-134802476D01*
X164361857Y-134754857D01*
X164504714Y-134754857D01*
X164599952Y-134802476D01*
X164647571Y-134850095D01*
X164695190Y-134945333D01*
X164695190Y-135326285D01*
X165171380Y-133802476D02*
X165171380Y-134373904D01*
X165171380Y-134088190D02*
X164171380Y-134088190D01*
X164314238Y-134183428D01*
X164409476Y-134278666D01*
X164457095Y-134373904D01*
X164171380Y-133183428D02*
X164171380Y-133088190D01*
X164219000Y-132992952D01*
X164266619Y-132945333D01*
X164361857Y-132897714D01*
X164552333Y-132850095D01*
X164790428Y-132850095D01*
X164980904Y-132897714D01*
X165076142Y-132945333D01*
X165123761Y-132992952D01*
X165171380Y-133088190D01*
X165171380Y-133183428D01*
X165123761Y-133278666D01*
X165076142Y-133326285D01*
X164980904Y-133373904D01*
X164790428Y-133421523D01*
X164552333Y-133421523D01*
X164361857Y-133373904D01*
X164266619Y-133326285D01*
X164219000Y-133278666D01*
X164171380Y-133183428D01*
X165171380Y-131484666D02*
X164695190Y-131818000D01*
X165171380Y-132056095D02*
X164171380Y-132056095D01*
X164171380Y-131675142D01*
X164219000Y-131579904D01*
X164266619Y-131532285D01*
X164361857Y-131484666D01*
X164504714Y-131484666D01*
X164599952Y-131532285D01*
X164647571Y-131579904D01*
X164695190Y-131675142D01*
X164695190Y-132056095D01*
X165171380Y-131008476D02*
X165171380Y-130818000D01*
X165123761Y-130722761D01*
X165076142Y-130675142D01*
X164933285Y-130579904D01*
X164742809Y-130532285D01*
X164361857Y-130532285D01*
X164266619Y-130579904D01*
X164219000Y-130627523D01*
X164171380Y-130722761D01*
X164171380Y-130913238D01*
X164219000Y-131008476D01*
X164266619Y-131056095D01*
X164361857Y-131103714D01*
X164599952Y-131103714D01*
X164695190Y-131056095D01*
X164742809Y-131008476D01*
X164790428Y-130913238D01*
X164790428Y-130722761D01*
X164742809Y-130627523D01*
X164695190Y-130579904D01*
X164599952Y-130532285D01*
X150201333Y-127452380D02*
X149868000Y-126976190D01*
X149629904Y-127452380D02*
X149629904Y-126452380D01*
X150010857Y-126452380D01*
X150106095Y-126500000D01*
X150153714Y-126547619D01*
X150201333Y-126642857D01*
X150201333Y-126785714D01*
X150153714Y-126880952D01*
X150106095Y-126928571D01*
X150010857Y-126976190D01*
X149629904Y-126976190D01*
X150772761Y-126880952D02*
X150677523Y-126833333D01*
X150629904Y-126785714D01*
X150582285Y-126690476D01*
X150582285Y-126642857D01*
X150629904Y-126547619D01*
X150677523Y-126500000D01*
X150772761Y-126452380D01*
X150963238Y-126452380D01*
X151058476Y-126500000D01*
X151106095Y-126547619D01*
X151153714Y-126642857D01*
X151153714Y-126690476D01*
X151106095Y-126785714D01*
X151058476Y-126833333D01*
X150963238Y-126880952D01*
X150772761Y-126880952D01*
X150677523Y-126928571D01*
X150629904Y-126976190D01*
X150582285Y-127071428D01*
X150582285Y-127261904D01*
X150629904Y-127357142D01*
X150677523Y-127404761D01*
X150772761Y-127452380D01*
X150963238Y-127452380D01*
X151058476Y-127404761D01*
X151106095Y-127357142D01*
X151153714Y-127261904D01*
X151153714Y-127071428D01*
X151106095Y-126976190D01*
X151058476Y-126928571D01*
X150963238Y-126880952D01*
X150201333Y-133167380D02*
X149868000Y-132691190D01*
X149629904Y-133167380D02*
X149629904Y-132167380D01*
X150010857Y-132167380D01*
X150106095Y-132215000D01*
X150153714Y-132262619D01*
X150201333Y-132357857D01*
X150201333Y-132500714D01*
X150153714Y-132595952D01*
X150106095Y-132643571D01*
X150010857Y-132691190D01*
X149629904Y-132691190D01*
X150534666Y-132167380D02*
X151201333Y-132167380D01*
X150772761Y-133167380D01*
X150201333Y-129992380D02*
X149868000Y-129516190D01*
X149629904Y-129992380D02*
X149629904Y-128992380D01*
X150010857Y-128992380D01*
X150106095Y-129040000D01*
X150153714Y-129087619D01*
X150201333Y-129182857D01*
X150201333Y-129325714D01*
X150153714Y-129420952D01*
X150106095Y-129468571D01*
X150010857Y-129516190D01*
X149629904Y-129516190D01*
X151058476Y-128992380D02*
X150868000Y-128992380D01*
X150772761Y-129040000D01*
X150725142Y-129087619D01*
X150629904Y-129230476D01*
X150582285Y-129420952D01*
X150582285Y-129801904D01*
X150629904Y-129897142D01*
X150677523Y-129944761D01*
X150772761Y-129992380D01*
X150963238Y-129992380D01*
X151058476Y-129944761D01*
X151106095Y-129897142D01*
X151153714Y-129801904D01*
X151153714Y-129563809D01*
X151106095Y-129468571D01*
X151058476Y-129420952D01*
X150963238Y-129373333D01*
X150772761Y-129373333D01*
X150677523Y-129420952D01*
X150629904Y-129468571D01*
X150582285Y-129563809D01*
X157297380Y-135421666D02*
X156821190Y-135755000D01*
X157297380Y-135993095D02*
X156297380Y-135993095D01*
X156297380Y-135612142D01*
X156345000Y-135516904D01*
X156392619Y-135469285D01*
X156487857Y-135421666D01*
X156630714Y-135421666D01*
X156725952Y-135469285D01*
X156773571Y-135516904D01*
X156821190Y-135612142D01*
X156821190Y-135993095D01*
X156297380Y-134516904D02*
X156297380Y-134993095D01*
X156773571Y-135040714D01*
X156725952Y-134993095D01*
X156678333Y-134897857D01*
X156678333Y-134659761D01*
X156725952Y-134564523D01*
X156773571Y-134516904D01*
X156868809Y-134469285D01*
X157106904Y-134469285D01*
X157202142Y-134516904D01*
X157249761Y-134564523D01*
X157297380Y-134659761D01*
X157297380Y-134897857D01*
X157249761Y-134993095D01*
X157202142Y-135040714D01*
X159837380Y-135421666D02*
X159361190Y-135755000D01*
X159837380Y-135993095D02*
X158837380Y-135993095D01*
X158837380Y-135612142D01*
X158885000Y-135516904D01*
X158932619Y-135469285D01*
X159027857Y-135421666D01*
X159170714Y-135421666D01*
X159265952Y-135469285D01*
X159313571Y-135516904D01*
X159361190Y-135612142D01*
X159361190Y-135993095D01*
X159170714Y-134564523D02*
X159837380Y-134564523D01*
X158789761Y-134802619D02*
X159504047Y-135040714D01*
X159504047Y-134421666D01*
X152217380Y-135421666D02*
X151741190Y-135755000D01*
X152217380Y-135993095D02*
X151217380Y-135993095D01*
X151217380Y-135612142D01*
X151265000Y-135516904D01*
X151312619Y-135469285D01*
X151407857Y-135421666D01*
X151550714Y-135421666D01*
X151645952Y-135469285D01*
X151693571Y-135516904D01*
X151741190Y-135612142D01*
X151741190Y-135993095D01*
X151217380Y-135088333D02*
X151217380Y-134469285D01*
X151598333Y-134802619D01*
X151598333Y-134659761D01*
X151645952Y-134564523D01*
X151693571Y-134516904D01*
X151788809Y-134469285D01*
X152026904Y-134469285D01*
X152122142Y-134516904D01*
X152169761Y-134564523D01*
X152217380Y-134659761D01*
X152217380Y-134945476D01*
X152169761Y-135040714D01*
X152122142Y-135088333D01*
X154757380Y-135421666D02*
X154281190Y-135755000D01*
X154757380Y-135993095D02*
X153757380Y-135993095D01*
X153757380Y-135612142D01*
X153805000Y-135516904D01*
X153852619Y-135469285D01*
X153947857Y-135421666D01*
X154090714Y-135421666D01*
X154185952Y-135469285D01*
X154233571Y-135516904D01*
X154281190Y-135612142D01*
X154281190Y-135993095D01*
X153852619Y-135040714D02*
X153805000Y-134993095D01*
X153757380Y-134897857D01*
X153757380Y-134659761D01*
X153805000Y-134564523D01*
X153852619Y-134516904D01*
X153947857Y-134469285D01*
X154043095Y-134469285D01*
X154185952Y-134516904D01*
X154757380Y-135088333D01*
X154757380Y-134469285D01*
X161250333Y-121610380D02*
X160917000Y-121134190D01*
X160678904Y-121610380D02*
X160678904Y-120610380D01*
X161059857Y-120610380D01*
X161155095Y-120658000D01*
X161202714Y-120705619D01*
X161250333Y-120800857D01*
X161250333Y-120943714D01*
X161202714Y-121038952D01*
X161155095Y-121086571D01*
X161059857Y-121134190D01*
X160678904Y-121134190D01*
X162202714Y-121610380D02*
X161631285Y-121610380D01*
X161917000Y-121610380D02*
X161917000Y-120610380D01*
X161821761Y-120753238D01*
X161726523Y-120848476D01*
X161631285Y-120896095D01*
X156839761Y-121547619D02*
X156744523Y-121500000D01*
X156649285Y-121404761D01*
X156506428Y-121261904D01*
X156411190Y-121214285D01*
X156315952Y-121214285D01*
X156363571Y-121452380D02*
X156268333Y-121404761D01*
X156173095Y-121309523D01*
X156125476Y-121119047D01*
X156125476Y-120785714D01*
X156173095Y-120595238D01*
X156268333Y-120500000D01*
X156363571Y-120452380D01*
X156554047Y-120452380D01*
X156649285Y-120500000D01*
X156744523Y-120595238D01*
X156792142Y-120785714D01*
X156792142Y-121119047D01*
X156744523Y-121309523D01*
X156649285Y-121404761D01*
X156554047Y-121452380D01*
X156363571Y-121452380D01*
X157744523Y-121452380D02*
X157173095Y-121452380D01*
X157458809Y-121452380D02*
X157458809Y-120452380D01*
X157363571Y-120595238D01*
X157268333Y-120690476D01*
X157173095Y-120738095D01*
X143367380Y-146383333D02*
X144081666Y-146383333D01*
X144224523Y-146430952D01*
X144319761Y-146526190D01*
X144367380Y-146669047D01*
X144367380Y-146764285D01*
X143462619Y-145954761D02*
X143415000Y-145907142D01*
X143367380Y-145811904D01*
X143367380Y-145573809D01*
X143415000Y-145478571D01*
X143462619Y-145430952D01*
X143557857Y-145383333D01*
X143653095Y-145383333D01*
X143795952Y-145430952D01*
X144367380Y-146002380D01*
X144367380Y-145383333D01*
X129206666Y-121213571D02*
X128873333Y-121213571D01*
X128873333Y-121737380D02*
X128873333Y-120737380D01*
X129349523Y-120737380D01*
X130254285Y-121737380D02*
X129682857Y-121737380D01*
X129968571Y-121737380D02*
X129968571Y-120737380D01*
X129873333Y-120880238D01*
X129778095Y-120975476D01*
X129682857Y-121023095D01*
X150599142Y-123229666D02*
X150646761Y-123277285D01*
X150694380Y-123420142D01*
X150694380Y-123515380D01*
X150646761Y-123658238D01*
X150551523Y-123753476D01*
X150456285Y-123801095D01*
X150265809Y-123848714D01*
X150122952Y-123848714D01*
X149932476Y-123801095D01*
X149837238Y-123753476D01*
X149742000Y-123658238D01*
X149694380Y-123515380D01*
X149694380Y-123420142D01*
X149742000Y-123277285D01*
X149789619Y-123229666D01*
X149694380Y-122896333D02*
X149694380Y-122229666D01*
X150694380Y-122658238D01*
X137247333Y-137898142D02*
X137199714Y-137945761D01*
X137056857Y-137993380D01*
X136961619Y-137993380D01*
X136818761Y-137945761D01*
X136723523Y-137850523D01*
X136675904Y-137755285D01*
X136628285Y-137564809D01*
X136628285Y-137421952D01*
X136675904Y-137231476D01*
X136723523Y-137136238D01*
X136818761Y-137041000D01*
X136961619Y-136993380D01*
X137056857Y-136993380D01*
X137199714Y-137041000D01*
X137247333Y-137088619D01*
X138104476Y-136993380D02*
X137914000Y-136993380D01*
X137818761Y-137041000D01*
X137771142Y-137088619D01*
X137675904Y-137231476D01*
X137628285Y-137421952D01*
X137628285Y-137802904D01*
X137675904Y-137898142D01*
X137723523Y-137945761D01*
X137818761Y-137993380D01*
X138009238Y-137993380D01*
X138104476Y-137945761D01*
X138152095Y-137898142D01*
X138199714Y-137802904D01*
X138199714Y-137564809D01*
X138152095Y-137469571D01*
X138104476Y-137421952D01*
X138009238Y-137374333D01*
X137818761Y-137374333D01*
X137723523Y-137421952D01*
X137675904Y-137469571D01*
X137628285Y-137564809D01*
X171936333Y-142597142D02*
X171888714Y-142644761D01*
X171745857Y-142692380D01*
X171650619Y-142692380D01*
X171507761Y-142644761D01*
X171412523Y-142549523D01*
X171364904Y-142454285D01*
X171317285Y-142263809D01*
X171317285Y-142120952D01*
X171364904Y-141930476D01*
X171412523Y-141835238D01*
X171507761Y-141740000D01*
X171650619Y-141692380D01*
X171745857Y-141692380D01*
X171888714Y-141740000D01*
X171936333Y-141787619D01*
X172793476Y-142025714D02*
X172793476Y-142692380D01*
X172555380Y-141644761D02*
X172317285Y-142359047D01*
X172936333Y-142359047D01*
X126198333Y-142724142D02*
X126150714Y-142771761D01*
X126007857Y-142819380D01*
X125912619Y-142819380D01*
X125769761Y-142771761D01*
X125674523Y-142676523D01*
X125626904Y-142581285D01*
X125579285Y-142390809D01*
X125579285Y-142247952D01*
X125626904Y-142057476D01*
X125674523Y-141962238D01*
X125769761Y-141867000D01*
X125912619Y-141819380D01*
X126007857Y-141819380D01*
X126150714Y-141867000D01*
X126198333Y-141914619D01*
X126531666Y-141819380D02*
X127150714Y-141819380D01*
X126817380Y-142200333D01*
X126960238Y-142200333D01*
X127055476Y-142247952D01*
X127103095Y-142295571D01*
X127150714Y-142390809D01*
X127150714Y-142628904D01*
X127103095Y-142724142D01*
X127055476Y-142771761D01*
X126960238Y-142819380D01*
X126674523Y-142819380D01*
X126579285Y-142771761D01*
X126531666Y-142724142D01*
X149058333Y-120118142D02*
X149010714Y-120165761D01*
X148867857Y-120213380D01*
X148772619Y-120213380D01*
X148629761Y-120165761D01*
X148534523Y-120070523D01*
X148486904Y-119975285D01*
X148439285Y-119784809D01*
X148439285Y-119641952D01*
X148486904Y-119451476D01*
X148534523Y-119356238D01*
X148629761Y-119261000D01*
X148772619Y-119213380D01*
X148867857Y-119213380D01*
X149010714Y-119261000D01*
X149058333Y-119308619D01*
X149439285Y-119308619D02*
X149486904Y-119261000D01*
X149582142Y-119213380D01*
X149820238Y-119213380D01*
X149915476Y-119261000D01*
X149963095Y-119308619D01*
X150010714Y-119403857D01*
X150010714Y-119499095D01*
X149963095Y-119641952D01*
X149391666Y-120213380D01*
X150010714Y-120213380D01*
X164298333Y-119991142D02*
X164250714Y-120038761D01*
X164107857Y-120086380D01*
X164012619Y-120086380D01*
X163869761Y-120038761D01*
X163774523Y-119943523D01*
X163726904Y-119848285D01*
X163679285Y-119657809D01*
X163679285Y-119514952D01*
X163726904Y-119324476D01*
X163774523Y-119229238D01*
X163869761Y-119134000D01*
X164012619Y-119086380D01*
X164107857Y-119086380D01*
X164250714Y-119134000D01*
X164298333Y-119181619D01*
X165250714Y-120086380D02*
X164679285Y-120086380D01*
X164965000Y-120086380D02*
X164965000Y-119086380D01*
X164869761Y-119229238D01*
X164774523Y-119324476D01*
X164679285Y-119372095D01*
M02*
