G04 #@! TF.GenerationSoftware,KiCad,Pcbnew,(5.1.2)-2*
G04 #@! TF.CreationDate,2019-08-11T21:37:17+02:00*
G04 #@! TF.ProjectId,20190811_usbasp,32303139-3038-4313-915f-757362617370,rev?*
G04 #@! TF.SameCoordinates,Original*
G04 #@! TF.FileFunction,Soldermask,Bot*
G04 #@! TF.FilePolarity,Negative*
%FSLAX46Y46*%
G04 Gerber Fmt 4.6, Leading zero omitted, Abs format (unit mm)*
G04 Created by KiCad (PCBNEW (5.1.2)-2) date 2019-08-11 21:37:17*
%MOMM*%
%LPD*%
G04 APERTURE LIST*
%ADD10C,0.100000*%
G04 APERTURE END LIST*
D10*
G36*
X147586000Y-146951000D02*
G01*
X145784000Y-146951000D01*
X145784000Y-145149000D01*
X147586000Y-145149000D01*
X147586000Y-146951000D01*
X147586000Y-146951000D01*
G37*
G36*
X149335443Y-145155519D02*
G01*
X149401627Y-145162037D01*
X149571466Y-145213557D01*
X149727991Y-145297222D01*
X149763729Y-145326552D01*
X149865186Y-145409814D01*
X149948448Y-145511271D01*
X149977778Y-145547009D01*
X150061443Y-145703534D01*
X150112963Y-145873373D01*
X150130359Y-146050000D01*
X150112963Y-146226627D01*
X150061443Y-146396466D01*
X149977778Y-146552991D01*
X149948448Y-146588729D01*
X149865186Y-146690186D01*
X149763729Y-146773448D01*
X149727991Y-146802778D01*
X149571466Y-146886443D01*
X149401627Y-146937963D01*
X149335442Y-146944482D01*
X149269260Y-146951000D01*
X149180740Y-146951000D01*
X149114558Y-146944482D01*
X149048373Y-146937963D01*
X148878534Y-146886443D01*
X148722009Y-146802778D01*
X148686271Y-146773448D01*
X148584814Y-146690186D01*
X148501552Y-146588729D01*
X148472222Y-146552991D01*
X148388557Y-146396466D01*
X148337037Y-146226627D01*
X148319641Y-146050000D01*
X148337037Y-145873373D01*
X148388557Y-145703534D01*
X148472222Y-145547009D01*
X148501552Y-145511271D01*
X148584814Y-145409814D01*
X148686271Y-145326552D01*
X148722009Y-145297222D01*
X148878534Y-145213557D01*
X149048373Y-145162037D01*
X149114557Y-145155519D01*
X149180740Y-145149000D01*
X149269260Y-145149000D01*
X149335443Y-145155519D01*
X149335443Y-145155519D01*
G37*
G36*
X151875443Y-145155519D02*
G01*
X151941627Y-145162037D01*
X152111466Y-145213557D01*
X152267991Y-145297222D01*
X152303729Y-145326552D01*
X152405186Y-145409814D01*
X152488448Y-145511271D01*
X152517778Y-145547009D01*
X152601443Y-145703534D01*
X152652963Y-145873373D01*
X152670359Y-146050000D01*
X152652963Y-146226627D01*
X152601443Y-146396466D01*
X152517778Y-146552991D01*
X152488448Y-146588729D01*
X152405186Y-146690186D01*
X152303729Y-146773448D01*
X152267991Y-146802778D01*
X152111466Y-146886443D01*
X151941627Y-146937963D01*
X151875442Y-146944482D01*
X151809260Y-146951000D01*
X151720740Y-146951000D01*
X151654558Y-146944482D01*
X151588373Y-146937963D01*
X151418534Y-146886443D01*
X151262009Y-146802778D01*
X151226271Y-146773448D01*
X151124814Y-146690186D01*
X151041552Y-146588729D01*
X151012222Y-146552991D01*
X150928557Y-146396466D01*
X150877037Y-146226627D01*
X150859641Y-146050000D01*
X150877037Y-145873373D01*
X150928557Y-145703534D01*
X151012222Y-145547009D01*
X151041552Y-145511271D01*
X151124814Y-145409814D01*
X151226271Y-145326552D01*
X151262009Y-145297222D01*
X151418534Y-145213557D01*
X151588373Y-145162037D01*
X151654557Y-145155519D01*
X151720740Y-145149000D01*
X151809260Y-145149000D01*
X151875443Y-145155519D01*
X151875443Y-145155519D01*
G37*
G36*
X154415443Y-145155519D02*
G01*
X154481627Y-145162037D01*
X154651466Y-145213557D01*
X154807991Y-145297222D01*
X154843729Y-145326552D01*
X154945186Y-145409814D01*
X155028448Y-145511271D01*
X155057778Y-145547009D01*
X155141443Y-145703534D01*
X155192963Y-145873373D01*
X155210359Y-146050000D01*
X155192963Y-146226627D01*
X155141443Y-146396466D01*
X155057778Y-146552991D01*
X155028448Y-146588729D01*
X154945186Y-146690186D01*
X154843729Y-146773448D01*
X154807991Y-146802778D01*
X154651466Y-146886443D01*
X154481627Y-146937963D01*
X154415442Y-146944482D01*
X154349260Y-146951000D01*
X154260740Y-146951000D01*
X154194558Y-146944482D01*
X154128373Y-146937963D01*
X153958534Y-146886443D01*
X153802009Y-146802778D01*
X153766271Y-146773448D01*
X153664814Y-146690186D01*
X153581552Y-146588729D01*
X153552222Y-146552991D01*
X153468557Y-146396466D01*
X153417037Y-146226627D01*
X153399641Y-146050000D01*
X153417037Y-145873373D01*
X153468557Y-145703534D01*
X153552222Y-145547009D01*
X153581552Y-145511271D01*
X153664814Y-145409814D01*
X153766271Y-145326552D01*
X153802009Y-145297222D01*
X153958534Y-145213557D01*
X154128373Y-145162037D01*
X154194557Y-145155519D01*
X154260740Y-145149000D01*
X154349260Y-145149000D01*
X154415443Y-145155519D01*
X154415443Y-145155519D01*
G37*
G36*
X156955443Y-145155519D02*
G01*
X157021627Y-145162037D01*
X157191466Y-145213557D01*
X157347991Y-145297222D01*
X157383729Y-145326552D01*
X157485186Y-145409814D01*
X157568448Y-145511271D01*
X157597778Y-145547009D01*
X157681443Y-145703534D01*
X157732963Y-145873373D01*
X157750359Y-146050000D01*
X157732963Y-146226627D01*
X157681443Y-146396466D01*
X157597778Y-146552991D01*
X157568448Y-146588729D01*
X157485186Y-146690186D01*
X157383729Y-146773448D01*
X157347991Y-146802778D01*
X157191466Y-146886443D01*
X157021627Y-146937963D01*
X156955442Y-146944482D01*
X156889260Y-146951000D01*
X156800740Y-146951000D01*
X156734558Y-146944482D01*
X156668373Y-146937963D01*
X156498534Y-146886443D01*
X156342009Y-146802778D01*
X156306271Y-146773448D01*
X156204814Y-146690186D01*
X156121552Y-146588729D01*
X156092222Y-146552991D01*
X156008557Y-146396466D01*
X155957037Y-146226627D01*
X155939641Y-146050000D01*
X155957037Y-145873373D01*
X156008557Y-145703534D01*
X156092222Y-145547009D01*
X156121552Y-145511271D01*
X156204814Y-145409814D01*
X156306271Y-145326552D01*
X156342009Y-145297222D01*
X156498534Y-145213557D01*
X156668373Y-145162037D01*
X156734557Y-145155519D01*
X156800740Y-145149000D01*
X156889260Y-145149000D01*
X156955443Y-145155519D01*
X156955443Y-145155519D01*
G37*
G36*
X159495443Y-145155519D02*
G01*
X159561627Y-145162037D01*
X159731466Y-145213557D01*
X159887991Y-145297222D01*
X159923729Y-145326552D01*
X160025186Y-145409814D01*
X160108448Y-145511271D01*
X160137778Y-145547009D01*
X160221443Y-145703534D01*
X160272963Y-145873373D01*
X160290359Y-146050000D01*
X160272963Y-146226627D01*
X160221443Y-146396466D01*
X160137778Y-146552991D01*
X160108448Y-146588729D01*
X160025186Y-146690186D01*
X159923729Y-146773448D01*
X159887991Y-146802778D01*
X159731466Y-146886443D01*
X159561627Y-146937963D01*
X159495442Y-146944482D01*
X159429260Y-146951000D01*
X159340740Y-146951000D01*
X159274558Y-146944482D01*
X159208373Y-146937963D01*
X159038534Y-146886443D01*
X158882009Y-146802778D01*
X158846271Y-146773448D01*
X158744814Y-146690186D01*
X158661552Y-146588729D01*
X158632222Y-146552991D01*
X158548557Y-146396466D01*
X158497037Y-146226627D01*
X158479641Y-146050000D01*
X158497037Y-145873373D01*
X158548557Y-145703534D01*
X158632222Y-145547009D01*
X158661552Y-145511271D01*
X158744814Y-145409814D01*
X158846271Y-145326552D01*
X158882009Y-145297222D01*
X159038534Y-145213557D01*
X159208373Y-145162037D01*
X159274557Y-145155519D01*
X159340740Y-145149000D01*
X159429260Y-145149000D01*
X159495443Y-145155519D01*
X159495443Y-145155519D01*
G37*
G36*
X127901000Y-146951000D02*
G01*
X126099000Y-146951000D01*
X126099000Y-145149000D01*
X127901000Y-145149000D01*
X127901000Y-146951000D01*
X127901000Y-146951000D01*
G37*
G36*
X129650443Y-145155519D02*
G01*
X129716627Y-145162037D01*
X129886466Y-145213557D01*
X130042991Y-145297222D01*
X130078729Y-145326552D01*
X130180186Y-145409814D01*
X130263448Y-145511271D01*
X130292778Y-145547009D01*
X130376443Y-145703534D01*
X130427963Y-145873373D01*
X130445359Y-146050000D01*
X130427963Y-146226627D01*
X130376443Y-146396466D01*
X130292778Y-146552991D01*
X130263448Y-146588729D01*
X130180186Y-146690186D01*
X130078729Y-146773448D01*
X130042991Y-146802778D01*
X129886466Y-146886443D01*
X129716627Y-146937963D01*
X129650442Y-146944482D01*
X129584260Y-146951000D01*
X129495740Y-146951000D01*
X129429558Y-146944482D01*
X129363373Y-146937963D01*
X129193534Y-146886443D01*
X129037009Y-146802778D01*
X129001271Y-146773448D01*
X128899814Y-146690186D01*
X128816552Y-146588729D01*
X128787222Y-146552991D01*
X128703557Y-146396466D01*
X128652037Y-146226627D01*
X128634641Y-146050000D01*
X128652037Y-145873373D01*
X128703557Y-145703534D01*
X128787222Y-145547009D01*
X128816552Y-145511271D01*
X128899814Y-145409814D01*
X129001271Y-145326552D01*
X129037009Y-145297222D01*
X129193534Y-145213557D01*
X129363373Y-145162037D01*
X129429557Y-145155519D01*
X129495740Y-145149000D01*
X129584260Y-145149000D01*
X129650443Y-145155519D01*
X129650443Y-145155519D01*
G37*
G36*
X175370443Y-145155519D02*
G01*
X175436627Y-145162037D01*
X175606466Y-145213557D01*
X175762991Y-145297222D01*
X175798729Y-145326552D01*
X175900186Y-145409814D01*
X175983448Y-145511271D01*
X176012778Y-145547009D01*
X176096443Y-145703534D01*
X176147963Y-145873373D01*
X176165359Y-146050000D01*
X176147963Y-146226627D01*
X176096443Y-146396466D01*
X176012778Y-146552991D01*
X175983448Y-146588729D01*
X175900186Y-146690186D01*
X175798729Y-146773448D01*
X175762991Y-146802778D01*
X175606466Y-146886443D01*
X175436627Y-146937963D01*
X175370442Y-146944482D01*
X175304260Y-146951000D01*
X175215740Y-146951000D01*
X175149558Y-146944482D01*
X175083373Y-146937963D01*
X174913534Y-146886443D01*
X174757009Y-146802778D01*
X174721271Y-146773448D01*
X174619814Y-146690186D01*
X174536552Y-146588729D01*
X174507222Y-146552991D01*
X174423557Y-146396466D01*
X174372037Y-146226627D01*
X174354641Y-146050000D01*
X174372037Y-145873373D01*
X174423557Y-145703534D01*
X174507222Y-145547009D01*
X174536552Y-145511271D01*
X174619814Y-145409814D01*
X174721271Y-145326552D01*
X174757009Y-145297222D01*
X174913534Y-145213557D01*
X175083373Y-145162037D01*
X175149557Y-145155519D01*
X175215740Y-145149000D01*
X175304260Y-145149000D01*
X175370443Y-145155519D01*
X175370443Y-145155519D01*
G37*
G36*
X173621000Y-146951000D02*
G01*
X171819000Y-146951000D01*
X171819000Y-145149000D01*
X173621000Y-145149000D01*
X173621000Y-146951000D01*
X173621000Y-146951000D01*
G37*
G36*
X136635443Y-143250519D02*
G01*
X136701627Y-143257037D01*
X136871466Y-143308557D01*
X137027991Y-143392222D01*
X137063729Y-143421552D01*
X137165186Y-143504814D01*
X137248448Y-143606271D01*
X137277778Y-143642009D01*
X137361443Y-143798534D01*
X137412963Y-143968373D01*
X137430359Y-144145000D01*
X137412963Y-144321627D01*
X137361443Y-144491466D01*
X137277778Y-144647991D01*
X137248448Y-144683729D01*
X137165186Y-144785186D01*
X137063729Y-144868448D01*
X137027991Y-144897778D01*
X136871466Y-144981443D01*
X136701627Y-145032963D01*
X136635443Y-145039481D01*
X136569260Y-145046000D01*
X136480740Y-145046000D01*
X136414557Y-145039481D01*
X136348373Y-145032963D01*
X136178534Y-144981443D01*
X136022009Y-144897778D01*
X135986271Y-144868448D01*
X135884814Y-144785186D01*
X135801552Y-144683729D01*
X135772222Y-144647991D01*
X135688557Y-144491466D01*
X135637037Y-144321627D01*
X135619641Y-144145000D01*
X135637037Y-143968373D01*
X135688557Y-143798534D01*
X135772222Y-143642009D01*
X135801552Y-143606271D01*
X135884814Y-143504814D01*
X135986271Y-143421552D01*
X136022009Y-143392222D01*
X136178534Y-143308557D01*
X136348373Y-143257037D01*
X136414557Y-143250519D01*
X136480740Y-143244000D01*
X136569260Y-143244000D01*
X136635443Y-143250519D01*
X136635443Y-143250519D01*
G37*
G36*
X137426000Y-142506000D02*
G01*
X135624000Y-142506000D01*
X135624000Y-140704000D01*
X137426000Y-140704000D01*
X137426000Y-142506000D01*
X137426000Y-142506000D01*
G37*
G36*
X163940442Y-138805518D02*
G01*
X164006627Y-138812037D01*
X164176466Y-138863557D01*
X164332991Y-138947222D01*
X164368729Y-138976552D01*
X164470186Y-139059814D01*
X164553448Y-139161271D01*
X164582778Y-139197009D01*
X164666443Y-139353534D01*
X164717963Y-139523373D01*
X164735359Y-139700000D01*
X164717963Y-139876627D01*
X164666443Y-140046466D01*
X164582778Y-140202991D01*
X164553448Y-140238729D01*
X164470186Y-140340186D01*
X164368729Y-140423448D01*
X164332991Y-140452778D01*
X164176466Y-140536443D01*
X164006627Y-140587963D01*
X163940442Y-140594482D01*
X163874260Y-140601000D01*
X163785740Y-140601000D01*
X163719558Y-140594482D01*
X163653373Y-140587963D01*
X163483534Y-140536443D01*
X163327009Y-140452778D01*
X163291271Y-140423448D01*
X163189814Y-140340186D01*
X163106552Y-140238729D01*
X163077222Y-140202991D01*
X162993557Y-140046466D01*
X162942037Y-139876627D01*
X162924641Y-139700000D01*
X162942037Y-139523373D01*
X162993557Y-139353534D01*
X163077222Y-139197009D01*
X163106552Y-139161271D01*
X163189814Y-139059814D01*
X163291271Y-138976552D01*
X163327009Y-138947222D01*
X163483534Y-138863557D01*
X163653373Y-138812037D01*
X163719558Y-138805518D01*
X163785740Y-138799000D01*
X163874260Y-138799000D01*
X163940442Y-138805518D01*
X163940442Y-138805518D01*
G37*
G36*
X168385442Y-138805518D02*
G01*
X168451627Y-138812037D01*
X168621466Y-138863557D01*
X168777991Y-138947222D01*
X168813729Y-138976552D01*
X168915186Y-139059814D01*
X168998448Y-139161271D01*
X169027778Y-139197009D01*
X169111443Y-139353534D01*
X169162963Y-139523373D01*
X169180359Y-139700000D01*
X169162963Y-139876627D01*
X169111443Y-140046466D01*
X169027778Y-140202991D01*
X168998448Y-140238729D01*
X168915186Y-140340186D01*
X168813729Y-140423448D01*
X168777991Y-140452778D01*
X168621466Y-140536443D01*
X168451627Y-140587963D01*
X168385442Y-140594482D01*
X168319260Y-140601000D01*
X168230740Y-140601000D01*
X168164558Y-140594482D01*
X168098373Y-140587963D01*
X167928534Y-140536443D01*
X167772009Y-140452778D01*
X167736271Y-140423448D01*
X167634814Y-140340186D01*
X167551552Y-140238729D01*
X167522222Y-140202991D01*
X167438557Y-140046466D01*
X167387037Y-139876627D01*
X167369641Y-139700000D01*
X167387037Y-139523373D01*
X167438557Y-139353534D01*
X167522222Y-139197009D01*
X167551552Y-139161271D01*
X167634814Y-139059814D01*
X167736271Y-138976552D01*
X167772009Y-138947222D01*
X167928534Y-138863557D01*
X168098373Y-138812037D01*
X168164558Y-138805518D01*
X168230740Y-138799000D01*
X168319260Y-138799000D01*
X168385442Y-138805518D01*
X168385442Y-138805518D01*
G37*
G36*
X175370443Y-137535519D02*
G01*
X175436627Y-137542037D01*
X175606466Y-137593557D01*
X175762991Y-137677222D01*
X175798729Y-137706552D01*
X175900186Y-137789814D01*
X175983448Y-137891271D01*
X176012778Y-137927009D01*
X176096443Y-138083534D01*
X176147963Y-138253373D01*
X176165359Y-138430000D01*
X176147963Y-138606627D01*
X176096443Y-138776466D01*
X176012778Y-138932991D01*
X175983448Y-138968729D01*
X175900186Y-139070186D01*
X175798729Y-139153448D01*
X175762991Y-139182778D01*
X175606466Y-139266443D01*
X175436627Y-139317963D01*
X175370443Y-139324481D01*
X175304260Y-139331000D01*
X175215740Y-139331000D01*
X175149557Y-139324481D01*
X175083373Y-139317963D01*
X174913534Y-139266443D01*
X174757009Y-139182778D01*
X174721271Y-139153448D01*
X174619814Y-139070186D01*
X174536552Y-138968729D01*
X174507222Y-138932991D01*
X174423557Y-138776466D01*
X174372037Y-138606627D01*
X174354641Y-138430000D01*
X174372037Y-138253373D01*
X174423557Y-138083534D01*
X174507222Y-137927009D01*
X174536552Y-137891271D01*
X174619814Y-137789814D01*
X174721271Y-137706552D01*
X174757009Y-137677222D01*
X174913534Y-137593557D01*
X175083373Y-137542037D01*
X175149557Y-137535519D01*
X175215740Y-137529000D01*
X175304260Y-137529000D01*
X175370443Y-137535519D01*
X175370443Y-137535519D01*
G37*
G36*
X173621000Y-139331000D02*
G01*
X171819000Y-139331000D01*
X171819000Y-137529000D01*
X173621000Y-137529000D01*
X173621000Y-139331000D01*
X173621000Y-139331000D01*
G37*
G36*
X129650443Y-137535519D02*
G01*
X129716627Y-137542037D01*
X129886466Y-137593557D01*
X130042991Y-137677222D01*
X130078729Y-137706552D01*
X130180186Y-137789814D01*
X130263448Y-137891271D01*
X130292778Y-137927009D01*
X130376443Y-138083534D01*
X130427963Y-138253373D01*
X130445359Y-138430000D01*
X130427963Y-138606627D01*
X130376443Y-138776466D01*
X130292778Y-138932991D01*
X130263448Y-138968729D01*
X130180186Y-139070186D01*
X130078729Y-139153448D01*
X130042991Y-139182778D01*
X129886466Y-139266443D01*
X129716627Y-139317963D01*
X129650443Y-139324481D01*
X129584260Y-139331000D01*
X129495740Y-139331000D01*
X129429557Y-139324481D01*
X129363373Y-139317963D01*
X129193534Y-139266443D01*
X129037009Y-139182778D01*
X129001271Y-139153448D01*
X128899814Y-139070186D01*
X128816552Y-138968729D01*
X128787222Y-138932991D01*
X128703557Y-138776466D01*
X128652037Y-138606627D01*
X128634641Y-138430000D01*
X128652037Y-138253373D01*
X128703557Y-138083534D01*
X128787222Y-137927009D01*
X128816552Y-137891271D01*
X128899814Y-137789814D01*
X129001271Y-137706552D01*
X129037009Y-137677222D01*
X129193534Y-137593557D01*
X129363373Y-137542037D01*
X129429557Y-137535519D01*
X129495740Y-137529000D01*
X129584260Y-137529000D01*
X129650443Y-137535519D01*
X129650443Y-137535519D01*
G37*
G36*
X127901000Y-139331000D02*
G01*
X126099000Y-139331000D01*
X126099000Y-137529000D01*
X127901000Y-137529000D01*
X127901000Y-139331000D01*
X127901000Y-139331000D01*
G37*
G36*
X164731000Y-138061000D02*
G01*
X162929000Y-138061000D01*
X162929000Y-136259000D01*
X164731000Y-136259000D01*
X164731000Y-138061000D01*
X164731000Y-138061000D01*
G37*
G36*
X169176000Y-138061000D02*
G01*
X167374000Y-138061000D01*
X167374000Y-136259000D01*
X169176000Y-136259000D01*
X169176000Y-138061000D01*
X169176000Y-138061000D01*
G37*
G36*
X128380442Y-132455518D02*
G01*
X128446627Y-132462037D01*
X128616466Y-132513557D01*
X128772991Y-132597222D01*
X128808729Y-132626552D01*
X128910186Y-132709814D01*
X128993448Y-132811271D01*
X129022778Y-132847009D01*
X129106443Y-133003534D01*
X129157963Y-133173373D01*
X129175359Y-133350000D01*
X129157963Y-133526627D01*
X129106443Y-133696466D01*
X129022778Y-133852991D01*
X128993448Y-133888729D01*
X128910186Y-133990186D01*
X128808729Y-134073448D01*
X128772991Y-134102778D01*
X128616466Y-134186443D01*
X128446627Y-134237963D01*
X128380443Y-134244481D01*
X128314260Y-134251000D01*
X128225740Y-134251000D01*
X128159557Y-134244481D01*
X128093373Y-134237963D01*
X127923534Y-134186443D01*
X127767009Y-134102778D01*
X127731271Y-134073448D01*
X127629814Y-133990186D01*
X127546552Y-133888729D01*
X127517222Y-133852991D01*
X127433557Y-133696466D01*
X127382037Y-133526627D01*
X127364641Y-133350000D01*
X127382037Y-133173373D01*
X127433557Y-133003534D01*
X127517222Y-132847009D01*
X127546552Y-132811271D01*
X127629814Y-132709814D01*
X127731271Y-132626552D01*
X127767009Y-132597222D01*
X127923534Y-132513557D01*
X128093373Y-132462037D01*
X128159558Y-132455518D01*
X128225740Y-132449000D01*
X128314260Y-132449000D01*
X128380442Y-132455518D01*
X128380442Y-132455518D01*
G37*
G36*
X128380442Y-129915518D02*
G01*
X128446627Y-129922037D01*
X128616466Y-129973557D01*
X128772991Y-130057222D01*
X128808729Y-130086552D01*
X128910186Y-130169814D01*
X128993448Y-130271271D01*
X129022778Y-130307009D01*
X129106443Y-130463534D01*
X129157963Y-130633373D01*
X129175359Y-130810000D01*
X129157963Y-130986627D01*
X129106443Y-131156466D01*
X129022778Y-131312991D01*
X128993448Y-131348729D01*
X128910186Y-131450186D01*
X128808729Y-131533448D01*
X128772991Y-131562778D01*
X128616466Y-131646443D01*
X128446627Y-131697963D01*
X128380443Y-131704481D01*
X128314260Y-131711000D01*
X128225740Y-131711000D01*
X128159557Y-131704481D01*
X128093373Y-131697963D01*
X127923534Y-131646443D01*
X127767009Y-131562778D01*
X127731271Y-131533448D01*
X127629814Y-131450186D01*
X127546552Y-131348729D01*
X127517222Y-131312991D01*
X127433557Y-131156466D01*
X127382037Y-130986627D01*
X127364641Y-130810000D01*
X127382037Y-130633373D01*
X127433557Y-130463534D01*
X127517222Y-130307009D01*
X127546552Y-130271271D01*
X127629814Y-130169814D01*
X127731271Y-130086552D01*
X127767009Y-130057222D01*
X127923534Y-129973557D01*
X128093373Y-129922037D01*
X128159558Y-129915518D01*
X128225740Y-129909000D01*
X128314260Y-129909000D01*
X128380442Y-129915518D01*
X128380442Y-129915518D01*
G37*
G36*
X129171000Y-129171000D02*
G01*
X127369000Y-129171000D01*
X127369000Y-127369000D01*
X129171000Y-127369000D01*
X129171000Y-129171000D01*
X129171000Y-129171000D01*
G37*
G36*
X143330721Y-119485174D02*
G01*
X143430995Y-119526709D01*
X143430996Y-119526710D01*
X143521242Y-119587010D01*
X143597990Y-119663758D01*
X143597991Y-119663760D01*
X143658291Y-119754005D01*
X143699826Y-119854279D01*
X143721000Y-119960730D01*
X143721000Y-120069270D01*
X143699826Y-120175721D01*
X143658291Y-120275995D01*
X143658290Y-120275996D01*
X143597990Y-120366242D01*
X143521242Y-120442990D01*
X143475812Y-120473345D01*
X143430995Y-120503291D01*
X143330721Y-120544826D01*
X143224270Y-120566000D01*
X143115730Y-120566000D01*
X143009279Y-120544826D01*
X142909005Y-120503291D01*
X142864188Y-120473345D01*
X142818758Y-120442990D01*
X142742010Y-120366242D01*
X142681710Y-120275996D01*
X142681709Y-120275995D01*
X142640174Y-120175721D01*
X142619000Y-120069270D01*
X142619000Y-119960730D01*
X142640174Y-119854279D01*
X142681709Y-119754005D01*
X142742009Y-119663760D01*
X142742010Y-119663758D01*
X142818758Y-119587010D01*
X142909004Y-119526710D01*
X142909005Y-119526709D01*
X143009279Y-119485174D01*
X143115730Y-119464000D01*
X143224270Y-119464000D01*
X143330721Y-119485174D01*
X143330721Y-119485174D01*
G37*
G36*
X138930721Y-119485174D02*
G01*
X139030995Y-119526709D01*
X139030996Y-119526710D01*
X139121242Y-119587010D01*
X139197990Y-119663758D01*
X139197991Y-119663760D01*
X139258291Y-119754005D01*
X139299826Y-119854279D01*
X139321000Y-119960730D01*
X139321000Y-120069270D01*
X139299826Y-120175721D01*
X139258291Y-120275995D01*
X139258290Y-120275996D01*
X139197990Y-120366242D01*
X139121242Y-120442990D01*
X139075812Y-120473345D01*
X139030995Y-120503291D01*
X138930721Y-120544826D01*
X138824270Y-120566000D01*
X138715730Y-120566000D01*
X138609279Y-120544826D01*
X138509005Y-120503291D01*
X138464188Y-120473345D01*
X138418758Y-120442990D01*
X138342010Y-120366242D01*
X138281710Y-120275996D01*
X138281709Y-120275995D01*
X138240174Y-120175721D01*
X138219000Y-120069270D01*
X138219000Y-119960730D01*
X138240174Y-119854279D01*
X138281709Y-119754005D01*
X138342009Y-119663760D01*
X138342010Y-119663758D01*
X138418758Y-119587010D01*
X138509004Y-119526710D01*
X138509005Y-119526709D01*
X138609279Y-119485174D01*
X138715730Y-119464000D01*
X138824270Y-119464000D01*
X138930721Y-119485174D01*
X138930721Y-119485174D01*
G37*
G36*
X159618642Y-116704781D02*
G01*
X159764414Y-116765162D01*
X159764416Y-116765163D01*
X159895608Y-116852822D01*
X160007178Y-116964392D01*
X160094837Y-117095584D01*
X160094838Y-117095586D01*
X160155219Y-117241358D01*
X160186000Y-117396107D01*
X160186000Y-117553893D01*
X160155219Y-117708642D01*
X160094838Y-117854414D01*
X160094837Y-117854416D01*
X160007178Y-117985608D01*
X159895608Y-118097178D01*
X159764416Y-118184837D01*
X159764415Y-118184838D01*
X159764414Y-118184838D01*
X159618642Y-118245219D01*
X159463893Y-118276000D01*
X159306107Y-118276000D01*
X159151358Y-118245219D01*
X159005586Y-118184838D01*
X159005585Y-118184838D01*
X159005584Y-118184837D01*
X158874392Y-118097178D01*
X158762822Y-117985608D01*
X158675163Y-117854416D01*
X158675162Y-117854414D01*
X158614781Y-117708642D01*
X158584000Y-117553893D01*
X158584000Y-117396107D01*
X158614781Y-117241358D01*
X158675162Y-117095586D01*
X158675163Y-117095584D01*
X158762822Y-116964392D01*
X158874392Y-116852822D01*
X159005584Y-116765163D01*
X159005586Y-116765162D01*
X159151358Y-116704781D01*
X159306107Y-116674000D01*
X159463893Y-116674000D01*
X159618642Y-116704781D01*
X159618642Y-116704781D01*
G37*
G36*
X154718642Y-116704781D02*
G01*
X154864414Y-116765162D01*
X154864416Y-116765163D01*
X154995608Y-116852822D01*
X155107178Y-116964392D01*
X155194837Y-117095584D01*
X155194838Y-117095586D01*
X155255219Y-117241358D01*
X155286000Y-117396107D01*
X155286000Y-117553893D01*
X155255219Y-117708642D01*
X155194838Y-117854414D01*
X155194837Y-117854416D01*
X155107178Y-117985608D01*
X154995608Y-118097178D01*
X154864416Y-118184837D01*
X154864415Y-118184838D01*
X154864414Y-118184838D01*
X154718642Y-118245219D01*
X154563893Y-118276000D01*
X154406107Y-118276000D01*
X154251358Y-118245219D01*
X154105586Y-118184838D01*
X154105585Y-118184838D01*
X154105584Y-118184837D01*
X153974392Y-118097178D01*
X153862822Y-117985608D01*
X153775163Y-117854416D01*
X153775162Y-117854414D01*
X153714781Y-117708642D01*
X153684000Y-117553893D01*
X153684000Y-117396107D01*
X153714781Y-117241358D01*
X153775162Y-117095586D01*
X153775163Y-117095584D01*
X153862822Y-116964392D01*
X153974392Y-116852822D01*
X154105584Y-116765163D01*
X154105586Y-116765162D01*
X154251358Y-116704781D01*
X154406107Y-116674000D01*
X154563893Y-116674000D01*
X154718642Y-116704781D01*
X154718642Y-116704781D01*
G37*
M02*
